Atlética UNISAL-Regular.ufo
<glyph name="exclam" format="1">
  <advance width="480"/>
  <unicode hex="0021"/>
  <outline>
    <contour>
      <point x="380" y="0" type="line"/>
      <point x="380" y="280" type="line"/>
      <point x="100" y="280" type="line"/>
      <point x="100" y="0" type="line"/>
    </contour>
    <contour>
      <point x="320" y="560" type="line"/>
      <point x="380" y="980" type="line"/>
      <point x="380" y="1400" type="line"/>
      <point x="100" y="1400" type="line"/>
      <point x="100" y="980" type="line"/>
      <point x="160" y="560" type="line"/>
    </contour>
  </outline>
</glyph>
<glyph name="quotedbl" format="1">
  <advance width="890"/>
  <unicode hex="0022"/>
  <outline>
    <contour>
      <point x="790" y="841" type="line"/>
      <point x="790" y="1400" type="line"/>
      <point x="510" y="1400" type="line"/>
      <point x="510" y="841" type="line"/>
    </contour>
    <contour>
      <point x="380" y="841" type="line"/>
      <point x="380" y="1400" type="line"/>
      <point x="100" y="1400" type="line"/>
      <point x="100" y="841" type="line"/>
    </contour>
  </outline>
</glyph>
<glyph name="numbersign" format="1">
  <advance width="1320"/>
  <unicode hex="0023"/>
  <outline>
    <contour>
      <point x="520" y="0" type="line"/>
      <point x="520" y="280" type="line"/>
      <point x="800" y="280" type="line"/>
      <point x="800" y="0" type="line"/>
      <point x="1080" y="0" type="line"/>
      <point x="1080" y="280" type="line"/>
      <point x="1220" y="280" type="line"/>
      <point x="1220" y="560" type="line"/>
      <point x="1080" y="560" type="line"/>
      <point x="1080" y="840" type="line"/>
      <point x="1220" y="840" type="line"/>
      <point x="1220" y="1120" type="line"/>
      <point x="1080" y="1120" type="line"/>
      <point x="1080" y="1400" type="line"/>
      <point x="800" y="1400" type="line"/>
      <point x="800" y="1120" type="line"/>
      <point x="520" y="1120" type="line"/>
      <point x="520" y="1400" type="line"/>
      <point x="240" y="1400" type="line"/>
      <point x="240" y="1120" type="line"/>
      <point x="100" y="1120" type="line"/>
      <point x="100" y="840" type="line"/>
      <point x="240" y="840" type="line"/>
      <point x="240" y="560" type="line"/>
      <point x="100" y="560" type="line"/>
      <point x="100" y="280" type="line"/>
      <point x="240" y="280" type="line"/>
      <point x="240" y="0" type="line"/>
    </contour>
    <contour>
      <point x="520" y="840" type="line"/>
      <point x="800" y="840" type="line"/>
      <point x="800" y="560" type="line"/>
      <point x="520" y="560" type="line"/>
    </contour>
  </outline>
</glyph>
<glyph name="percent" format="1">
  <advance width="1705"/>
  <unicode hex="0025"/>
  <outline>
    <contour>
      <point x="424" y="-5" type="line"/>
      <point x="443" y="-11"/>
      <point x="245" y="-11"/>
      <point x="228" y="-5" type="curve"/>
      <point x="1316" y="1448" type="line"/>
      <point x="1543" y="1449" type="line"/>
    </contour>
    <contour>
      <point x="540" y="700" type="line"/>
      <point x="700" y="860" type="line"/>
      <point x="700" y="1540" type="line"/>
      <point x="540" y="1700" type="line"/>
      <point x="260" y="1700" type="line"/>
      <point x="100" y="1540" type="line"/>
      <point x="100" y="860" type="line"/>
      <point x="260" y="700" type="line"/>
    </contour>
    <contour>
      <point x="300" y="1500" type="line"/>
      <point x="500" y="1500" type="line"/>
      <point x="500" y="900" type="line"/>
      <point x="300" y="900" type="line"/>
    </contour>
    <contour>
      <point x="1445" y="-205" type="line"/>
      <point x="1605" y="-45" type="line"/>
      <point x="1605" y="635" type="line"/>
      <point x="1445" y="795" type="line"/>
      <point x="1165" y="795" type="line"/>
      <point x="1005" y="635" type="line"/>
      <point x="1005" y="-45" type="line"/>
      <point x="1165" y="-205" type="line"/>
    </contour>
    <contour>
      <point x="1205" y="595" type="line"/>
      <point x="1405" y="595" type="line"/>
      <point x="1405" y="-5" type="line"/>
      <point x="1205" y="-5" type="line"/>
    </contour>
  </outline>
</glyph>
<glyph name="ampersand" format="1">
  <advance width="1454"/>
  <unicode hex="0026"/>
  <outline>
    <contour>
      <point x="485" y="637" type="line"/>
      <point x="321" y="637" type="line"/>
      <point x="321" y="525" type="line"/>
      <point x="321" y="525" type="line"/>
      <point x="321" y="222" type="line"/>
      <point x="608" y="222" type="line"/>
      <point x="753" y="369" type="line"/>
    </contour>
    <contour>
      <point x="738" y="641" type="line"/>
      <point x="880" y="497" type="line"/>
      <point x="1097" y="716" type="line"/>
      <point x="1354" y="716" type="line"/>
      <point x="1008" y="369" type="line"/>
      <point x="1354" y="19" type="line"/>
      <point x="1102" y="19" type="line"/>
      <point x="880" y="241" type="line"/>
      <point x="653" y="12" type="line"/>
      <point x="639" y="12" type="line"/>
      <point x="639" y="12" type="line"/>
      <point x="233" y="12" type="line"/>
      <point x="100" y="160" type="line"/>
      <point x="100" y="335" type="line"/>
      <point x="100" y="335" type="line"/>
      <point x="100" y="699" type="line"/>
      <point x="233" y="847" type="line"/>
      <point x="234" y="847" type="line"/>
      <point x="234" y="1200" type="line"/>
      <point x="451" y="1419" type="line"/>
      <point x="736" y="1419" type="line"/>
      <point x="737" y="1418" type="line"/>
      <point x="737" y="1419" type="line"/>
      <point x="817" y="1335" type="line"/>
      <point x="949" y="1200" type="line"/>
      <point x="948" y="1200" type="line"/>
      <point x="948" y="844" type="line"/>
      <point x="738" y="645" type="line"/>
    </contour>
    <contour>
      <point x="731" y="847" type="line"/>
      <point x="734" y="1200" type="line"/>
      <point x="453" y="1200" type="line"/>
      <point x="453" y="847" type="line"/>
    </contour>
  </outline>
</glyph>
<glyph name="quotesingle" format="1">
  <advance width="480"/>
  <unicode hex="0027"/>
  <outline>
    <contour>
      <point x="380" y="841" type="line"/>
      <point x="380" y="1400" type="line"/>
      <point x="100" y="1400" type="line"/>
      <point x="100" y="841" type="line"/>
    </contour>
  </outline>
</glyph>
<glyph name="parenright" format="1">
  <advance width="665"/>
  <unicode hex="0029"/>
  <outline>
    <contour>
      <point x="100" y="-212" type="line"/>
      <point x="100" y="-47" type="line"/>
      <point x="343" y="-47" type="line"/>
      <point x="343" y="665" type="line"/>
      <point x="431" y="666" type="line"/>
      <point x="565" y="666" type="line"/>
      <point x="565" y="-63" type="line"/>
      <point x="431" y="-212" type="line"/>
    </contour>
    <contour>
      <point x="100" y="1541" type="line"/>
      <point x="431" y="1541" type="line"/>
      <point x="565" y="1393" type="line"/>
      <point x="565" y="666" type="line"/>
      <point x="431" y="666" type="line"/>
      <point x="343" y="665" type="line"/>
      <point x="343" y="1376" type="line"/>
      <point x="100" y="1376" type="line"/>
    </contour>
  </outline>
</glyph>
<glyph name="asterisk" format="1">
  <advance width="907"/>
  <unicode hex="002A"/>
  <outline>
    <contour>
      <point x="277" y="1048" type="line"/>
      <point x="168" y="912" type="line"/>
      <point x="352" y="780" type="line"/>
      <point x="453" y="930" type="line"/>
      <point x="561" y="780" type="line"/>
      <point x="752" y="914" type="line"/>
      <point x="630" y="1048" type="line"/>
      <point x="807" y="1106" type="line"/>
      <point x="752" y="1332" type="line"/>
      <point x="561" y="1265" type="line"/>
      <point x="561" y="1450" type="line"/>
      <point x="336" y="1450" type="line"/>
      <point x="336" y="1265" type="line"/>
      <point x="168" y="1332" type="line"/>
      <point x="100" y="1106" type="line"/>
    </contour>
  </outline>
</glyph>
<glyph name="hyphen" format="1">
  <advance width="1040"/>
  <unicode hex="002D"/>
  <outline>
    <contour>
      <point x="940" y="560" type="line"/>
      <point x="940" y="840" type="line"/>
      <point x="100" y="840" type="line"/>
      <point x="100" y="560" type="line"/>
    </contour>
  </outline>
</glyph>
<glyph name="slash" format="1">
  <advance width="1082"/>
  <unicode hex="002F"/>
  <outline>
    <contour>
      <point x="344" y="-309" type="line"/>
      <point x="982" y="1443" type="line"/>
      <point x="732" y="1443" type="line"/>
      <point x="100" y="-309" type="line"/>
    </contour>
  </outline>
</glyph>
<glyph name="four" format="1">
  <advance width="1040"/>
  <unicode hex="0034"/>
  <outline>
    <contour>
      <point x="940" y="0" type="line"/>
      <point x="940" y="280" type="line"/>
      <point x="800" y="280" type="line"/>
      <point x="800" y="420" type="line"/>
      <point x="940" y="420" type="line"/>
      <point x="940" y="700" type="line"/>
      <point x="800" y="700" type="line"/>
      <point x="800" y="1400" type="line"/>
      <point x="520" y="1400" type="line"/>
      <point x="100" y="700" type="line"/>
      <point x="100" y="420" type="line"/>
      <point x="520" y="420" type="line"/>
      <point x="520" y="280" type="line"/>
      <point x="380" y="280" type="line"/>
      <point x="380" y="0" type="line"/>
    </contour>
    <contour>
      <point x="520" y="900" type="line"/>
      <point x="520" y="700" type="line"/>
      <point x="400" y="700" type="line"/>
    </contour>
  </outline>
</glyph>
<glyph name="five" format="1">
  <advance width="1040"/>
  <unicode hex="0035"/>
  <outline>
    <contour>
      <point x="100" y="784" type="line"/>
      <point x="324" y="560" type="line"/>
      <point x="660" y="560" type="line"/>
      <point x="660" y="280" type="line"/>
      <point x="380" y="280" type="line"/>
      <point x="380" y="420" type="line"/>
      <point x="100" y="420" type="line"/>
      <point x="100" y="224" type="line"/>
      <point x="324" y="0" type="line"/>
      <point x="716" y="0" type="line"/>
      <point x="940" y="224" type="line"/>
      <point x="940" y="616" type="line"/>
      <point x="716" y="840" type="line"/>
      <point x="380" y="840" type="line"/>
      <point x="380" y="1120" type="line"/>
      <point x="940" y="1120" type="line"/>
      <point x="940" y="1400" type="line"/>
      <point x="100" y="1400" type="line"/>
    </contour>
  </outline>
</glyph>
<glyph name="seven" format="1">
  <advance width="1040"/>
  <unicode hex="0037"/>
  <outline>
    <contour>
      <point x="660" y="0" type="line"/>
      <point x="660" y="280" type="line"/>
      <point x="520" y="280" type="line"/>
      <point x="940" y="1120" type="line"/>
      <point x="940" y="1400" type="line"/>
      <point x="100" y="1400" type="line"/>
      <point x="100" y="980" type="line"/>
      <point x="380" y="980" type="line"/>
      <point x="380" y="1120" type="line"/>
      <point x="660" y="1120" type="line"/>
      <point x="240" y="280" type="line"/>
      <point x="100" y="280" type="line"/>
      <point x="100" y="0" type="line"/>
    </contour>
  </outline>
</glyph>
<glyph name="less" format="1">
  <advance width="1029"/>
  <unicode hex="003C"/>
  <outline>
    <contour>
      <point x="929" y="585" type="line"/>
      <point x="235" y="0" type="line"/>
      <point x="100" y="166" type="line"/>
      <point x="733" y="700" type="line"/>
      <point x="100" y="1234" type="line"/>
      <point x="235" y="1400" type="line"/>
      <point x="929" y="815" type="line"/>
      <point x="929" y="815" type="line"/>
      <point x="929" y="585" type="line"/>
    </contour>
  </outline>
</glyph>
<glyph name="greater" format="1">
  <advance width="1029"/>
  <unicode hex="003E"/>
  <outline>
    <contour>
      <point x="100" y="585" type="line"/>
      <point x="100" y="585" type="line"/>
      <point x="100" y="815" type="line"/>
      <point x="100" y="815" type="line"/>
      <point x="794" y="1400" type="line"/>
      <point x="929" y="1234" type="line"/>
      <point x="296" y="700" type="line"/>
      <point x="929" y="166" type="line"/>
      <point x="794" y="0" type="line"/>
    </contour>
  </outline>
</glyph>
<glyph name="at" format="1">
  <advance width="1446"/>
  <unicode hex="0040"/>
  <outline>
    <contour>
      <point x="120" y="198" type="line"/>
      <point x="100" y="218" type="line"/>
      <point x="100" y="1180" type="line"/>
      <point x="308" y="1389" type="line"/>
      <point x="308" y="1400" type="line"/>
      <point x="1136" y="1400" type="line"/>
      <point x="1136" y="1392" type="line"/>
      <point x="1346" y="1204" type="line"/>
      <point x="1346" y="525" type="line"/>
      <point x="1340" y="525" type="line"/>
      <point x="1128" y="312" type="line"/>
      <point x="641" y="312" type="line"/>
      <point x="427" y="527" type="line"/>
      <point x="423" y="528" type="line"/>
      <point x="423" y="815" type="line"/>
      <point x="426" y="816" type="line"/>
      <point x="642" y="1033" type="line"/>
      <point x="1082" y="1033" type="line"/>
      <point x="1082" y="814" type="line"/>
      <point x="1027" y="814" type="line"/>
      <point x="1027" y="531" type="line"/>
      <point x="1127" y="531" type="line"/>
      <point x="1127" y="1181" type="line"/>
      <point x="319" y="1181" type="line"/>
      <point x="319" y="219" type="line"/>
      <point x="1131" y="219" type="line"/>
      <point x="1330" y="0" type="line"/>
      <point x="308" y="0" type="line"/>
    </contour>
    <contour>
      <point x="642" y="531" type="line"/>
      <point x="808" y="531" type="line"/>
      <point x="808" y="814" type="line"/>
      <point x="642" y="814" type="line"/>
    </contour>
  </outline>
</glyph>
<glyph name="E" format="1">
  <advance width="1180"/>
  <unicode hex="0045"/>
  <outline>
    <contour>
      <point x="1080" y="0" type="line"/>
      <point x="1080" y="420" type="line"/>
      <point x="800" y="420" type="line"/>
      <point x="800" y="280" type="line"/>
      <point x="520" y="280" type="line"/>
      <point x="520" y="560" type="line"/>
      <point x="800" y="560" type="line"/>
      <point x="800" y="840" type="line"/>
      <point x="520" y="840" type="line"/>
      <point x="520" y="1120" type="line"/>
      <point x="800" y="1120" type="line"/>
      <point x="800" y="980" type="line"/>
      <point x="1080" y="980" type="line"/>
      <point x="1080" y="1400" type="line"/>
      <point x="100" y="1400" type="line"/>
      <point x="100" y="1120" type="line"/>
      <point x="240" y="1120" type="line"/>
      <point x="240" y="280" type="line"/>
      <point x="100" y="280" type="line"/>
      <point x="100" y="0" type="line"/>
    </contour>
  </outline>
</glyph>
<glyph name="M" format="1">
  <advance width="1580"/>
  <unicode hex="004D"/>
  <outline>
    <contour>
      <point x="656" y="0" type="line"/>
      <point x="656" y="280" type="line"/>
      <point x="520" y="280" type="line"/>
      <point x="520" y="680" type="line"/>
      <point x="804" y="-8" type="line"/>
      <point x="1080" y="680" type="line"/>
      <point x="1080" y="280" type="line"/>
      <point x="940" y="280" type="line"/>
      <point x="940" y="0" type="line"/>
      <point x="1480" y="0" type="line"/>
      <point x="1480" y="280" type="line"/>
      <point x="1340" y="280" type="line"/>
      <point x="1340" y="1120" type="line"/>
      <point x="1480" y="1120" type="line"/>
      <point x="1480" y="1400" type="line"/>
      <point x="1080" y="1400" type="line"/>
      <point x="800" y="720" type="line"/>
      <point x="520" y="1400" type="line"/>
      <point x="100" y="1400" type="line"/>
      <point x="100" y="1120" type="line"/>
      <point x="240" y="1120" type="line"/>
      <point x="240" y="280" type="line"/>
      <point x="100" y="280" type="line"/>
      <point x="100" y="0" type="line"/>
    </contour>
  </outline>
</glyph>
<glyph name="N" format="1">
  <advance width="1460"/>
  <unicode hex="004E"/>
  <outline>
    <contour>
      <point x="660" y="0" type="line"/>
      <point x="660" y="280" type="line"/>
      <point x="520" y="280" type="line"/>
      <point x="520" y="800" type="line"/>
      <point x="940" y="0" type="line"/>
      <point x="1220" y="0" type="line"/>
      <point x="1220" y="1120" type="line"/>
      <point x="1360" y="1120" type="line"/>
      <point x="1360" y="1400" type="line"/>
      <point x="800" y="1400" type="line"/>
      <point x="800" y="1120" type="line"/>
      <point x="940" y="1120" type="line"/>
      <point x="940" y="600" type="line"/>
      <point x="520" y="1400" type="line"/>
      <point x="100" y="1400" type="line"/>
      <point x="100" y="1120" type="line"/>
      <point x="240" y="1120" type="line"/>
      <point x="240" y="280" type="line"/>
      <point x="100" y="280" type="line"/>
      <point x="100" y="0" type="line"/>
    </contour>
  </outline>
</glyph>
<glyph name="O" format="1">
  <advance width="1040"/>
  <unicode hex="004F"/>
  <outline>
    <contour>
      <point x="716" y="0" type="line"/>
      <point x="940" y="224" type="line"/>
      <point x="940" y="1176" type="line"/>
      <point x="716" y="1400" type="line"/>
      <point x="324" y="1400" type="line"/>
      <point x="100" y="1176" type="line"/>
      <point x="100" y="224" type="line"/>
      <point x="324" y="0" type="line"/>
    </contour>
    <contour>
      <point x="380" y="1120" type="line"/>
      <point x="660" y="1120" type="line"/>
      <point x="660" y="280" type="line"/>
      <point x="380" y="280" type="line"/>
    </contour>
  </outline>
</glyph>
<glyph name="W" format="1">
  <advance width="1600"/>
  <unicode hex="0057"/>
  <outline>
    <contour>
      <point x="240" y="1120" type="line"/>
      <point x="380" y="280" type="line"/>
      <point x="240" y="280" type="line"/>
      <point x="240" y="0" type="line"/>
      <point x="780" y="0" type="line"/>
      <point x="780" y="280" type="line"/>
      <point x="660" y="280" type="line"/>
      <point x="800" y="560" type="line"/>
      <point x="940" y="280" type="line"/>
      <point x="820" y="280" type="line"/>
      <point x="820" y="0" type="line"/>
      <point x="1360" y="0" type="line"/>
      <point x="1360" y="280" type="line"/>
      <point x="1220" y="280" type="line"/>
      <point x="1360" y="1120" type="line"/>
      <point x="1500" y="1120" type="line"/>
      <point x="1500" y="1400" type="line"/>
      <point x="940" y="1400" type="line"/>
      <point x="940" y="1120" type="line"/>
      <point x="1080" y="1120" type="line"/>
      <point x="1008" y="700" type="line"/>
      <point x="800" y="1120" type="line"/>
      <point x="592" y="700" type="line"/>
      <point x="520" y="1120" type="line"/>
      <point x="660" y="1120" type="line"/>
      <point x="660" y="1400" type="line"/>
      <point x="100" y="1400" type="line"/>
      <point x="100" y="1120" type="line"/>
    </contour>
  </outline>
</glyph>
<glyph name="Z" format="1">
  <advance width="1180"/>
  <unicode hex="005A"/>
  <outline>
    <contour>
      <point x="380" y="980" type="line"/>
      <point x="380" y="1120" type="line"/>
      <point x="740" y="1120" type="line"/>
      <point x="100" y="280" type="line"/>
      <point x="100" y="0" type="line"/>
      <point x="1080" y="0" type="line"/>
      <point x="1080" y="420" type="line"/>
      <point x="800" y="420" type="line"/>
      <point x="800" y="280" type="line"/>
      <point x="440" y="280" type="line"/>
      <point x="1080" y="1120" type="line"/>
      <point x="1080" y="1400" type="line"/>
      <point x="100" y="1400" type="line"/>
      <point x="100" y="980" type="line"/>
    </contour>
  </outline>
</glyph>
<glyph name="backslash" format="1">
  <advance width="1082"/>
  <unicode hex="005C"/>
  <outline>
    <contour>
      <point x="738" y="-309" type="line"/>
      <point x="982" y="-309" type="line"/>
      <point x="350" y="1443" type="line"/>
      <point x="100" y="1443" type="line"/>
    </contour>
  </outline>
</glyph>
<glyph name="asciicircum" format="1">
  <advance width="1140"/>
  <unicode hex="005E"/>
  <outline>
    <contour>
      <point x="675" y="1700" type="line"/>
      <point x="1040" y="1006" type="line"/>
      <point x="824" y="871" type="line"/>
      <point x="560" y="1454" type="line"/>
      <point x="316" y="871" type="line"/>
      <point x="100" y="1006" type="line"/>
      <point x="445" y="1700" type="line"/>
    </contour>
  </outline>
</glyph>
<glyph name="underscore" format="1">
  <advance width="1225"/>
  <unicode hex="005F"/>
  <outline>
    <contour>
      <point x="1125" y="-346" type="line"/>
      <point x="1125" y="-66" type="line"/>
      <point x="100" y="-66" type="line"/>
      <point x="100" y="-346" type="line"/>
    </contour>
  </outline>
</glyph>
<glyph name="grave" format="1">
  <advance width="600"/>
  <unicode hex="0060"/>
  <outline>
    <contour>
      <point x="790" y="1440" type="line"/>
      <point x="662" y="1440" type="line"/>
      <point x="475" y="1603" type="line"/>
      <point x="565" y="1701" type="line"/>
    </contour>
  </outline>
</glyph>
<glyph name="a" format="1">
  <advance width="1320"/>
  <unicode hex="0061"/>
  <outline>
    <contour>
      <point x="733" y="574" type="line"/>
      <point x="587" y="574" type="line"/>
      <point x="660" y="1009" type="line"/>
    </contour>
    <contour>
      <point x="100" y="0" type="line"/>
      <point x="640" y="0" type="line"/>
      <point x="640" y="280" type="line"/>
      <point x="520" y="280" type="line"/>
      <point x="555" y="420" type="line"/>
      <point x="765" y="420" type="line"/>
      <point x="800" y="280" type="line"/>
      <point x="680" y="280" type="line"/>
      <point x="680" y="0" type="line"/>
      <point x="1220" y="0" type="line"/>
      <point x="1220" y="280" type="line"/>
      <point x="1080" y="280" type="line"/>
      <point x="870" y="1122" type="line"/>
      <point x="1007" y="1122" type="line"/>
      <point x="1007" y="1400" type="line"/>
      <point x="318" y="1400" type="line"/>
      <point x="318" y="1122" type="line"/>
      <point x="451" y="1122" type="line"/>
      <point x="240" y="280" type="line"/>
      <point x="100" y="280" type="line"/>
    </contour>
  </outline>
</glyph>
<glyph name="f" format="1">
  <advance width="1180"/>
  <unicode hex="0066"/>
  <outline>
    <contour>
      <point x="660" y="0" type="line"/>
      <point x="660" y="280" type="line"/>
      <point x="520" y="280" type="line"/>
      <point x="520" y="560" type="line"/>
      <point x="800" y="560" type="line"/>
      <point x="800" y="840" type="line"/>
      <point x="520" y="840" type="line"/>
      <point x="520" y="1120" type="line"/>
      <point x="800" y="1120" type="line"/>
      <point x="800" y="980" type="line"/>
      <point x="1080" y="980" type="line"/>
      <point x="1080" y="1400" type="line"/>
      <point x="100" y="1400" type="line"/>
      <point x="100" y="1120" type="line"/>
      <point x="240" y="1120" type="line"/>
      <point x="240" y="280" type="line"/>
      <point x="100" y="280" type="line"/>
      <point x="100" y="0" type="line"/>
    </contour>
  </outline>
</glyph>
<glyph name="h" format="1">
  <advance width="1320"/>
  <unicode hex="0068"/>
  <outline>
    <contour>
      <point x="640" y="0" type="line"/>
      <point x="640" y="280" type="line"/>
      <point x="520" y="280" type="line"/>
      <point x="520" y="560" type="line"/>
      <point x="800" y="560" type="line"/>
      <point x="800" y="280" type="line"/>
      <point x="680" y="280" type="line"/>
      <point x="680" y="0" type="line"/>
      <point x="1220" y="0" type="line"/>
      <point x="1220" y="280" type="line"/>
      <point x="1080" y="280" type="line"/>
      <point x="1080" y="1120" type="line"/>
      <point x="1220" y="1120" type="line"/>
      <point x="1220" y="1400" type="line"/>
      <point x="680" y="1400" type="line"/>
      <point x="680" y="1120" type="line"/>
      <point x="800" y="1120" type="line"/>
      <point x="800" y="840" type="line"/>
      <point x="520" y="840" type="line"/>
      <point x="520" y="1120" type="line"/>
      <point x="640" y="1120" type="line"/>
      <point x="640" y="1400" type="line"/>
      <point x="100" y="1400" type="line"/>
      <point x="100" y="1120" type="line"/>
      <point x="240" y="1120" type="line"/>
      <point x="240" y="280" type="line"/>
      <point x="100" y="280" type="line"/>
      <point x="100" y="0" type="line"/>
    </contour>
  </outline>
</glyph>
<glyph name="i" format="1">
  <advance width="740"/>
  <unicode hex="0069"/>
  <outline>
    <contour>
      <point x="640" y="0" type="line"/>
      <point x="640" y="280" type="line"/>
      <point x="520" y="280" type="line"/>
      <point x="520" y="1120" type="line"/>
      <point x="640" y="1120" type="line"/>
      <point x="640" y="1400" type="line"/>
      <point x="100" y="1400" type="line"/>
      <point x="100" y="1120" type="line"/>
      <point x="240" y="1120" type="line"/>
      <point x="240" y="280" type="line"/>
      <point x="100" y="280" type="line"/>
      <point x="100" y="0" type="line"/>
    </contour>
  </outline>
</glyph>
<glyph name="l" format="1">
  <advance width="1180"/>
  <unicode hex="006C"/>
  <outline>
    <contour>
      <point x="1080" y="0" type="line"/>
      <point x="1080" y="420" type="line"/>
      <point x="800" y="420" type="line"/>
      <point x="800" y="280" type="line"/>
      <point x="520" y="280" type="line"/>
      <point x="520" y="1120" type="line"/>
      <point x="660" y="1120" type="line"/>
      <point x="660" y="1400" type="line"/>
      <point x="100" y="1400" type="line"/>
      <point x="100" y="1120" type="line"/>
      <point x="240" y="1120" type="line"/>
      <point x="240" y="280" type="line"/>
      <point x="100" y="280" type="line"/>
      <point x="100" y="0" type="line"/>
    </contour>
  </outline>
</glyph>
<glyph name="m" format="1">
  <advance width="1580"/>
  <unicode hex="006D"/>
  <outline>
    <contour>
      <point x="656" y="0" type="line"/>
      <point x="656" y="280" type="line"/>
      <point x="520" y="280" type="line"/>
      <point x="520" y="680" type="line"/>
      <point x="804" y="-8" type="line"/>
      <point x="1080" y="680" type="line"/>
      <point x="1080" y="280" type="line"/>
      <point x="940" y="280" type="line"/>
      <point x="940" y="0" type="line"/>
      <point x="1480" y="0" type="line"/>
      <point x="1480" y="280" type="line"/>
      <point x="1340" y="280" type="line"/>
      <point x="1340" y="1120" type="line"/>
      <point x="1480" y="1120" type="line"/>
      <point x="1480" y="1400" type="line"/>
      <point x="1080" y="1400" type="line"/>
      <point x="800" y="720" type="line"/>
      <point x="520" y="1400" type="line"/>
      <point x="100" y="1400" type="line"/>
      <point x="100" y="1120" type="line"/>
      <point x="240" y="1120" type="line"/>
      <point x="240" y="280" type="line"/>
      <point x="100" y="280" type="line"/>
      <point x="100" y="0" type="line"/>
    </contour>
  </outline>
</glyph>
<glyph name="p" format="1">
  <advance width="1180"/>
  <unicode hex="0070"/>
  <outline>
    <contour>
      <point x="660" y="0" type="line"/>
      <point x="660" y="280" type="line"/>
      <point x="520" y="280" type="line"/>
      <point x="520" y="560" type="line"/>
      <point x="856" y="560" type="line"/>
      <point x="1080" y="784" type="line"/>
      <point x="1080" y="1176" type="line"/>
      <point x="856" y="1400" type="line"/>
      <point x="100" y="1400" type="line"/>
      <point x="100" y="1120" type="line"/>
      <point x="240" y="1120" type="line"/>
      <point x="240" y="280" type="line"/>
      <point x="100" y="280" type="line"/>
      <point x="100" y="0" type="line"/>
    </contour>
    <contour>
      <point x="520" y="1120" type="line"/>
      <point x="800" y="1120" type="line"/>
      <point x="800" y="840" type="line"/>
      <point x="520" y="840" type="line"/>
    </contour>
  </outline>
</glyph>
<glyph name="u" format="1">
  <advance width="1320"/>
  <unicode hex="0075"/>
  <outline>
    <contour>
      <point x="100" y="1120" type="line"/>
      <point x="240" y="1120" type="line"/>
      <point x="240" y="224" type="line"/>
      <point x="464" y="0" type="line"/>
      <point x="856" y="0" type="line"/>
      <point x="1080" y="224" type="line"/>
      <point x="1080" y="1120" type="line"/>
      <point x="1220" y="1120" type="line"/>
      <point x="1220" y="1400" type="line"/>
      <point x="680" y="1400" type="line"/>
      <point x="680" y="1120" type="line"/>
      <point x="800" y="1120" type="line"/>
      <point x="800" y="280" type="line"/>
      <point x="520" y="280" type="line"/>
      <point x="520" y="1120" type="line"/>
      <point x="640" y="1120" type="line"/>
      <point x="640" y="1400" type="line"/>
      <point x="100" y="1400" type="line"/>
    </contour>
  </outline>
</glyph>
<glyph name="x" format="1">
  <advance width="1320"/>
  <unicode hex="0078"/>
  <outline>
    <contour>
      <point x="240" y="1120" type="line"/>
      <point x="520" y="700" type="line"/>
      <point x="240" y="280" type="line"/>
      <point x="100" y="280" type="line"/>
      <point x="100" y="0" type="line"/>
      <point x="640" y="0" type="line"/>
      <point x="640" y="280" type="line"/>
      <point x="520" y="280" type="line"/>
      <point x="660" y="490" type="line"/>
      <point x="800" y="280" type="line"/>
      <point x="680" y="280" type="line"/>
      <point x="680" y="0" type="line"/>
      <point x="1220" y="0" type="line"/>
      <point x="1220" y="280" type="line"/>
      <point x="1080" y="280" type="line"/>
      <point x="800" y="700" type="line"/>
      <point x="1080" y="1120" type="line"/>
      <point x="1220" y="1120" type="line"/>
      <point x="1220" y="1400" type="line"/>
      <point x="680" y="1400" type="line"/>
      <point x="680" y="1120" type="line"/>
      <point x="800" y="1120" type="line"/>
      <point x="660" y="910" type="line"/>
      <point x="520" y="1120" type="line"/>
      <point x="640" y="1120" type="line"/>
      <point x="640" y="1400" type="line"/>
      <point x="100" y="1400" type="line"/>
      <point x="100" y="1120" type="line"/>
    </contour>
  </outline>
</glyph>
<glyph name="y" format="1">
  <advance width="1320"/>
  <unicode hex="0079"/>
  <outline>
    <contour>
      <point x="240" y="1120" type="line"/>
      <point x="520" y="700" type="line"/>
      <point x="520" y="280" type="line"/>
      <point x="380" y="280" type="line"/>
      <point x="380" y="0" type="line"/>
      <point x="940" y="0" type="line"/>
      <point x="940" y="280" type="line"/>
      <point x="800" y="280" type="line"/>
      <point x="800" y="700" type="line"/>
      <point x="1080" y="1120" type="line"/>
      <point x="1220" y="1120" type="line"/>
      <point x="1220" y="1400" type="line"/>
      <point x="680" y="1400" type="line"/>
      <point x="680" y="1120" type="line"/>
      <point x="800" y="1120" type="line"/>
      <point x="660" y="910" type="line"/>
      <point x="520" y="1120" type="line"/>
      <point x="640" y="1120" type="line"/>
      <point x="640" y="1400" type="line"/>
      <point x="100" y="1400" type="line"/>
      <point x="100" y="1120" type="line"/>
    </contour>
  </outline>
</glyph>
<glyph name="z" format="1">
  <advance width="1180"/>
  <unicode hex="007A"/>
  <outline>
    <contour>
      <point x="380" y="980" type="line"/>
      <point x="380" y="1120" type="line"/>
      <point x="740" y="1120" type="line"/>
      <point x="100" y="280" type="line"/>
      <point x="100" y="0" type="line"/>
      <point x="1080" y="0" type="line"/>
      <point x="1080" y="420" type="line"/>
      <point x="800" y="420" type="line"/>
      <point x="800" y="280" type="line"/>
      <point x="440" y="280" type="line"/>
      <point x="1080" y="1120" type="line"/>
      <point x="1080" y="1400" type="line"/>
      <point x="100" y="1400" type="line"/>
      <point x="100" y="980" type="line"/>
    </contour>
  </outline>
</glyph>
<glyph name="braceleft" format="1">
  <advance width="805"/>
  <unicode hex="007B"/>
  <outline>
    <contour>
      <point x="326" y="669" type="line"/>
      <point x="326" y="669" type="line"/>
      <point x="375" y="669" type="line"/>
      <point x="462" y="545" type="line"/>
      <point x="462" y="-43" type="line"/>
      <point x="705" y="-43" type="line"/>
      <point x="705" y="-208" type="line"/>
      <point x="375" y="-208" type="line"/>
      <point x="241" y="-60" type="line"/>
      <point x="241" y="568" type="line"/>
      <point x="100" y="568" type="line"/>
      <point x="100" y="771" type="line"/>
      <point x="241" y="771" type="line"/>
      <point x="241" y="1396" type="line"/>
      <point x="375" y="1544" type="line"/>
      <point x="705" y="1544" type="line"/>
      <point x="705" y="1379" type="line"/>
      <point x="462" y="1379" type="line"/>
      <point x="462" y="791" type="line"/>
      <point x="375" y="669" type="line"/>
    </contour>
  </outline>
</glyph>
<glyph name="bar" format="1">
  <advance width="600"/>
  <unicode hex="007C"/>
  <outline>
    <contour>
      <point x="216" y="1693" type="line"/>
      <point x="435" y="1693" type="line"/>
      <point x="435" y="-344" type="line"/>
      <point x="216" y="-344" type="line"/>
    </contour>
  </outline>
</glyph>
<glyph name="braceright" format="1">
  <advance width="805"/>
  <unicode hex="007D"/>
  <outline>
    <contour>
      <point x="479" y="669" type="line"/>
      <point x="430" y="669" type="line"/>
      <point x="343" y="791" type="line"/>
      <point x="343" y="1379" type="line"/>
      <point x="100" y="1379" type="line"/>
      <point x="100" y="1544" type="line"/>
      <point x="430" y="1544" type="line"/>
      <point x="564" y="1396" type="line"/>
      <point x="564" y="771" type="line"/>
      <point x="705" y="771" type="line"/>
      <point x="705" y="568" type="line"/>
      <point x="564" y="568" type="line"/>
      <point x="564" y="-60" type="line"/>
      <point x="430" y="-208" type="line"/>
      <point x="100" y="-208" type="line"/>
      <point x="100" y="-43" type="line"/>
      <point x="343" y="-43" type="line"/>
      <point x="343" y="545" type="line"/>
      <point x="430" y="669" type="line"/>
      <point x="479" y="669" type="line"/>
    </contour>
  </outline>
</glyph>
<glyph name="asciitilde" format="1">
  <advance width="977"/>
  <unicode hex="007E"/>
  <outline>
    <contour>
      <point x="580" y="755" type="line"/>
      <point x="580" y="755" type="line"/>
      <point x="580" y="704" type="line"/>
      <point x="694" y="704" type="line"/>
      <point x="694" y="884" type="line"/>
      <point x="877" y="884" type="line"/>
      <point x="877" y="689" type="line"/>
      <point x="766" y="567" type="line"/>
      <point x="508" y="567" type="line"/>
      <point x="397" y="689" type="line"/>
      <point x="397" y="747" type="line"/>
      <point x="397" y="747" type="line"/>
      <point x="397" y="750" type="line"/>
      <point x="282" y="750" type="line"/>
      <point x="282" y="570" type="line"/>
      <point x="100" y="570" type="line"/>
      <point x="100" y="754" type="line"/>
      <point x="211" y="885" type="line"/>
      <point x="469" y="885" type="line"/>
      <point x="580" y="754" type="line"/>
    </contour>
  </outline>
</glyph>
<glyph name="exclamdown" format="1">
  <advance width="480"/>
  <unicode hex="00A1"/>
  <outline>
    <contour>
      <point x="380" y="1057" type="line"/>
      <point x="100" y="1057" type="line"/>
      <point x="100" y="777" type="line"/>
      <point x="380" y="777" type="line"/>
    </contour>
    <contour>
      <point x="320" y="497" type="line"/>
      <point x="160" y="497" type="line"/>
      <point x="100" y="77" type="line"/>
      <point x="100" y="-343" type="line"/>
      <point x="380" y="-343" type="line"/>
      <point x="380" y="77" type="line"/>
    </contour>
  </outline>
</glyph>
<glyph name="cent" format="1">
  <advance width="1040"/>
  <unicode hex="00A2"/>
  <outline>
    <contour>
      <point x="391" y="247" type="line"/>
      <point x="324" y="247" type="line"/>
      <point x="100" y="471" type="line"/>
      <point x="100" y="1168" type="line"/>
      <point x="324" y="1392" type="line"/>
      <point x="391" y="1392" type="line"/>
      <point x="391" y="1646" type="line"/>
      <point x="649" y="1646" type="line"/>
      <point x="649" y="1392" type="line"/>
      <point x="716" y="1392" type="line"/>
      <point x="940" y="1168" type="line"/>
      <point x="940" y="972" type="line"/>
      <point x="660" y="972" type="line"/>
      <point x="660" y="1112" type="line"/>
      <point x="380" y="1112" type="line"/>
      <point x="380" y="527" type="line"/>
      <point x="660" y="527" type="line"/>
      <point x="660" y="667" type="line"/>
      <point x="940" y="667" type="line"/>
      <point x="940" y="471" type="line"/>
      <point x="716" y="247" type="line"/>
      <point x="649" y="247" type="line"/>
      <point x="649" y="0" type="line"/>
      <point x="391" y="0" type="line"/>
    </contour>
  </outline>
</glyph>
<glyph name="sterling" format="1">
  <advance width="1170"/>
  <unicode hex="00A3"/>
  <outline>
    <contour>
      <point x="622" y="261" type="line"/>
      <point x="1065" y="261" type="line"/>
      <point x="1065" y="2" type="line"/>
      <point x="542" y="2" type="line"/>
      <point x="542" y="0" type="line"/>
      <point x="455" y="1" type="line"/>
      <point x="321" y="1" type="line"/>
      <point x="321" y="2" type="line"/>
      <point x="100" y="2" type="line"/>
      <point x="100" y="261" type="line"/>
      <point x="321" y="261" type="line"/>
      <point x="321" y="551" type="line"/>
      <point x="100" y="551" type="line"/>
      <point x="100" y="770" type="line"/>
      <point x="321" y="770" type="line"/>
      <point x="321" y="1256" type="line"/>
      <point x="455" y="1404" type="line"/>
      <point x="990" y="1402" type="line"/>
      <point x="1070" y="1260" type="line"/>
      <point x="1070" y="1194" type="line"/>
      <point x="1070" y="948" type="line"/>
      <point x="824" y="948" type="line"/>
      <point x="824" y="1144" type="line"/>
      <point x="622" y="1144" type="line"/>
      <point x="622" y="770" type="line"/>
      <point x="839" y="770" type="line"/>
      <point x="839" y="551" type="line"/>
      <point x="622" y="551" type="line"/>
    </contour>
  </outline>
</glyph>
<glyph name="currency" format="1">
  <advance width="1458"/>
  <unicode hex="00A4"/>
  <outline>
    <contour>
      <point x="577" y="1010" type="line"/>
      <point x="890" y="1010" type="line"/>
      <point x="1114" y="782" type="line"/>
      <point x="1114" y="466" type="line"/>
      <point x="892" y="246" type="line"/>
      <point x="570" y="246" type="line"/>
      <point x="350" y="472" type="line"/>
      <point x="350" y="786" type="line"/>
    </contour>
    <contour>
      <point x="592" y="769" type="line"/>
      <point x="592" y="489" type="line"/>
      <point x="872" y="489" type="line"/>
      <point x="872" y="769" type="line"/>
    </contour>
    <contour>
      <point x="351" y="474" type="line"/>
      <point x="572" y="246" type="line"/>
      <point x="349" y="0" type="line"/>
      <point x="100" y="271" type="line"/>
    </contour>
    <contour>
      <point x="357" y="780" type="line"/>
      <point x="106" y="983" type="line"/>
      <point x="355" y="1254" type="line"/>
      <point x="578" y="1008" type="line"/>
    </contour>
    <contour>
      <point x="1101" y="474" type="line"/>
      <point x="1352" y="271" type="line"/>
      <point x="1103" y="0" type="line"/>
      <point x="880" y="246" type="line"/>
    </contour>
    <contour>
      <point x="1107" y="780" type="line"/>
      <point x="886" y="1008" type="line"/>
      <point x="1109" y="1254" type="line"/>
      <point x="1358" y="983" type="line"/>
    </contour>
  </outline>
</glyph>
<glyph name="yen" format="1">
  <advance width="1320"/>
  <unicode hex="00A5"/>
  <outline>
    <contour>
      <point x="240" y="1120" type="line"/>
      <point x="520" y="700" type="line"/>
      <point x="520" y="280" type="line"/>
      <point x="380" y="280" type="line"/>
      <point x="380" y="0" type="line"/>
      <point x="940" y="0" type="line"/>
      <point x="940" y="280" type="line"/>
      <point x="800" y="280" type="line"/>
      <point x="800" y="700" type="line"/>
      <point x="1080" y="1120" type="line"/>
      <point x="1220" y="1120" type="line"/>
      <point x="1220" y="1400" type="line"/>
      <point x="730" y="1400" type="line"/>
      <point x="730" y="1120" type="line"/>
      <point x="800" y="1120" type="line"/>
      <point x="660" y="910" type="line"/>
      <point x="520" y="1120" type="line"/>
      <point x="590" y="1120" type="line"/>
      <point x="590" y="1400" type="line"/>
      <point x="100" y="1400" type="line"/>
      <point x="100" y="1120" type="line"/>
    </contour>
    <contour>
      <point x="377" y="704" type="line"/>
      <point x="377" y="485" type="line"/>
      <point x="939" y="485" type="line"/>
      <point x="939" y="704" type="line"/>
    </contour>
  </outline>
</glyph>
<glyph name="brokenbar" format="1">
  <advance width="600"/>
  <unicode hex="00A6"/>
  <outline>
    <contour>
      <point x="217" y="1693" type="line"/>
      <point x="436" y="1693" type="line"/>
      <point x="436" y="896" type="line"/>
      <point x="217" y="896" type="line"/>
    </contour>
    <contour>
      <point x="217" y="449" type="line"/>
      <point x="436" y="449" type="line"/>
      <point x="436" y="-348" type="line"/>
      <point x="217" y="-348" type="line"/>
    </contour>
  </outline>
</glyph>
<glyph name="section" format="1">
  <advance width="800"/>
  <unicode hex="00A7"/>
  <outline>
    <contour>
      <point x="100" y="560" type="line"/>
      <point x="260" y="400" type="line"/>
      <point x="540" y="400" type="line"/>
      <point x="700" y="560" type="line"/>
      <point x="700" y="840" type="line"/>
      <point x="537" y="1000" type="line"/>
      <point x="300" y="1000" type="line"/>
      <point x="300" y="1200" type="line"/>
      <point x="500" y="1200" type="line"/>
      <point x="500" y="1100" type="line"/>
      <point x="700" y="1100" type="line"/>
      <point x="700" y="1240" type="line"/>
      <point x="540" y="1400" type="line"/>
      <point x="260" y="1400" type="line"/>
      <point x="100" y="1240" type="line"/>
      <point x="100" y="960" type="line"/>
      <point x="260" y="800" type="line"/>
      <point x="500" y="800" type="line"/>
      <point x="500" y="600" type="line"/>
      <point x="300" y="600" type="line"/>
      <point x="300" y="700" type="line"/>
      <point x="100" y="700" type="line"/>
    </contour>
    <contour>
      <point x="100" y="160" type="line"/>
      <point x="260" y="0" type="line"/>
      <point x="540" y="0" type="line"/>
      <point x="700" y="160" type="line"/>
      <point x="700" y="440" type="line"/>
      <point x="537" y="600" type="line"/>
      <point x="300" y="600" type="line"/>
      <point x="300" y="800" type="line"/>
      <point x="500" y="800" type="line"/>
      <point x="500" y="700" type="line"/>
      <point x="700" y="700" type="line"/>
      <point x="700" y="840" type="line"/>
      <point x="540" y="1000" type="line"/>
      <point x="260" y="1000" type="line"/>
      <point x="100" y="840" type="line"/>
      <point x="100" y="560" type="line"/>
      <point x="260" y="400" type="line"/>
      <point x="500" y="400" type="line"/>
      <point x="500" y="200" type="line"/>
      <point x="300" y="200" type="line"/>
      <point x="300" y="300" type="line"/>
      <point x="100" y="300" type="line"/>
    </contour>
  </outline>
</glyph>
<glyph name="dieresis" format="1">
  <advance width="600"/>
  <unicode hex="00A8"/>
  <outline>
    <contour>
      <point x="306" y="1700" type="line"/>
      <point x="528" y="1700" type="line"/>
      <point x="528" y="1488" type="line"/>
      <point x="306" y="1488" type="line"/>
    </contour>
    <contour>
      <point x="677" y="1700" type="line"/>
      <point x="899" y="1700" type="line"/>
      <point x="899" y="1488" type="line"/>
      <point x="677" y="1488" type="line"/>
    </contour>
  </outline>
</glyph>
<glyph name="copyright" format="1">
  <advance width="1454"/>
  <unicode hex="00A9"/>
  <outline>
    <contour>
      <point x="1135" y="1407" type="line"/>
      <point x="1354" y="1189" type="line"/>
      <point x="1354" y="215" type="line"/>
      <point x="1135" y="0" type="line"/>
      <point x="319" y="0" type="line"/>
      <point x="100" y="212" type="line"/>
      <point x="100" y="1191" type="line"/>
      <point x="319" y="1407" type="line"/>
    </contour>
    <contour>
      <point x="1135" y="1188" type="line"/>
      <point x="319" y="1188" type="line"/>
      <point x="319" y="219" type="line"/>
      <point x="1135" y="219" type="line"/>
    </contour>
    <contour>
      <point x="842" y="294" type="line"/>
      <point x="972" y="425" type="line"/>
      <point x="972" y="540" type="line"/>
      <point x="809" y="540" type="line"/>
      <point x="809" y="458" type="line"/>
      <point x="645" y="458" type="line"/>
      <point x="645" y="948" type="line"/>
      <point x="809" y="948" type="line"/>
      <point x="809" y="866" type="line"/>
      <point x="972" y="866" type="line"/>
      <point x="972" y="981" type="line"/>
      <point x="842" y="1112" type="line"/>
      <point x="613" y="1112" type="line"/>
      <point x="482" y="981" type="line"/>
      <point x="482" y="425" type="line"/>
      <point x="613" y="294" type="line"/>
    </contour>
  </outline>
</glyph>
<glyph name="guillemotleft" format="1">
  <advance width="1186"/>
  <unicode hex="00AB"/>
  <outline>
    <contour>
      <point x="100" y="562" type="line"/>
      <point x="100" y="562" type="line"/>
      <point x="100" y="774" type="line"/>
      <point x="100" y="774" type="line"/>
      <point x="517" y="1135" type="line"/>
      <point x="641" y="969" type="line"/>
      <point x="341" y="709" type="line"/>
      <point x="342" y="625" type="line"/>
      <point x="641" y="367" type="line"/>
      <point x="517" y="201" type="line"/>
      <point x="100" y="561" type="line"/>
    </contour>
    <contour>
      <point x="546" y="566" type="line"/>
      <point x="545" y="566" type="line"/>
      <point x="545" y="778" type="line"/>
      <point x="545" y="778" type="line"/>
      <point x="962" y="1139" type="line"/>
      <point x="1086" y="973" type="line"/>
      <point x="786" y="713" type="line"/>
      <point x="788" y="629" type="line"/>
      <point x="1086" y="371" type="line"/>
      <point x="962" y="205" type="line"/>
      <point x="545" y="565" type="line"/>
    </contour>
  </outline>
</glyph>
<glyph name="logicalnot" format="1">
  <advance width="1030"/>
  <unicode hex="00AC"/>
  <outline>
    <contour>
      <point x="930" y="788" type="line"/>
      <point x="930" y="1007" type="line"/>
      <point x="930" y="1008" type="line"/>
      <point x="930" y="1008" type="line"/>
      <point x="101" y="1008" type="line"/>
      <point x="100" y="1008" type="line"/>
      <point x="100" y="1007" type="line"/>
      <point x="100" y="788" type="line"/>
      <point x="100" y="788" type="line"/>
      <point x="101" y="788" type="line"/>
      <point x="711" y="788" type="line"/>
      <point x="710" y="788" type="line"/>
      <point x="710" y="530" type="line"/>
      <point x="710" y="529" type="line"/>
      <point x="711" y="529" type="line"/>
      <point x="930" y="529" type="line"/>
      <point x="930" y="529" type="line"/>
      <point x="930" y="530" type="line"/>
    </contour>
  </outline>
</glyph>
<glyph name="registered" format="1">
  <advance width="1454"/>
  <unicode hex="00AE"/>
  <outline>
    <contour>
      <point x="1135" y="1407" type="line"/>
      <point x="1354" y="1189" type="line"/>
      <point x="1354" y="215" type="line"/>
      <point x="1135" y="0" type="line"/>
      <point x="319" y="0" type="line"/>
      <point x="100" y="212" type="line"/>
      <point x="100" y="1191" type="line"/>
      <point x="319" y="1407" type="line"/>
    </contour>
    <contour>
      <point x="1135" y="1188" type="line"/>
      <point x="319" y="1188" type="line"/>
      <point x="319" y="219" type="line"/>
      <point x="1135" y="219" type="line"/>
    </contour>
    <contour>
      <point x="652" y="298" type="line"/>
      <point x="652" y="460" type="line"/>
      <point x="652" y="622" type="line"/>
      <point x="814" y="622" type="line"/>
      <point x="814" y="460" type="line"/>
      <point x="814" y="298" type="line"/>
      <point x="1057" y="298" type="line"/>
      <point x="1057" y="460" type="line"/>
      <point x="976" y="460" type="line"/>
      <point x="976" y="654" type="line"/>
      <point x="928" y="703" type="line"/>
      <point x="976" y="752" type="line"/>
      <point x="976" y="978" type="line"/>
      <point x="847" y="1108" type="line"/>
      <point x="490" y="1108" type="line"/>
      <point x="490" y="946" type="line"/>
      <point x="490" y="460" type="line"/>
      <point x="490" y="298" type="line"/>
    </contour>
    <contour>
      <point x="652" y="946" type="line"/>
      <point x="814" y="946" type="line"/>
      <point x="814" y="784" type="line"/>
      <point x="652" y="784" type="line"/>
    </contour>
  </outline>
</glyph>
<glyph name="macron" format="1">
  <advance width="600"/>
  <unicode hex="00AF"/>
  <outline>
    <contour>
      <point x="445" y="1625" type="line"/>
      <point x="445" y="1472" type="line"/>
      <point x="863" y="1472" type="line"/>
      <point x="863" y="1625" type="line"/>
    </contour>
  </outline>
</glyph>
<glyph name="degree" format="1">
  <advance width="694"/>
  <unicode hex="00B0"/>
  <outline>
    <contour>
      <point x="100" y="1479" type="line"/>
      <point x="593" y="1479" type="line"/>
      <point x="593" y="986" type="line"/>
      <point x="100" y="986" type="line"/>
    </contour>
    <contour>
      <point x="229" y="1351" type="line"/>
      <point x="229" y="1114" type="line"/>
      <point x="465" y="1114" type="line"/>
      <point x="465" y="1351" type="line"/>
    </contour>
  </outline>
</glyph>
<glyph name="plusminus" format="1">
  <advance width="1040"/>
  <unicode hex="00B1"/>
  <outline>
    <contour>
      <point x="100" y="0" type="line"/>
      <point x="940" y="0" type="line"/>
      <point x="940" y="230" type="line"/>
      <point x="100" y="230" type="line"/>
    </contour>
    <contour>
      <point x="660" y="332" type="line"/>
      <point x="660" y="612" type="line"/>
      <point x="940" y="612" type="line"/>
      <point x="940" y="892" type="line"/>
      <point x="660" y="892" type="line"/>
      <point x="660" y="1172" type="line"/>
      <point x="380" y="1172" type="line"/>
      <point x="380" y="892" type="line"/>
      <point x="100" y="892" type="line"/>
      <point x="100" y="612" type="line"/>
      <point x="380" y="612" type="line"/>
      <point x="380" y="332" type="line"/>
    </contour>
  </outline>
</glyph>
<glyph name="acute" format="1">
  <advance width="395"/>
  <unicode hex="00B4"/>
  <outline>
    <contour>
      <point x="41" y="1438" type="line"/>
      <point x="266" y="1699" type="line"/>
      <point x="356" y="1601" type="line"/>
      <point x="169" y="1438" type="line"/>
    </contour>
  </outline>
</glyph>
<glyph name="paragraph" format="1">
  <advance width="1146"/>
  <unicode hex="00B6"/>
  <outline>
    <contour>
      <point x="943" y="1400" type="line"/>
      <point x="1046" y="1400" type="line"/>
      <point x="1045" y="1400" type="line"/>
      <point x="1045" y="1181" type="line"/>
      <point x="1046" y="1182" type="line"/>
      <point x="943" y="1182" type="line"/>
      <point x="943" y="1182" type="line"/>
      <point x="943" y="1181" type="line"/>
      <point x="943" y="0" type="line"/>
      <point x="943" y="1" type="line"/>
      <point x="724" y="1" type="line"/>
      <point x="725" y="0" type="line"/>
      <point x="725" y="1400" type="line"/>
      <point x="724" y="1400" type="line"/>
    </contour>
    <contour>
      <point x="943" y="1401" type="line"/>
      <point x="724" y="1401" type="line"/>
      <point x="724" y="1401" type="line"/>
      <point x="724" y="1400" type="line"/>
      <point x="724" y="0" type="line"/>
      <point x="724" y="-1" type="line"/>
      <point x="724" y="-1" type="line"/>
      <point x="943" y="-1" type="line"/>
      <point x="944" y="-1" type="line"/>
      <point x="944" y="0" type="line"/>
      <point x="944" y="1181" type="line"/>
      <point x="943" y="1181" type="line"/>
      <point x="1046" y="1181" type="line"/>
      <point x="1046" y="1181" type="line"/>
      <point x="1046" y="1181" type="line"/>
      <point x="1046" y="1400" type="line"/>
      <point x="1046" y="1401" type="line"/>
      <point x="1046" y="1401" type="line"/>
    </contour>
    <contour>
      <point x="309" y="1400" type="line"/>
      <point x="604" y="1400" type="line"/>
      <point x="604" y="1400" type="line"/>
      <point x="604" y="650" type="line"/>
      <point x="604" y="651" type="line"/>
      <point x="309" y="651" type="line"/>
      <point x="309" y="650" type="line"/>
      <point x="100" y="861" type="line"/>
      <point x="101" y="861" type="line"/>
      <point x="101" y="1206" type="line"/>
      <point x="100" y="1206" type="line"/>
      <point x="309" y="1400" type="line"/>
    </contour>
    <contour>
      <point x="309" y="1401" type="line"/>
      <point x="309" y="1401" type="line"/>
      <point x="309" y="1400" type="line"/>
      <point x="100" y="1207" type="line"/>
      <point x="100" y="1207" type="line"/>
      <point x="100" y="1206" type="line"/>
      <point x="100" y="861" type="line"/>
      <point x="100" y="861" type="line"/>
      <point x="100" y="861" type="line"/>
      <point x="309" y="650" type="line"/>
      <point x="309" y="650" type="line"/>
      <point x="309" y="650" type="line"/>
      <point x="604" y="650" type="line"/>
      <point x="605" y="650" type="line"/>
      <point x="605" y="650" type="line"/>
      <point x="605" y="1400" type="line"/>
      <point x="605" y="1401" type="line"/>
      <point x="604" y="1401" type="line"/>
    </contour>
    <contour>
      <point x="943" y="1400" type="line"/>
      <point x="1046" y="1400" type="line"/>
      <point x="1046" y="1181" type="line"/>
      <point x="943" y="1181" type="line"/>
      <point x="943" y="0" type="line"/>
      <point x="724" y="0" type="line"/>
      <point x="724" y="1400" type="line"/>
    </contour>
    <contour>
      <point x="309" y="1400" type="line"/>
      <point x="604" y="1400" type="line"/>
      <point x="604" y="650" type="line"/>
      <point x="309" y="650" type="line"/>
      <point x="100" y="861" type="line"/>
      <point x="100" y="1206" type="line"/>
    </contour>
  </outline>
</glyph>
<glyph name="periodcentered" format="1">
  <advance width="600"/>
  <unicode hex="00B7"/>
  <outline>
    <contour>
      <point x="149" y="700" type="line"/>
      <point x="416" y="700" type="line"/>
      <point x="416" y="500" type="line"/>
      <point x="149" y="500" type="line"/>
    </contour>
  </outline>
</glyph>
<glyph name="cedilla" format="1">
  <advance width="600"/>
  <unicode hex="00B8"/>
  <outline>
    <contour>
      <point x="580" y="0" type="line"/>
      <point x="466" y="-261" type="line"/>
      <point x="299" y="-229" type="line"/>
      <point x="452" y="0" type="line"/>
    </contour>
  </outline>
</glyph>
<glyph name="guillemotright" format="1">
  <advance width="1186"/>
  <unicode hex="00BB"/>
  <outline>
    <contour>
      <point x="1086" y="562" type="line"/>
      <point x="1086" y="561" type="line"/>
      <point x="669" y="201" type="line"/>
      <point x="545" y="367" type="line"/>
      <point x="844" y="625" type="line"/>
      <point x="845" y="709" type="line"/>
      <point x="545" y="969" type="line"/>
      <point x="669" y="1135" type="line"/>
      <point x="1086" y="774" type="line"/>
      <point x="1086" y="774" type="line"/>
      <point x="1086" y="562" type="line"/>
    </contour>
    <contour>
      <point x="640" y="566" type="line"/>
      <point x="641" y="565" type="line"/>
      <point x="224" y="205" type="line"/>
      <point x="100" y="371" type="line"/>
      <point x="398" y="629" type="line"/>
      <point x="400" y="713" type="line"/>
      <point x="100" y="973" type="line"/>
      <point x="224" y="1139" type="line"/>
      <point x="641" y="778" type="line"/>
      <point x="641" y="778" type="line"/>
      <point x="641" y="566" type="line"/>
    </contour>
  </outline>
</glyph>
<glyph name="onequarter" format="1">
  <advance width="1760"/>
  <unicode hex="00BC"/>
  <outline>
    <contour>
      <point x="454" y="-5" type="line"/>
      <point x="473" y="-11"/>
      <point x="275" y="-11"/>
      <point x="258" y="-5" type="curve"/>
      <point x="1346" y="1448" type="line"/>
      <point x="1573" y="1449" type="line"/>
    </contour>
    <component base="one.numr"/>
    <component base="four.dnom" xOffset="1080"/>
  </outline>
</glyph>
<glyph name="onehalf" format="1">
  <advance width="1901"/>
  <unicode hex="00BD"/>
  <outline>
    <contour>
      <point x="355" y="-5" type="line"/>
      <point x="379" y="-11"/>
      <point x="134" y="-11"/>
      <point x="113" y="-5" type="curve"/>
      <point x="1458" y="1448" type="line"/>
      <point x="1738" y="1449" type="line"/>
    </contour>
    <component base="one.numr"/>
    <component base="two.dnom" xOffset="1221"/>
  </outline>
</glyph>
<glyph name="threequarters" format="1">
  <advance width="1960"/>
  <unicode hex="00BE"/>
  <outline>
    <contour>
      <point x="564" y="-5" type="line"/>
      <point x="583" y="-11"/>
      <point x="385" y="-11"/>
      <point x="368" y="-5" type="curve"/>
      <point x="1456" y="1448" type="line"/>
      <point x="1683" y="1449" type="line"/>
    </contour>
    <component base="three.numr"/>
    <component base="four.dnom" xOffset="1280"/>
  </outline>
</glyph>
<glyph name="questiondown" format="1">
  <advance width="1040"/>
  <unicode hex="00BF"/>
  <outline>
    <contour>
      <point x="660" y="76" type="line"/>
      <point x="660" y="-64" type="line"/>
      <point x="380" y="-64" type="line"/>
      <point x="380" y="216" type="line"/>
      <point x="436" y="216" type="line"/>
      <point x="660" y="440" type="line"/>
      <point x="660" y="636" type="line"/>
      <point x="380" y="636" type="line"/>
      <point x="380" y="496" type="line"/>
      <point x="324" y="496" type="line"/>
      <point x="100" y="272" type="line"/>
      <point x="100" y="-120" type="line"/>
      <point x="324" y="-344" type="line"/>
      <point x="716" y="-344" type="line"/>
      <point x="940" y="-120" type="line"/>
      <point x="940" y="76" type="line"/>
    </contour>
    <contour>
      <point x="660" y="1056" type="line"/>
      <point x="380" y="1056" type="line"/>
      <point x="380" y="776" type="line"/>
      <point x="660" y="776" type="line"/>
    </contour>
  </outline>
</glyph>
<glyph name="Eth" format="1">
  <advance width="1218"/>
  <unicode hex="00D0"/>
  <outline>
    <contour>
      <point x="894" y="0" type="line"/>
      <point x="1118" y="224" type="line"/>
      <point x="1118" y="1176" type="line"/>
      <point x="894" y="1400" type="line"/>
      <point x="138" y="1400" type="line"/>
      <point x="138" y="1120" type="line"/>
      <point x="278" y="1120" type="line"/>
      <point x="278" y="280" type="line"/>
      <point x="138" y="280" type="line"/>
      <point x="138" y="0" type="line"/>
    </contour>
    <contour>
      <point x="558" y="1120" type="line"/>
      <point x="838" y="1120" type="line"/>
      <point x="838" y="280" type="line"/>
      <point x="558" y="280" type="line"/>
    </contour>
    <component base="uni0335" xScale="0.467" xOffset="250" yOffset="129"/>
  </outline>
</glyph>
<glyph name="multiply" format="1">
  <advance width="994"/>
  <unicode hex="00D7"/>
  <outline>
    <contour>
      <point x="894" y="442" type="line"/>
      <point x="695" y="639" type="line"/>
      <point x="892" y="838" type="line"/>
      <point x="692" y="1035" type="line"/>
      <point x="496" y="836" type="line"/>
      <point x="296" y="1033" type="line"/>
      <point x="100" y="834" type="line"/>
      <point x="299" y="637" type="line"/>
      <point x="102" y="438" type="line"/>
      <point x="301" y="241" type="line"/>
      <point x="498" y="440" type="line"/>
      <point x="697" y="243" type="line"/>
    </contour>
  </outline>
</glyph>
<glyph name="Thorn" format="1">
  <advance width="1068"/>
  <unicode hex="00DE"/>
  <outline>
    <contour>
      <point x="339" y="956" type="line"/>
      <point x="339" y="524" type="line"/>
      <point x="746" y="524" type="line"/>
      <point x="746" y="843" type="line"/>
      <point x="746" y="956" type="line"/>
    </contour>
    <contour>
      <point x="339" y="1186" type="line"/>
      <point x="834" y="1186" type="line"/>
      <point x="968" y="1037" type="line"/>
      <point x="968" y="842" type="line"/>
      <point x="968" y="433" type="line"/>
      <point x="834" y="285" type="line"/>
      <point x="339" y="285" type="line"/>
      <point x="339" y="1" type="line"/>
      <point x="100" y="1" type="line"/>
      <point x="100" y="1401" type="line"/>
      <point x="339" y="1401" type="line"/>
    </contour>
  </outline>
</glyph>
<glyph name="germandbls" format="1">
  <advance width="1347"/>
  <unicode hex="00DF"/>
  <outline>
    <contour>
      <point x="966" y="850" type="line"/>
      <point x="966" y="1186" type="line"/>
      <point x="558" y="1186" type="line"/>
      <point x="558" y="0" type="line"/>
      <point x="269" y="0" type="line"/>
      <point x="269" y="4" type="line"/>
      <point x="100" y="4" type="line"/>
      <point x="100" y="224" type="line"/>
      <point x="269" y="224" type="line"/>
      <point x="269" y="1182" type="line"/>
      <point x="448" y="1396" type="line"/>
      <point x="558" y="1396" type="line"/>
      <point x="1113" y="1396" type="line"/>
      <point x="1247" y="1248" type="line"/>
      <point x="1247" y="835" type="line"/>
      <point x="1113" y="696" type="line"/>
      <point x="1247" y="559" type="line"/>
      <point x="1247" y="151" type="line"/>
      <point x="1113" y="3" type="line"/>
      <point x="663" y="3" type="line"/>
      <point x="663" y="222" type="line"/>
      <point x="966" y="222" type="line"/>
      <point x="966" y="551" type="line"/>
      <point x="775" y="551" type="line"/>
      <point x="775" y="850" type="line"/>
    </contour>
  </outline>
</glyph>
<glyph name="ae" format="1">
  <advance width="1871"/>
  <unicode hex="00E6"/>
  <outline>
    <contour>
      <point x="269" y="280" type="line"/>
      <point x="483" y="1120" type="line"/>
      <point x="235" y="1120" type="line"/>
      <point x="235" y="1400" type="line"/>
      <point x="1771" y="1400" type="line"/>
      <point x="1771" y="980" type="line"/>
      <point x="1491" y="980" type="line"/>
      <point x="1491" y="1120" type="line"/>
      <point x="1211" y="1120" type="line"/>
      <point x="1211" y="840" type="line"/>
      <point x="1491" y="840" type="line"/>
      <point x="1491" y="560" type="line"/>
      <point x="1211" y="560" type="line"/>
      <point x="1211" y="280" type="line"/>
      <point x="1491" y="280" type="line"/>
      <point x="1491" y="420" type="line"/>
      <point x="1771" y="420" type="line"/>
      <point x="1771" y="0" type="line"/>
      <point x="931" y="0" type="line"/>
      <point x="753" y="0" type="line"/>
      <point x="753" y="280" type="line"/>
      <point x="931" y="280" type="line"/>
      <point x="931" y="560" type="line"/>
      <point x="604" y="560" type="line"/>
      <point x="533" y="280" type="line"/>
      <point x="705" y="280" type="line"/>
      <point x="705" y="0" type="line"/>
      <point x="100" y="0" type="line"/>
      <point x="100" y="280" type="line"/>
    </contour>
    <contour>
      <point x="675" y="841" type="line"/>
      <point x="931" y="840" type="line"/>
      <point x="931" y="1120" type="line"/>
      <point x="747" y="1120" type="line"/>
    </contour>
  </outline>
</glyph>
<glyph name="eth" format="1">
  <advance width="1199"/>
  <unicode hex="00F0"/>
  <outline>
    <contour>
      <point x="875" y="0" type="line"/>
      <point x="1099" y="224" type="line"/>
      <point x="1099" y="1176" type="line"/>
      <point x="875" y="1400" type="line"/>
      <point x="119" y="1400" type="line"/>
      <point x="119" y="1120" type="line"/>
      <point x="259" y="1120" type="line"/>
      <point x="259" y="280" type="line"/>
      <point x="119" y="280" type="line"/>
      <point x="119" y="0" type="line"/>
    </contour>
    <contour>
      <point x="539" y="1120" type="line"/>
      <point x="819" y="1120" type="line"/>
      <point x="819" y="280" type="line"/>
      <point x="539" y="280" type="line"/>
    </contour>
    <component base="uni0335" xScale="0.467" xOffset="231" yOffset="129"/>
  </outline>
</glyph>
<glyph name="divide" format="1">
  <advance width="1040"/>
  <unicode hex="00F7"/>
  <outline>
    <contour>
      <point x="940" y="455" type="line"/>
      <point x="940" y="735" type="line"/>
      <point x="100" y="735" type="line"/>
      <point x="100" y="455" type="line"/>
    </contour>
    <component base="period" xOffset="287" yOffset="884"/>
    <component base="period" xOffset="287"/>
  </outline>
</glyph>
<glyph name="oslash" format="1">
  <advance width="1632"/>
  <unicode hex="00F8"/>
  <outline>
    <contour>
      <point x="100" y="0" type="line"/>
      <point x="343" y="0" type="line"/>
      <point x="1532" y="1395" type="line"/>
      <point x="1293" y="1396" type="line"/>
    </contour>
    <component base="O" xOffset="296"/>
  </outline>
</glyph>
<glyph name="Dcroat" format="1">
  <advance width="1180"/>
  <unicode hex="0110"/>
  <outline>
    <contour>
      <point x="856" y="0" type="line"/>
      <point x="1080" y="224" type="line"/>
      <point x="1080" y="1176" type="line"/>
      <point x="856" y="1400" type="line"/>
      <point x="100" y="1400" type="line"/>
      <point x="100" y="1120" type="line"/>
      <point x="240" y="1120" type="line"/>
      <point x="240" y="280" type="line"/>
      <point x="100" y="280" type="line"/>
      <point x="100" y="0" type="line"/>
    </contour>
    <contour>
      <point x="520" y="1120" type="line"/>
      <point x="800" y="1120" type="line"/>
      <point x="800" y="280" type="line"/>
      <point x="520" y="280" type="line"/>
    </contour>
    <component base="uni0335" xScale="0.577" xOffset="223" yOffset="129"/>
  </outline>
</glyph>
<glyph name="uni0123" format="1">
  <advance width="1321"/>
  <unicode hex="0123"/>
  <outline>
    <contour>
      <point x="190" y="1201" type="line"/>
      <point x="330" y="1401" type="line"/>
      <point x="210" y="1401" type="line"/>
      <point x="100" y="1201" type="line"/>
      <point x="100" y="1031" type="line"/>
      <point x="280" y="1031" type="line"/>
      <point x="280" y="1201" type="line"/>
    </contour>
    <component base="g" xOffset="281"/>
  </outline>
</glyph>
<glyph name="lslash" format="1">
  <advance width="1180"/>
  <unicode hex="0142"/>
  <outline>
    <contour>
      <point x="-14" y="518" type="line"/>
      <point x="108" y="413" type="line"/>
      <point x="806" y="906" type="line"/>
      <point x="705" y="1027" type="line"/>
    </contour>
    <component base="L"/>
  </outline>
</glyph>
<glyph name="Eng" format="1">
  <advance width="1460"/>
  <unicode hex="014A"/>
  <outline>
    <contour>
      <point x="1220" y="33" type="line"/>
      <point x="1221" y="33" type="line"/>
      <point x="1221" y="-259" type="line"/>
      <point x="1099" y="-407" type="line"/>
      <point x="679" y="-407" type="line"/>
      <point x="679" y="-188" type="line"/>
      <point x="937" y="-188" type="line"/>
      <point x="937" y="3" type="line"/>
      <point x="520" y="795" type="line"/>
      <point x="520" y="275" type="line"/>
      <point x="660" y="275" type="line"/>
      <point x="660" y="-5" type="line"/>
      <point x="100" y="-5" type="line"/>
      <point x="100" y="275" type="line"/>
      <point x="240" y="275" type="line"/>
      <point x="240" y="1115" type="line"/>
      <point x="100" y="1115" type="line"/>
      <point x="100" y="1395" type="line"/>
      <point x="520" y="1395" type="line"/>
      <point x="940" y="595" type="line"/>
      <point x="940" y="1115" type="line"/>
      <point x="800" y="1115" type="line"/>
      <point x="800" y="1395" type="line"/>
      <point x="1360" y="1395" type="line"/>
      <point x="1360" y="1115" type="line"/>
      <point x="1220" y="1115" type="line"/>
    </contour>
  </outline>
</glyph>
<glyph name="OE" format="1">
  <advance width="1689"/>
  <unicode hex="0152"/>
  <outline>
    <contour>
      <point x="1589" y="2" type="line"/>
      <point x="1589" y="422" type="line"/>
      <point x="1309" y="422" type="line"/>
      <point x="1309" y="282" type="line"/>
      <point x="1029" y="282" type="line"/>
      <point x="1029" y="562" type="line"/>
      <point x="1309" y="562" type="line"/>
      <point x="1309" y="842" type="line"/>
      <point x="1029" y="842" type="line"/>
      <point x="1029" y="1122" type="line"/>
      <point x="1309" y="1122" type="line"/>
      <point x="1309" y="982" type="line"/>
      <point x="1589" y="982" type="line"/>
      <point x="1589" y="1402" type="line"/>
      <point x="749" y="1402" type="line"/>
      <point x="749" y="1122" type="line"/>
      <point x="749" y="842" type="line"/>
      <point x="749" y="562" type="line"/>
      <point x="749" y="282" type="line"/>
      <point x="749" y="2" type="line"/>
    </contour>
    <contour>
      <point x="786" y="1400" type="line"/>
      <point x="324" y="1400" type="line"/>
      <point x="100" y="1176" type="line"/>
      <point x="100" y="224" type="line"/>
      <point x="324" y="0" type="line"/>
      <point x="788" y="0" type="line"/>
    </contour>
    <contour>
      <point x="380" y="1120" type="line"/>
      <point x="783" y="1120" type="line"/>
      <point x="785" y="280" type="line"/>
      <point x="380" y="280" type="line"/>
    </contour>
  </outline>
</glyph>
<glyph name="Ubreve" format="1">
  <advance width="1320"/>
  <unicode hex="016C"/>
  <outline>
    <contour>
      <point x="100" y="1120" type="line"/>
      <point x="240" y="1120" type="line"/>
      <point x="240" y="224" type="line"/>
      <point x="464" y="0" type="line"/>
      <point x="856" y="0" type="line"/>
      <point x="1080" y="224" type="line"/>
      <point x="1080" y="1120" type="line"/>
      <point x="1220" y="1120" type="line"/>
      <point x="1220" y="1400" type="line"/>
      <point x="680" y="1400" type="line"/>
      <point x="680" y="1120" type="line"/>
      <point x="800" y="1120" type="line"/>
      <point x="800" y="280" type="line"/>
      <point x="520" y="280" type="line"/>
      <point x="520" y="1120" type="line"/>
      <point x="640" y="1120" type="line"/>
      <point x="640" y="1400" type="line"/>
      <point x="100" y="1400" type="line"/>
    </contour>
    <component base="uni0306" xOffset="11"/>
  </outline>
</glyph>
<glyph name="florin" format="1">
  <advance width="1357"/>
  <unicode hex="0192"/>
  <outline>
    <contour>
      <point x="779" y="559" type="line"/>
      <point x="779" y="557" type="line"/>
      <point x="779" y="557" type="line"/>
      <point x="779" y="149" type="line"/>
      <point x="596" y="0" type="line"/>
      <point x="100" y="0" type="line"/>
      <point x="100" y="250" type="line"/>
      <point x="508" y="250" type="line"/>
      <point x="508" y="550" type="line"/>
      <point x="507" y="550" type="line"/>
      <point x="507" y="559" type="line"/>
      <point x="286" y="559" type="line"/>
      <point x="286" y="828" type="line"/>
      <point x="507" y="828" type="line"/>
      <point x="507" y="1259" type="line"/>
      <point x="641" y="1407" type="line"/>
      <point x="1257" y="1407" type="line"/>
      <point x="1257" y="1157" type="line"/>
      <point x="779" y="1157" type="line"/>
      <point x="779" y="828" type="line"/>
      <point x="945" y="828" type="line"/>
      <point x="945" y="559" type="line"/>
    </contour>
  </outline>
</glyph>
<glyph name="ohorn" format="1">
  <advance width="1307"/>
  <unicode hex="01A1"/>
  <outline>
    <contour>
      <point x="1012" y="1176" type="line"/>
      <point x="940" y="1176" type="line"/>
      <point x="940" y="1006" type="line"/>
      <point x="1098" y="1006" type="line"/>
      <point x="1150" y="1176" type="line"/>
      <point x="1207" y="1376" type="line"/>
      <point x="1057" y="1376" type="line"/>
    </contour>
    <component base="o"/>
  </outline>
</glyph>
<glyph name="Uhorn" format="1">
  <advance width="1586"/>
  <unicode hex="01AF"/>
  <outline>
    <contour>
      <point x="1291" y="1400" type="line"/>
      <point x="1219" y="1400" type="line"/>
      <point x="1219" y="1230" type="line"/>
      <point x="1377" y="1230" type="line"/>
      <point x="1429" y="1400" type="line"/>
      <point x="1486" y="1600" type="line"/>
      <point x="1336" y="1600" type="line"/>
    </contour>
    <component base="U"/>
  </outline>
</glyph>
<glyph name="uhorn" format="1">
  <advance width="1586"/>
  <unicode hex="01B0"/>
  <outline>
    <contour>
      <point x="1291" y="1400" type="line"/>
      <point x="1219" y="1400" type="line"/>
      <point x="1219" y="1230" type="line"/>
      <point x="1377" y="1230" type="line"/>
      <point x="1429" y="1400" type="line"/>
      <point x="1486" y="1600" type="line"/>
      <point x="1336" y="1600" type="line"/>
    </contour>
    <component base="u"/>
  </outline>
</glyph>
<glyph name="uni01C0" format="1">
  <advance width="475"/>
  <unicode hex="01C0"/>
  <outline>
    <contour>
      <point x="100" y="-269" type="line"/>
      <point x="100" y="1638" type="line"/>
      <point x="375" y="1638" type="line"/>
      <point x="375" y="-269" type="line"/>
    </contour>
  </outline>
</glyph>
<glyph name="uni01C1" format="1">
  <advance width="912"/>
  <unicode hex="01C1"/>
  <outline>
    <contour>
      <point x="100" y="-269" type="line"/>
      <point x="100" y="1638" type="line"/>
      <point x="375" y="1638" type="line"/>
      <point x="375" y="-269" type="line"/>
    </contour>
    <contour>
      <point x="537" y="-269" type="line"/>
      <point x="537" y="1638" type="line"/>
      <point x="812" y="1638" type="line"/>
      <point x="812" y="-269" type="line"/>
    </contour>
  </outline>
</glyph>
<glyph name="uni01C2" format="1">
  <advance width="1164"/>
  <unicode hex="01C2"/>
  <outline>
    <contour>
      <point x="444" y="555" type="line"/>
      <point x="444" y="832" type="line"/>
      <point x="100" y="832" type="line"/>
      <point x="100" y="1107" type="line"/>
      <point x="444" y="1107" type="line"/>
      <point x="444" y="1638" type="line"/>
      <point x="719" y="1638" type="line"/>
      <point x="719" y="1107" type="line"/>
      <point x="1064" y="1107" type="line"/>
      <point x="1064" y="832" type="line"/>
      <point x="719" y="832" type="line"/>
      <point x="719" y="555" type="line"/>
      <point x="1064" y="555" type="line"/>
      <point x="1064" y="280" type="line"/>
      <point x="719" y="280" type="line"/>
      <point x="719" y="-269" type="line"/>
      <point x="444" y="-269" type="line"/>
      <point x="444" y="280" type="line"/>
      <point x="100" y="280" type="line"/>
      <point x="100" y="555" type="line"/>
    </contour>
  </outline>
</glyph>
<glyph name="uni024C" format="1">
  <advance width="1518"/>
  <unicode hex="024C"/>
  <outline>
    <contour>
      <point x="838" y="0" type="line"/>
      <point x="838" y="280" type="line"/>
      <point x="718" y="280" type="line"/>
      <point x="718" y="560" type="line"/>
      <point x="998" y="560" type="line"/>
      <point x="998" y="280" type="line"/>
      <point x="878" y="280" type="line"/>
      <point x="878" y="0" type="line"/>
      <point x="1418" y="0" type="line"/>
      <point x="1418" y="280" type="line"/>
      <point x="1278" y="280" type="line"/>
      <point x="1278" y="616" type="line"/>
      <point x="1194" y="700" type="line"/>
      <point x="1278" y="784" type="line"/>
      <point x="1278" y="1176" type="line"/>
      <point x="1054" y="1400" type="line"/>
      <point x="298" y="1400" type="line"/>
      <point x="298" y="1120" type="line"/>
      <point x="438" y="1120" type="line"/>
      <point x="438" y="280" type="line"/>
      <point x="298" y="280" type="line"/>
      <point x="298" y="0" type="line"/>
    </contour>
    <contour>
      <point x="718" y="1120" type="line"/>
      <point x="998" y="1120" type="line"/>
      <point x="998" y="840" type="line"/>
      <point x="718" y="840" type="line"/>
    </contour>
    <contour>
      <point x="95" y="828" type="line"/>
      <point x="95" y="581" type="line"/>
      <point x="438" y="581" type="line"/>
      <point x="438" y="828" type="line"/>
    </contour>
  </outline>
</glyph>
<glyph name="uni0289" format="1">
  <advance width="1320"/>
  <unicode hex="0289"/>
  <outline>
    <contour>
      <point x="113" y="820" type="line"/>
      <point x="113" y="573" type="line"/>
      <point x="1217" y="573" type="line"/>
      <point x="1217" y="820" type="line"/>
    </contour>
    <component base="U"/>
  </outline>
</glyph>
<glyph name="uni02BC" format="1">
  <advance width="600"/>
  <unicode hex="02BC"/>
  <outline>
    <contour>
      <point x="240" y="1120" type="line"/>
      <point x="160" y="900" type="line"/>
      <point x="300" y="900" type="line"/>
      <point x="380" y="1120" type="line"/>
      <point x="380" y="1320" type="line"/>
      <point x="130" y="1320" type="line"/>
      <point x="130" y="1120" type="line"/>
    </contour>
  </outline>
</glyph>
<glyph name="circumflex" format="1">
  <advance width="600"/>
  <unicode hex="02C6"/>
  <outline>
    <contour>
      <point x="649" y="1698" type="line"/>
      <point x="718" y="1698" type="line"/>
      <point x="883" y="1447" type="line"/>
      <point x="756" y="1447" type="line"/>
      <point x="649" y="1604" type="line"/>
      <point x="541" y="1447" type="line"/>
      <point x="415" y="1447" type="line"/>
      <point x="579" y="1698" type="line"/>
    </contour>
  </outline>
</glyph>
<glyph name="caron" format="1">
  <advance width="600"/>
  <unicode hex="02C7"/>
  <outline>
    <contour>
      <point x="506" y="1445" type="line"/>
      <point x="436" y="1445" type="line"/>
      <point x="260" y="1696" type="line"/>
      <point x="398" y="1696" type="line"/>
      <point x="506" y="1539" type="line"/>
      <point x="613" y="1696" type="line"/>
      <point x="753" y="1696" type="line"/>
      <point x="575" y="1445" type="line"/>
    </contour>
  </outline>
</glyph>
<glyph name="ogonek" format="1">
  <advance width="600"/>
  <unicode hex="02DB"/>
  <outline>
    <contour>
      <point x="1089" y="0" type="line"/>
      <point x="1217" y="0" type="line"/>
      <point x="1370" y="-229" type="line"/>
      <point x="1203" y="-261" type="line"/>
    </contour>
  </outline>
</glyph>
<glyph name="hungarumlaut" format="1">
  <advance width="600"/>
  <unicode hex="02DD"/>
  <outline>
    <contour>
      <point x="513" y="1439" type="line"/>
      <point x="677" y="1700" type="line"/>
      <point x="787" y="1668" type="line"/>
      <point x="641" y="1439" type="line"/>
    </contour>
    <contour>
      <point x="683" y="1439" type="line"/>
      <point x="812" y="1439" type="line"/>
      <point x="959" y="1668" type="line"/>
      <point x="851" y="1700" type="line"/>
    </contour>
  </outline>
</glyph>
<glyph name="uni0302" format="1">
  <advance width="600"/>
  <unicode hex="0302"/>
  <outline>
    <contour>
      <point x="649" y="1698" type="line"/>
      <point x="718" y="1698" type="line"/>
      <point x="883" y="1447" type="line"/>
      <point x="756" y="1447" type="line"/>
      <point x="649" y="1604" type="line"/>
      <point x="541" y="1447" type="line"/>
      <point x="415" y="1447" type="line"/>
      <point x="579" y="1698" type="line"/>
    </contour>
  </outline>
</glyph>
<glyph name="tildecomb" format="1">
  <advance width="600"/>
  <unicode hex="0303"/>
  <outline>
    <contour>
      <point x="700" y="1610" type="line"/>
      <point x="700" y="1610" type="line"/>
      <point x="700" y="1574" type="line"/>
      <point x="779" y="1574" type="line"/>
      <point x="779" y="1699" type="line"/>
      <point x="906" y="1699" type="line"/>
      <point x="906" y="1564" type="line"/>
      <point x="829" y="1479" type="line"/>
      <point x="650" y="1479" type="line"/>
      <point x="573" y="1564" type="line"/>
      <point x="573" y="1604" type="line"/>
      <point x="573" y="1604" type="line"/>
      <point x="573" y="1606" type="line"/>
      <point x="493" y="1606" type="line"/>
      <point x="493" y="1481" type="line"/>
      <point x="367" y="1481" type="line"/>
      <point x="367" y="1609" type="line"/>
      <point x="444" y="1700" type="line"/>
      <point x="623" y="1700" type="line"/>
      <point x="700" y="1609" type="line"/>
    </contour>
  </outline>
</glyph>
<glyph name="uni0304" format="1">
  <advance width="600"/>
  <unicode hex="0304"/>
  <outline>
    <contour>
      <point x="445" y="1625" type="line"/>
      <point x="445" y="1472" type="line"/>
      <point x="863" y="1472" type="line"/>
      <point x="863" y="1625" type="line"/>
    </contour>
  </outline>
</glyph>
<glyph name="uni0306" format="1">
  <advance width="600"/>
  <unicode hex="0306"/>
  <outline>
    <contour>
      <point x="446" y="1657" type="line"/>
      <point x="446" y="1542" type="line"/>
      <point x="523" y="1451" type="line"/>
      <point x="777" y="1451" type="line"/>
      <point x="853" y="1542" type="line"/>
      <point x="853" y="1657" type="line"/>
      <point x="727" y="1657" type="line"/>
      <point x="727" y="1561" type="line"/>
      <point x="572" y="1561" type="line"/>
      <point x="572" y="1657" type="line"/>
    </contour>
  </outline>
</glyph>
<glyph name="uni0307" format="1">
  <advance width="600"/>
  <unicode hex="0307"/>
  <outline>
    <contour>
      <point x="392" y="1698" type="line"/>
      <point x="614" y="1698" type="line"/>
      <point x="614" y="1486" type="line"/>
      <point x="392" y="1486" type="line"/>
    </contour>
  </outline>
</glyph>
<glyph name="uni0308" format="1">
  <advance width="600"/>
  <unicode hex="0308"/>
  <outline>
    <contour>
      <point x="306" y="1700" type="line"/>
      <point x="528" y="1700" type="line"/>
      <point x="528" y="1488" type="line"/>
      <point x="306" y="1488" type="line"/>
    </contour>
    <contour>
      <point x="677" y="1700" type="line"/>
      <point x="899" y="1700" type="line"/>
      <point x="899" y="1488" type="line"/>
      <point x="677" y="1488" type="line"/>
    </contour>
  </outline>
</glyph>
<glyph name="hookabovecomb" format="1">
  <advance width="600"/>
  <unicode hex="0309"/>
  <outline>
    <contour>
      <point x="423" y="1200" type="line"/>
      <point x="511" y="1273" type="line"/>
      <point x="532" y="1390" type="line"/>
      <point x="381" y="1566" type="line"/>
      <point x="262" y="1567" type="line"/>
      <point x="173" y="1494" type="line"/>
      <point x="254" y="1396" type="line"/>
      <point x="328" y="1458" type="line"/>
      <point x="416" y="1358" type="line"/>
      <point x="342" y="1297" type="line"/>
    </contour>
  </outline>
</glyph>
<glyph name="uni030A" format="1">
  <advance width="600"/>
  <unicode hex="030A"/>
  <outline>
    <contour>
      <point x="578" y="1569" type="line"/>
      <point x="578" y="1534" type="line"/>
      <point x="723" y="1534" type="line"/>
      <point x="723" y="1569" type="line"/>
      <point x="723" y="1606" type="line"/>
      <point x="578" y="1606" type="line"/>
    </contour>
    <contour>
      <point x="850" y="1569" type="line"/>
      <point x="850" y="1530" type="line"/>
      <point x="774" y="1439" type="line"/>
      <point x="530" y="1439" type="line"/>
      <point x="452" y="1530" type="line"/>
      <point x="452" y="1569" type="line"/>
      <point x="452" y="1609" type="line"/>
      <point x="530" y="1700" type="line"/>
      <point x="774" y="1700" type="line"/>
      <point x="850" y="1609" type="line"/>
    </contour>
  </outline>
</glyph>
<glyph name="uni030B" format="1">
  <advance width="600"/>
  <unicode hex="030B"/>
  <outline>
    <contour>
      <point x="513" y="1439" type="line"/>
      <point x="677" y="1700" type="line"/>
      <point x="787" y="1668" type="line"/>
      <point x="641" y="1439" type="line"/>
    </contour>
    <contour>
      <point x="683" y="1439" type="line"/>
      <point x="812" y="1439" type="line"/>
      <point x="959" y="1668" type="line"/>
      <point x="851" y="1700" type="line"/>
    </contour>
  </outline>
</glyph>
<glyph name="uni0312" format="1">
  <advance width="600"/>
  <unicode hex="0312"/>
  <outline>
    <contour>
      <point x="51" y="1412" type="line"/>
      <point x="173" y="1612" type="line"/>
      <point x="53" y="1612" type="line"/>
      <point x="-57" y="1412" type="line"/>
      <point x="-57" y="1242" type="line"/>
      <point x="123" y="1242" type="line"/>
      <point x="123" y="1412" type="line"/>
    </contour>
  </outline>
</glyph>
<glyph name="uni031B" format="1">
  <advance width="600"/>
  <unicode hex="031B"/>
  <outline>
    <contour>
      <point x="69" y="1412" type="line"/>
      <point x="-3" y="1412" type="line"/>
      <point x="-3" y="1242" type="line"/>
      <point x="155" y="1242" type="line"/>
      <point x="207" y="1412" type="line"/>
      <point x="264" y="1612" type="line"/>
      <point x="114" y="1612" type="line"/>
    </contour>
  </outline>
</glyph>
<glyph name="dotbelowcomb" format="1">
  <advance width="600"/>
  <unicode hex="0323"/>
  <outline>
    <contour>
      <point x="265" y="-136" type="line"/>
      <point x="487" y="-136" type="line"/>
      <point x="487" y="-348" type="line"/>
      <point x="265" y="-348" type="line"/>
    </contour>
  </outline>
</glyph>
<glyph name="uni0326" format="1">
  <advance width="600"/>
  <unicode hex="0326"/>
  <outline>
    <contour>
      <point x="580" y="0" type="line"/>
      <point x="466" y="-261" type="line"/>
      <point x="299" y="-229" type="line"/>
      <point x="452" y="0" type="line"/>
    </contour>
  </outline>
</glyph>
<glyph name="uni0327" format="1">
  <advance width="600"/>
  <unicode hex="0327"/>
  <outline>
    <contour>
      <point x="326" y="-279" type="line"/>
      <point x="186" y="-479" type="line"/>
      <point x="326" y="-479" type="line"/>
      <point x="466" y="-279" type="line"/>
      <point x="466" y="-59" type="line"/>
      <point x="206" y="-59" type="line"/>
      <point x="206" y="-279" type="line"/>
    </contour>
  </outline>
</glyph>
<glyph name="uni0335" format="1">
  <advance width="600"/>
  <unicode hex="0335"/>
  <outline>
    <contour>
      <point x="-280" y="674" type="line"/>
      <point x="-280" y="500" type="line"/>
      <point x="781" y="500" type="line"/>
      <point x="781" y="674" type="line"/>
    </contour>
  </outline>
</glyph>
<glyph name="uni0336" format="1">
  <advance width="600"/>
  <unicode hex="0336"/>
  <outline>
    <contour>
      <point x="-334" y="670" type="line"/>
      <point x="-334" y="496" type="line"/>
      <point x="887" y="496" type="line"/>
      <point x="887" y="670" type="line"/>
    </contour>
  </outline>
</glyph>
<glyph name="uni0337" format="1">
  <advance width="600"/>
  <unicode hex="0337"/>
  <outline>
    <contour>
      <point x="-441" y="-25" type="line"/>
      <point x="549" y="1153" type="line"/>
      <point x="782" y="1153" type="line"/>
      <point x="-224" y="-31" type="line"/>
    </contour>
  </outline>
</glyph>
<glyph name="uni0338" format="1">
  <advance width="600"/>
  <unicode hex="0338"/>
  <outline>
    <contour>
      <point x="-441" y="-25" type="line"/>
      <point x="639" y="1583" type="line"/>
      <point x="872" y="1583" type="line"/>
      <point x="-224" y="-31" type="line"/>
    </contour>
  </outline>
</glyph>
<glyph name="uni0371" format="1">
  <advance width="1000"/>
  <unicode hex="0371"/>
  <outline>
    <contour>
      <point x="100" y="0" type="line"/>
      <point x="640" y="0" type="line"/>
      <point x="640" y="280" type="line"/>
      <point x="520" y="280" type="line"/>
      <point x="520" y="609" type="line"/>
      <point x="900" y="609" type="line"/>
      <point x="900" y="791" type="line"/>
      <point x="520" y="791" type="line"/>
      <point x="520" y="1120" type="line"/>
      <point x="640" y="1120" type="line"/>
      <point x="640" y="1400" type="line"/>
      <point x="100" y="1400" type="line"/>
      <point x="100" y="1120" type="line"/>
      <point x="240" y="1120" type="line"/>
      <point x="240" y="280" type="line"/>
      <point x="100" y="280" type="line"/>
    </contour>
  </outline>
</glyph>
<glyph name="uni037A" format="1">
  <advance width="290"/>
  <unicode hex="037A"/>
  <outline>
    <contour>
      <point x="-601" y="-64" type="line"/>
      <point x="-710" y="-64" type="line"/>
      <point x="-710" y="-272" type="line"/>
      <point x="-619" y="-348" type="line"/>
      <point x="-504" y="-348" type="line"/>
      <point x="-504" y="-222" type="line"/>
      <point x="-600" y="-222" type="line"/>
    </contour>
  </outline>
</glyph>
<glyph name="tonos" format="1">
  <advance width="600"/>
  <unicode hex="0384"/>
  <outline>
    <contour>
      <point x="278" y="1700" type="line"/>
      <point x="278" y="1187" type="line"/>
      <point x="140" y="1187" type="line"/>
      <point x="3" y="1420" type="line"/>
      <point x="3" y="1700" type="line"/>
    </contour>
  </outline>
</glyph>
<glyph name="Alphatonos" format="1">
  <advance width="1473"/>
  <unicode hex="0386"/>
  <outline>
    <contour>
      <point x="375" y="1401" type="line"/>
      <point x="375" y="888" type="line"/>
      <point x="237" y="888" type="line"/>
      <point x="100" y="1121" type="line"/>
      <point x="100" y="1401" type="line"/>
    </contour>
    <component base="Alpha" xOffset="153"/>
  </outline>
</glyph>
<glyph name="Epsilontonos" format="1">
  <advance width="1554"/>
  <unicode hex="0388"/>
  <outline>
    <contour>
      <point x="375" y="1401" type="line"/>
      <point x="375" y="888" type="line"/>
      <point x="237" y="888" type="line"/>
      <point x="100" y="1121" type="line"/>
      <point x="100" y="1401" type="line"/>
    </contour>
    <component base="Epsilon" xOffset="374"/>
  </outline>
</glyph>
<glyph name="Omicrontonos" format="1">
  <advance width="1413"/>
  <unicode hex="038C"/>
  <outline>
    <contour>
      <point x="375" y="1394" type="line"/>
      <point x="375" y="881" type="line"/>
      <point x="237" y="881" type="line"/>
      <point x="100" y="1114" type="line"/>
      <point x="100" y="1394" type="line"/>
    </contour>
    <component base="Omicron" xOffset="373"/>
  </outline>
</glyph>
<glyph name="Upsilontonos" format="1">
  <advance width="1690"/>
  <unicode hex="038E"/>
  <outline>
    <contour>
      <point x="375" y="1401" type="line"/>
      <point x="375" y="888" type="line"/>
      <point x="237" y="888" type="line"/>
      <point x="100" y="1121" type="line"/>
      <point x="100" y="1401" type="line"/>
    </contour>
    <component base="Upsilon" xOffset="370"/>
  </outline>
</glyph>
<glyph name="Omegatonos" format="1">
  <advance width="1830"/>
  <unicode hex="038F"/>
  <outline>
    <contour>
      <point x="375" y="1393" type="line"/>
      <point x="375" y="880" type="line"/>
      <point x="237" y="880" type="line"/>
      <point x="100" y="1113" type="line"/>
      <point x="100" y="1393" type="line"/>
    </contour>
    <component base="uni03A9" xOffset="374"/>
  </outline>
</glyph>
<glyph name="iotadieresistonos" format="1">
  <advance width="740"/>
  <unicode hex="0390"/>
  <outline>
    <contour>
      <point x="494" y="2179" type="line"/>
      <point x="450" y="1806" type="line"/>
      <point x="312" y="1806" type="line"/>
      <point x="259" y="2179" type="line"/>
    </contour>
    <component base="iota"/>
    <component base="uni0308" xOffset="-222"/>
  </outline>
</glyph>
<glyph name="uni0394" format="1">
  <advance width="1321"/>
  <unicode hex="0394"/>
  <outline>
    <contour>
      <point x="451" y="1125" type="line"/>
      <point x="330" y="1125" type="line"/>
      <point x="330" y="1400" type="line"/>
      <point x="1003" y="1400" type="line"/>
      <point x="1003" y="1125" type="line"/>
      <point x="869" y="1125" type="line"/>
      <point x="1079" y="282" type="line"/>
      <point x="1221" y="282" type="line"/>
      <point x="1221" y="0" type="line"/>
      <point x="100" y="0" type="line"/>
      <point x="100" y="282" type="line"/>
      <point x="241" y="282" type="line"/>
    </contour>
    <contour>
      <point x="799" y="282" type="line"/>
      <point x="660" y="840" type="line"/>
      <point x="521" y="282" type="line"/>
    </contour>
  </outline>
</glyph>
<glyph name="Theta" format="1">
  <advance width="1040"/>
  <unicode hex="0398"/>
  <outline>
    <contour>
      <point x="100" y="224" type="line"/>
      <point x="324" y="0" type="line"/>
      <point x="716" y="0" type="line"/>
      <point x="940" y="224" type="line"/>
      <point x="940" y="1176" type="line"/>
      <point x="716" y="1400" type="line"/>
      <point x="324" y="1400" type="line"/>
      <point x="100" y="1176" type="line"/>
    </contour>
    <contour>
      <point x="380" y="280" type="line"/>
      <point x="380" y="586" type="line"/>
      <point x="660" y="586" type="line"/>
      <point x="660" y="280" type="line"/>
    </contour>
    <contour>
      <point x="380" y="814" type="line"/>
      <point x="380" y="1120" type="line"/>
      <point x="660" y="1120" type="line"/>
      <point x="660" y="814" type="line"/>
    </contour>
  </outline>
</glyph>
<glyph name="Lambda" format="1">
  <advance width="1320"/>
  <unicode hex="039B"/>
  <outline>
    <contour>
      <point x="100" y="280" type="line"/>
      <point x="240" y="280" type="line"/>
      <point x="520" y="1400" type="line"/>
      <point x="800" y="1400" type="line"/>
      <point x="1080" y="280" type="line"/>
      <point x="1220" y="280" type="line"/>
      <point x="1220" y="0" type="line"/>
      <point x="680" y="0" type="line"/>
      <point x="680" y="280" type="line"/>
      <point x="800" y="280" type="line"/>
      <point x="660" y="840" type="line"/>
      <point x="520" y="280" type="line"/>
      <point x="640" y="280" type="line"/>
      <point x="640" y="0" type="line"/>
      <point x="100" y="0" type="line"/>
    </contour>
    <contour>
      <point x="313" y="1400" type="line"/>
      <point x="986" y="1400" type="line"/>
      <point x="986" y="1125" type="line"/>
      <point x="313" y="1125" type="line"/>
    </contour>
  </outline>
</glyph>
<glyph name="Upsilon" format="1">
  <advance width="1320"/>
  <unicode hex="03A5"/>
  <outline>
    <contour>
      <point x="240" y="1120" type="line"/>
      <point x="520" y="700" type="line"/>
      <point x="520" y="280" type="line"/>
      <point x="380" y="280" type="line"/>
      <point x="380" y="0" type="line"/>
      <point x="940" y="0" type="line"/>
      <point x="940" y="280" type="line"/>
      <point x="800" y="280" type="line"/>
      <point x="800" y="700" type="line"/>
      <point x="1080" y="1120" type="line"/>
      <point x="1220" y="1120" type="line"/>
      <point x="1220" y="1400" type="line"/>
      <point x="680" y="1400" type="line"/>
      <point x="680" y="1120" type="line"/>
      <point x="800" y="1120" type="line"/>
      <point x="660" y="910" type="line"/>
      <point x="520" y="1120" type="line"/>
      <point x="640" y="1120" type="line"/>
      <point x="640" y="1400" type="line"/>
      <point x="100" y="1400" type="line"/>
      <point x="100" y="1120" type="line"/>
    </contour>
  </outline>
</glyph>
<glyph name="Phi" format="1">
  <advance width="1437"/>
  <unicode hex="03A6"/>
  <outline>
    <contour>
      <point x="375" y="625" type="line"/>
      <point x="375" y="772" type="line"/>
      <point x="1062" y="772" type="line"/>
      <point x="1062" y="625" type="line"/>
    </contour>
    <contour>
      <point x="101" y="633" type="line"/>
      <point x="373" y="360" type="line"/>
      <point x="1059" y="360" type="line"/>
      <point x="1335" y="633" type="line"/>
      <point x="1337" y="633" type="line"/>
      <point x="1337" y="774" type="line"/>
      <point x="1334" y="774" type="line"/>
      <point x="1062" y="1047" type="line"/>
      <point x="371" y="1047" type="line"/>
      <point x="102" y="774" type="line"/>
      <point x="100" y="774" type="line"/>
      <point x="100" y="633" type="line"/>
    </contour>
    <contour>
      <point x="432" y="0" type="line"/>
      <point x="972" y="0" type="line"/>
      <point x="972" y="280" type="line"/>
      <point x="852" y="280" type="line"/>
      <point x="852" y="1134" type="line"/>
      <point x="971" y="1134" type="line"/>
      <point x="972" y="1400" type="line"/>
      <point x="433" y="1400" type="line"/>
      <point x="433" y="1134" type="line"/>
      <point x="572" y="1134" type="line"/>
      <point x="572" y="280" type="line"/>
      <point x="432" y="280" type="line"/>
    </contour>
  </outline>
</glyph>
<glyph name="Psi" format="1">
  <advance width="2280"/>
  <unicode hex="03A8"/>
  <outline>
    <contour>
      <point x="1018" y="1136" type="line"/>
      <point x="822" y="1136" type="line"/>
      <point x="822" y="1402" type="line"/>
      <point x="1457" y="1402" type="line"/>
      <point x="1457" y="1136" type="line"/>
      <point x="1298" y="1136" type="line"/>
      <point x="1298" y="773" type="line"/>
      <point x="1758" y="773" type="line"/>
      <point x="1758" y="1139" type="line"/>
      <point x="1545" y="1139" type="line"/>
      <point x="1545" y="1405" type="line"/>
      <point x="2180" y="1405" type="line"/>
      <point x="2180" y="1139" type="line"/>
      <point x="2038" y="1139" type="line"/>
      <point x="2038" y="717" type="line"/>
      <point x="1814" y="493" type="line"/>
      <point x="1298" y="493" type="line"/>
      <point x="1298" y="266" type="line"/>
      <point x="1457" y="266" type="line"/>
      <point x="1457" y="0" type="line"/>
      <point x="822" y="0" type="line"/>
      <point x="822" y="266" type="line"/>
      <point x="1018" y="266" type="line"/>
      <point x="1018" y="267" type="line"/>
      <point x="1018" y="490" type="line"/>
      <point x="502" y="490" type="line"/>
      <point x="278" y="714" type="line"/>
      <point x="278" y="1136" type="line"/>
      <point x="100" y="1136" type="line"/>
      <point x="100" y="1402" type="line"/>
      <point x="735" y="1402" type="line"/>
      <point x="735" y="1136" type="line"/>
      <point x="558" y="1136" type="line"/>
      <point x="558" y="770" type="line"/>
      <point x="1018" y="770" type="line"/>
    </contour>
  </outline>
</glyph>
<glyph name="uni03A9" format="1">
  <advance width="1456"/>
  <unicode hex="03A9"/>
  <outline>
    <contour>
      <point x="843" y="1402" type="line"/>
      <point x="1132" y="1402" type="line"/>
      <point x="1356" y="1178" type="line"/>
      <point x="1356" y="1006" type="line"/>
      <point x="1356" y="648" type="line"/>
      <point x="1132" y="424" type="line"/>
      <point x="1043" y="424" type="line"/>
      <point x="1043" y="282" type="line"/>
      <point x="1341" y="282" type="line"/>
      <point x="1341" y="2" type="line"/>
      <point x="987" y="2" type="line"/>
      <point x="763" y="226" type="line"/>
      <point x="763" y="424" type="line"/>
      <point x="763" y="704" type="line"/>
      <point x="1076" y="704" type="line"/>
      <point x="1076" y="1006" type="line"/>
      <point x="1076" y="1122" type="line"/>
      <point x="843" y="1122" type="line"/>
      <point x="380" y="1122" type="line"/>
      <point x="380" y="1005" type="line"/>
      <point x="380" y="703" type="line"/>
      <point x="693" y="703" type="line"/>
      <point x="693" y="423" type="line"/>
      <point x="693" y="224" type="line"/>
      <point x="469" y="0" type="line"/>
      <point x="115" y="0" type="line"/>
      <point x="115" y="280" type="line"/>
      <point x="413" y="280" type="line"/>
      <point x="413" y="423" type="line"/>
      <point x="324" y="423" type="line"/>
      <point x="100" y="647" type="line"/>
      <point x="100" y="1005" type="line"/>
      <point x="100" y="1178" type="line"/>
      <point x="324" y="1402" type="line"/>
    </contour>
  </outline>
</glyph>
<glyph name="alphatonos" format="1">
  <advance width="1485"/>
  <unicode hex="03AC"/>
  <outline>
    <contour>
      <point x="375" y="1408" type="line"/>
      <point x="375" y="895" type="line"/>
      <point x="237" y="895" type="line"/>
      <point x="100" y="1128" type="line"/>
      <point x="100" y="1408" type="line"/>
    </contour>
    <component base="alpha" xOffset="165"/>
  </outline>
</glyph>
<glyph name="epsilontonos" format="1">
  <advance width="1555"/>
  <unicode hex="03AD"/>
  <outline>
    <contour>
      <point x="375" y="1401" type="line"/>
      <point x="375" y="888" type="line"/>
      <point x="237" y="888" type="line"/>
      <point x="100" y="1121" type="line"/>
      <point x="100" y="1401" type="line"/>
    </contour>
    <component base="epsilon" xOffset="375"/>
  </outline>
</glyph>
<glyph name="etatonos" format="1">
  <advance width="1692"/>
  <unicode hex="03AE"/>
  <outline>
    <contour>
      <point x="375" y="1401" type="line"/>
      <point x="375" y="888" type="line"/>
      <point x="237" y="888" type="line"/>
      <point x="100" y="1121" type="line"/>
      <point x="100" y="1401" type="line"/>
    </contour>
    <component base="eta" xOffset="372"/>
  </outline>
</glyph>
<glyph name="iotatonos" format="1">
  <advance width="1118"/>
  <unicode hex="03AF"/>
  <outline>
    <contour>
      <point x="375" y="1401" type="line"/>
      <point x="375" y="888" type="line"/>
      <point x="237" y="888" type="line"/>
      <point x="100" y="1121" type="line"/>
      <point x="100" y="1401" type="line"/>
    </contour>
    <component base="iota" xOffset="378"/>
  </outline>
</glyph>
<glyph name="upsilondieresistonos" format="1">
  <advance width="1320"/>
  <unicode hex="03B0"/>
  <outline>
    <contour>
      <point x="721" y="2179" type="line"/>
      <point x="677" y="1806" type="line"/>
      <point x="539" y="1806" type="line"/>
      <point x="486" y="2179" type="line"/>
    </contour>
    <component base="upsilon"/>
    <component base="uni0308"/>
  </outline>
</glyph>
<glyph name="lambda" format="1">
  <advance width="1320"/>
  <unicode hex="03BB"/>
  <outline>
    <contour>
      <point x="100" y="280" type="line"/>
      <point x="240" y="280" type="line"/>
      <point x="520" y="1400" type="line"/>
      <point x="800" y="1400" type="line"/>
      <point x="1080" y="280" type="line"/>
      <point x="1220" y="280" type="line"/>
      <point x="1220" y="0" type="line"/>
      <point x="680" y="0" type="line"/>
      <point x="680" y="280" type="line"/>
      <point x="800" y="280" type="line"/>
      <point x="660" y="840" type="line"/>
      <point x="520" y="280" type="line"/>
      <point x="640" y="280" type="line"/>
      <point x="640" y="0" type="line"/>
      <point x="100" y="0" type="line"/>
    </contour>
    <contour>
      <point x="313" y="1400" type="line"/>
      <point x="986" y="1400" type="line"/>
      <point x="986" y="1125" type="line"/>
      <point x="313" y="1125" type="line"/>
    </contour>
  </outline>
</glyph>
<glyph name="xi" format="1">
  <advance width="1465"/>
  <unicode hex="03BE"/>
  <outline>
    <contour>
      <point x="1365" y="1002" type="line"/>
      <point x="1085" y="1002" type="line"/>
      <point x="1085" y="1110" type="line"/>
      <point x="380" y="1110" type="line"/>
      <point x="380" y="1002" type="line"/>
      <point x="100" y="1002" type="line"/>
      <point x="100" y="1407" type="line"/>
      <point x="380" y="1405" type="line"/>
      <point x="1085" y="1405" type="line"/>
      <point x="1365" y="1407" type="line"/>
    </contour>
    <contour>
      <point x="1365" y="405" type="line"/>
      <point x="1365" y="0" type="line"/>
      <point x="1085" y="2" type="line"/>
      <point x="380" y="2" type="line"/>
      <point x="100" y="0" type="line"/>
      <point x="100" y="405" type="line"/>
      <point x="380" y="405" type="line"/>
      <point x="380" y="297" type="line"/>
      <point x="1085" y="297" type="line"/>
      <point x="1085" y="405" type="line"/>
    </contour>
    <contour>
      <point x="244" y="837" type="line"/>
      <point x="1209" y="837" type="line"/>
      <point x="1209" y="562" type="line"/>
      <point x="244" y="562" type="line"/>
    </contour>
  </outline>
</glyph>
<glyph name="pi" format="1">
  <advance width="1550"/>
  <unicode hex="03C0"/>
  <outline>
    <contour>
      <point x="910" y="1400" type="line"/>
      <point x="1450" y="1400" type="line"/>
      <point x="1450" y="1120" type="line"/>
      <point x="1310" y="1120" type="line"/>
      <point x="1310" y="280" type="line"/>
      <point x="1450" y="280" type="line"/>
      <point x="1450" y="0" type="line"/>
      <point x="910" y="0" type="line"/>
      <point x="910" y="280" type="line"/>
      <point x="1030" y="280" type="line"/>
      <point x="1030" y="1120" type="line"/>
      <point x="910" y="1120" type="line"/>
      <point x="520" y="1120" type="line"/>
      <point x="520" y="280" type="line"/>
      <point x="640" y="280" type="line"/>
      <point x="640" y="0" type="line"/>
      <point x="100" y="0" type="line"/>
      <point x="100" y="280" type="line"/>
      <point x="240" y="280" type="line"/>
      <point x="240" y="1120" type="line"/>
      <point x="100" y="1120" type="line"/>
      <point x="100" y="1400" type="line"/>
    </contour>
  </outline>
</glyph>
<glyph name="uni03C2" format="1">
  <advance width="1180"/>
  <unicode hex="03C2"/>
  <outline>
    <contour>
      <point x="1080" y="0" type="line"/>
      <point x="1080" y="420" type="line"/>
      <point x="800" y="420" type="line"/>
      <point x="800" y="280" type="line"/>
      <point x="475" y="280" type="line"/>
      <point x="755" y="697" type="line"/>
      <point x="475" y="1120" type="line"/>
      <point x="800" y="1120" type="line"/>
      <point x="800" y="980" type="line"/>
      <point x="1080" y="980" type="line"/>
      <point x="1080" y="1400" type="line"/>
      <point x="100" y="1400" type="line"/>
      <point x="100" y="1120" type="line"/>
      <point x="195" y="1120" type="line"/>
      <point x="475" y="694" type="line"/>
      <point x="195" y="280" type="line"/>
      <point x="100" y="280" type="line"/>
      <point x="100" y="0" type="line"/>
    </contour>
  </outline>
</glyph>
<glyph name="omicrontonos" format="1">
  <advance width="1408"/>
  <unicode hex="03CC"/>
  <outline>
    <contour>
      <point x="375" y="1388" type="line"/>
      <point x="375" y="875" type="line"/>
      <point x="237" y="875" type="line"/>
      <point x="100" y="1108" type="line"/>
      <point x="100" y="1388" type="line"/>
    </contour>
    <component base="omicron" xOffset="368"/>
  </outline>
</glyph>
<glyph name="upsilontonos" format="1">
  <advance width="1699"/>
  <unicode hex="03CD"/>
  <outline>
    <contour>
      <point x="375" y="1401" type="line"/>
      <point x="375" y="888" type="line"/>
      <point x="237" y="888" type="line"/>
      <point x="100" y="1121" type="line"/>
      <point x="100" y="1401" type="line"/>
    </contour>
    <component base="upsilon" xOffset="379"/>
  </outline>
</glyph>
<glyph name="omegatonos" format="1">
  <advance width="1833"/>
  <unicode hex="03CE"/>
  <outline>
    <contour>
      <point x="375" y="1408" type="line"/>
      <point x="375" y="895" type="line"/>
      <point x="237" y="895" type="line"/>
      <point x="100" y="1128" type="line"/>
      <point x="100" y="1408" type="line"/>
    </contour>
    <component base="omega" xOffset="377"/>
  </outline>
</glyph>
<glyph name="uni03DD" format="1">
  <advance width="1040"/>
  <unicode hex="03DD"/>
  <outline>
    <contour>
      <point x="380" y="0" type="line"/>
      <point x="380" y="280" type="line"/>
      <point x="380" y="560" type="line"/>
      <point x="660" y="560" type="line"/>
      <point x="660" y="840" type="line"/>
      <point x="380" y="840" type="line"/>
      <point x="380" y="1120" type="line"/>
      <point x="660" y="1120" type="line"/>
      <point x="940" y="1120" type="line"/>
      <point x="940" y="1400" type="line"/>
      <point x="100" y="1400" type="line"/>
      <point x="100" y="1120" type="line"/>
      <point x="100" y="280" type="line"/>
      <point x="100" y="0" type="line"/>
    </contour>
  </outline>
</glyph>
<glyph name="uni03DF" format="1">
  <advance width="600"/>
  <unicode hex="03DF"/>
  <outline>
    <contour>
      <point x="100" y="589" type="line"/>
      <point x="100" y="859" type="line"/>
      <point x="635" y="1454" type="line"/>
      <point x="836" y="1273" type="line"/>
      <point x="463" y="859" type="line"/>
      <point x="900" y="859" type="line"/>
      <point x="900" y="589" type="line"/>
      <point x="895" y="589" type="line"/>
      <point x="365" y="0" type="line"/>
      <point x="164" y="180" type="line"/>
      <point x="532" y="589" type="line"/>
    </contour>
  </outline>
</glyph>
<glyph name="uni0402" format="1">
  <advance width="1649"/>
  <unicode hex="0402"/>
  <outline>
    <contour>
      <point x="409" y="266" type="line"/>
      <point x="409" y="1137" type="line"/>
      <point x="100" y="1137" type="line"/>
      <point x="100" y="1403" type="line"/>
      <point x="1005" y="1403" type="line"/>
      <point x="1005" y="1137" type="line"/>
      <point x="689" y="1137" type="line"/>
      <point x="689" y="1136" type="line"/>
      <point x="689" y="898" type="line"/>
      <point x="1325" y="898" type="line"/>
      <point x="1549" y="674" type="line"/>
      <point x="1549" y="263" type="line"/>
      <point x="1270" y="0" type="line"/>
      <point x="980" y="0" type="line"/>
      <point x="980" y="263" type="line"/>
      <point x="1269" y="263" type="line"/>
      <point x="1269" y="618" type="line"/>
      <point x="689" y="618" type="line"/>
      <point x="689" y="266" type="line"/>
      <point x="885" y="266" type="line"/>
      <point x="885" y="0" type="line"/>
      <point x="250" y="0" type="line"/>
      <point x="250" y="266" type="line"/>
    </contour>
  </outline>
</glyph>
<glyph name="uni0403" format="1">
  <advance width="1308"/>
  <unicode hex="0403"/>
  <outline>
    <contour>
      <point x="934" y="1131" type="line"/>
      <point x="933" y="1131" type="line"/>
      <point x="933" y="997" type="line"/>
      <point x="933" y="996" type="line"/>
      <point x="934" y="996" type="line"/>
      <point x="1209" y="996" type="line"/>
      <point x="1209" y="1410" type="line"/>
      <point x="1209" y="1411" type="line"/>
      <point x="101" y="1411" type="line"/>
      <point x="101" y="1407" type="line"/>
      <point x="101" y="1131" type="line"/>
      <point x="268" y="1131" type="line"/>
      <point x="268" y="275" type="line"/>
      <point x="268" y="276" type="line"/>
      <point x="103" y="276" type="line"/>
      <point x="102" y="276" type="line"/>
      <point x="102" y="275" type="line"/>
      <point x="102" y="0" type="line"/>
      <point x="102" y="-1" type="line"/>
      <point x="103" y="-1" type="line"/>
      <point x="723" y="-1" type="line"/>
      <point x="723" y="276" type="line"/>
      <point x="543" y="276" type="line"/>
      <point x="544" y="275" type="line"/>
      <point x="544" y="1131" type="line"/>
      <point x="543" y="1131" type="line"/>
    </contour>
    <component base="acute" xOffset="484" yOffset="9"/>
  </outline>
</glyph>
<glyph name="uni0404" format="1">
  <advance width="1220"/>
  <unicode hex="0404"/>
  <outline>
    <contour>
      <point x="840" y="980" type="line"/>
      <point x="1120" y="980" type="line"/>
      <point x="1120" y="1176" type="line"/>
      <point x="896" y="1400" type="line"/>
      <point x="324" y="1400" type="line"/>
      <point x="100" y="1176" type="line"/>
      <point x="100" y="224" type="line"/>
      <point x="324" y="0" type="line"/>
      <point x="896" y="0" type="line"/>
      <point x="1120" y="224" type="line"/>
      <point x="1120" y="420" type="line"/>
      <point x="840" y="420" type="line"/>
      <point x="840" y="280" type="line"/>
      <point x="380" y="280" type="line"/>
      <point x="380" y="560" type="line"/>
      <point x="782" y="560" type="line"/>
      <point x="784" y="840" type="line"/>
      <point x="380" y="840" type="line"/>
      <point x="380" y="1120" type="line"/>
      <point x="840" y="1120" type="line"/>
    </contour>
  </outline>
</glyph>
<glyph name="uni0409" format="1">
  <advance width="1982"/>
  <unicode hex="0409"/>
  <outline>
    <contour>
      <point x="1287" y="1406" type="line"/>
      <point x="1291" y="1406" type="line"/>
      <point x="1291" y="772" type="line"/>
      <point x="1563" y="772" type="line"/>
      <point x="1715" y="773" type="line"/>
      <point x="1882" y="673" type="line"/>
      <point x="1882" y="238" type="line"/>
      <point x="1624" y="0" type="line"/>
      <point x="1287" y="0" type="line"/>
      <point x="847" y="0" type="line"/>
      <point x="847" y="275" type="line"/>
      <point x="1010" y="275" type="line"/>
      <point x="1010" y="1131" type="line"/>
      <point x="703" y="1131" type="line"/>
      <point x="705" y="275" type="line"/>
      <point x="705" y="272" type="line"/>
      <point x="702" y="272" type="line"/>
      <point x="430" y="0" type="line"/>
      <point x="100" y="0" type="line"/>
      <point x="100" y="275" type="line"/>
      <point x="430" y="275" type="line"/>
      <point x="430" y="1135" type="line"/>
      <point x="702" y="1406" type="line"/>
      <point x="1012" y="1406" type="line"/>
    </contour>
    <contour>
      <point x="1291" y="497" type="line"/>
      <point x="1291" y="286" type="line"/>
      <point x="1563" y="286" type="line"/>
      <point x="1563" y="497" type="line"/>
    </contour>
  </outline>
</glyph>
<glyph name="uni040A" format="1">
  <advance width="1976"/>
  <unicode hex="040A"/>
  <outline>
    <contour>
      <point x="552" y="777" type="line"/>
      <point x="1004" y="777" type="line"/>
      <point x="1004" y="1410" type="line"/>
      <point x="1285" y="1410" type="line"/>
      <point x="1285" y="777" type="line"/>
      <point x="1320" y="777" type="line"/>
      <point x="1320" y="776" type="line"/>
      <point x="1557" y="776" type="line"/>
      <point x="1557" y="777" type="line"/>
      <point x="1709" y="777" type="line"/>
      <point x="1876" y="677" type="line"/>
      <point x="1876" y="242" type="line"/>
      <point x="1618" y="4" type="line"/>
      <point x="862" y="4" type="line"/>
      <point x="862" y="290" type="line"/>
      <point x="1004" y="290" type="line"/>
      <point x="1004" y="500" type="line"/>
      <point x="552" y="500" type="line"/>
      <point x="552" y="295" type="line"/>
      <point x="729" y="295" type="line"/>
      <point x="729" y="0" type="line"/>
      <point x="100" y="0" type="line"/>
      <point x="100" y="295" type="line"/>
      <point x="277" y="295" type="line"/>
      <point x="277" y="500" type="line"/>
      <point x="100" y="500" type="line"/>
      <point x="100" y="777" type="line"/>
      <point x="277" y="777" type="line"/>
      <point x="277" y="1109" type="line"/>
      <point x="100" y="1109" type="line"/>
      <point x="100" y="1404" type="line"/>
      <point x="729" y="1404" type="line"/>
      <point x="729" y="1109" type="line"/>
      <point x="552" y="1109" type="line"/>
    </contour>
    <contour>
      <point x="1285" y="501" type="line"/>
      <point x="1285" y="290" type="line"/>
      <point x="1557" y="290" type="line"/>
      <point x="1557" y="501" type="line"/>
    </contour>
  </outline>
</glyph>
<glyph name="uni040E" format="1">
  <advance width="1557"/>
  <unicode hex="040E"/>
  <outline>
    <contour>
      <point x="1298" y="1140" type="line"/>
      <point x="1298" y="280" type="line"/>
      <point x="1032" y="-2" type="line"/>
      <point x="544" y="-3" type="line"/>
      <point x="281" y="275" type="line"/>
      <point x="281" y="501" type="line"/>
      <point x="556" y="501" type="line"/>
      <point x="556" y="275" type="line"/>
      <point x="1018" y="275" type="line"/>
      <point x="1018" y="594" type="line"/>
      <point x="502" y="594" type="line"/>
      <point x="278" y="818" type="line"/>
      <point x="278" y="1140" type="line"/>
      <point x="100" y="1140" type="line"/>
      <point x="100" y="1406" type="line"/>
      <point x="735" y="1406" type="line"/>
      <point x="735" y="1140" type="line"/>
      <point x="558" y="1140" type="line"/>
      <point x="558" y="874" type="line"/>
      <point x="1018" y="874" type="line"/>
      <point x="1018" y="1140" type="line"/>
      <point x="822" y="1140" type="line"/>
      <point x="822" y="1406" type="line"/>
      <point x="1457" y="1406" type="line"/>
      <point x="1457" y="1140" type="line"/>
    </contour>
    <component base="breve" xOffset="127" yOffset="42"/>
  </outline>
</glyph>
<glyph name="uni0411" format="1">
  <advance width="1218"/>
  <unicode hex="0411"/>
  <outline>
    <contour>
      <point x="527" y="507" type="line"/>
      <point x="527" y="286" type="line"/>
      <point x="799" y="286" type="line"/>
      <point x="799" y="507" type="line"/>
    </contour>
    <contour>
      <point x="527" y="782" type="line"/>
      <point x="860" y="783" type="line"/>
      <point x="1118" y="593" type="line"/>
      <point x="1118" y="231" type="line"/>
      <point x="860" y="0" type="line"/>
      <point x="104" y="0" type="line"/>
      <point x="104" y="286" type="line"/>
      <point x="246" y="286" type="line"/>
      <point x="246" y="1120" type="line"/>
      <point x="100" y="1120" type="line"/>
      <point x="100" y="1406" type="line"/>
      <point x="1117" y="1406" type="line"/>
      <point x="1118" y="1406" type="line"/>
      <point x="1118" y="939" type="line"/>
      <point x="799" y="939" type="line"/>
      <point x="799" y="1120" type="line"/>
      <point x="527" y="1120" type="line"/>
    </contour>
  </outline>
</glyph>
<glyph name="uni0416" format="1">
  <advance width="1910"/>
  <unicode hex="0416"/>
  <outline>
    <contour>
      <point x="1225" y="531" type="line"/>
      <point x="1091" y="366" type="line"/>
      <point x="1091" y="280" type="line"/>
      <point x="1224" y="280" type="line"/>
      <point x="1224" y="0" type="line"/>
      <point x="1104" y="0" type="line"/>
      <point x="824" y="0" type="line"/>
      <point x="684" y="0" type="line"/>
      <point x="684" y="280" type="line"/>
      <point x="816" y="280" type="line"/>
      <point x="816" y="368" type="line"/>
      <point x="691" y="522" type="line"/>
      <point x="505" y="280" type="line"/>
      <point x="640" y="280" type="line"/>
      <point x="640" y="0" type="line"/>
      <point x="520" y="0" type="line"/>
      <point x="240" y="0" type="line"/>
      <point x="100" y="0" type="line"/>
      <point x="100" y="280" type="line"/>
      <point x="209" y="280" type="line"/>
      <point x="530" y="721" type="line"/>
      <point x="210" y="1116" type="line"/>
      <point x="100" y="1116" type="line"/>
      <point x="100" y="1396" type="line"/>
      <point x="640" y="1396" type="line"/>
      <point x="640" y="1116" type="line"/>
      <point x="520" y="1116" type="line"/>
      <point x="511" y="1116" type="line"/>
      <point x="816" y="728" type="line"/>
      <point x="816" y="1114" type="line"/>
      <point x="684" y="1114" type="line"/>
      <point x="684" y="1394" type="line"/>
      <point x="1224" y="1394" type="line"/>
      <point x="1224" y="1114" type="line"/>
      <point x="1104" y="1114" type="line"/>
      <point x="1091" y="1114" type="line"/>
      <point x="1091" y="726" type="line"/>
      <point x="1398" y="1116" type="line"/>
      <point x="1270" y="1116" type="line"/>
      <point x="1270" y="1396" type="line"/>
      <point x="1810" y="1396" type="line"/>
      <point x="1810" y="1116" type="line"/>
      <point x="1696" y="1116" type="line"/>
      <point x="1385" y="730" type="line"/>
      <point x="1713" y="280" type="line"/>
      <point x="1810" y="280" type="line"/>
      <point x="1810" y="0" type="line"/>
      <point x="1690" y="0" type="line"/>
      <point x="1410" y="0" type="line"/>
      <point x="1270" y="0" type="line"/>
      <point x="1270" y="280" type="line"/>
      <point x="1417" y="280" type="line"/>
    </contour>
  </outline>
</glyph>
<glyph name="uni0417" format="1">
  <advance width="1220"/>
  <unicode hex="0417"/>
  <outline>
    <contour>
      <point x="380" y="980" type="line"/>
      <point x="380" y="1120" type="line"/>
      <point x="840" y="1120" type="line"/>
      <point x="840" y="840" type="line"/>
      <point x="436" y="840" type="line"/>
      <point x="362" y="700" type="line"/>
      <point x="438" y="560" type="line"/>
      <point x="840" y="560" type="line"/>
      <point x="840" y="280" type="line"/>
      <point x="380" y="280" type="line"/>
      <point x="380" y="420" type="line"/>
      <point x="100" y="420" type="line"/>
      <point x="100" y="224" type="line"/>
      <point x="324" y="0" type="line"/>
      <point x="896" y="0" type="line"/>
      <point x="1120" y="224" type="line"/>
      <point x="1120" y="616" type="line"/>
      <point x="1036" y="700" type="line"/>
      <point x="1120" y="784" type="line"/>
      <point x="1120" y="1176" type="line"/>
      <point x="896" y="1400" type="line"/>
      <point x="324" y="1400" type="line"/>
      <point x="100" y="1176" type="line"/>
      <point x="100" y="980" type="line"/>
    </contour>
  </outline>
</glyph>
<glyph name="uni0419" format="1">
  <advance width="1460"/>
  <unicode hex="0419"/>
  <outline>
    <contour>
      <point x="800" y="0" type="line"/>
      <point x="1360" y="0" type="line"/>
      <point x="1360" y="280" type="line"/>
      <point x="1220" y="280" type="line"/>
      <point x="1220" y="1120" type="line"/>
      <point x="1360" y="1120" type="line"/>
      <point x="1360" y="1400" type="line"/>
      <point x="940" y="1400" type="line"/>
      <point x="520" y="600" type="line"/>
      <point x="520" y="1120" type="line"/>
      <point x="660" y="1120" type="line"/>
      <point x="660" y="1400" type="line"/>
      <point x="100" y="1400" type="line"/>
      <point x="100" y="1120" type="line"/>
      <point x="240" y="1120" type="line"/>
      <point x="240" y="0" type="line"/>
      <point x="520" y="0" type="line"/>
      <point x="940" y="800" type="line"/>
      <point x="940" y="280" type="line"/>
      <point x="800" y="280" type="line"/>
    </contour>
    <component base="breve" xOffset="127" yOffset="42"/>
  </outline>
</glyph>
<glyph name="uni041B" format="1">
  <advance width="1567"/>
  <unicode hex="041B"/>
  <outline>
    <contour>
      <point x="430" y="275" type="line"/>
      <point x="430" y="1135" type="line"/>
      <point x="702" y="1406" type="line"/>
      <point x="1467" y="1406" type="line"/>
      <point x="1467" y="1131" type="line"/>
      <point x="1287" y="1131" type="line"/>
      <point x="1287" y="275" type="line"/>
      <point x="1467" y="275" type="line"/>
      <point x="1467" y="0" type="line"/>
      <point x="847" y="0" type="line"/>
      <point x="847" y="275" type="line"/>
      <point x="1012" y="275" type="line"/>
      <point x="1012" y="1131" type="line"/>
      <point x="703" y="1131" type="line"/>
      <point x="705" y="275" type="line"/>
      <point x="430" y="0" type="line"/>
      <point x="100" y="0" type="line"/>
      <point x="100" y="275" type="line"/>
    </contour>
  </outline>
</glyph>
<glyph name="uni0426" format="1">
  <advance width="1750"/>
  <unicode hex="0426"/>
  <outline>
    <contour>
      <point x="910" y="0" type="line"/>
      <point x="1375" y="0" type="line"/>
      <point x="1375" y="280" type="line"/>
      <point x="1235" y="280" type="line"/>
      <point x="1235" y="1120" type="line"/>
      <point x="1375" y="1120" type="line"/>
      <point x="1375" y="1400" type="line"/>
      <point x="835" y="1400" type="line"/>
      <point x="835" y="1120" type="line"/>
      <point x="955" y="1120" type="line"/>
      <point x="955" y="280" type="line"/>
      <point x="910" y="280" type="line"/>
      <point x="520" y="280" type="line"/>
      <point x="520" y="1120" type="line"/>
      <point x="640" y="1120" type="line"/>
      <point x="640" y="1400" type="line"/>
      <point x="100" y="1400" type="line"/>
      <point x="100" y="1120" type="line"/>
      <point x="240" y="1120" type="line"/>
      <point x="240" y="280" type="line"/>
      <point x="100" y="280" type="line"/>
      <point x="100" y="0" type="line"/>
    </contour>
    <contour>
      <point x="1375" y="280" type="line"/>
      <point x="1650" y="280" type="line"/>
      <point x="1650" y="0" type="line"/>
      <point x="1513" y="-233" type="line"/>
      <point x="1375" y="-233" type="line"/>
    </contour>
  </outline>
</glyph>
<glyph name="uni0427" format="1">
  <advance width="1557"/>
  <unicode hex="0427"/>
  <outline>
    <contour>
      <point x="1018" y="1137" type="line"/>
      <point x="822" y="1137" type="line"/>
      <point x="822" y="1403" type="line"/>
      <point x="1457" y="1403" type="line"/>
      <point x="1457" y="1137" type="line"/>
      <point x="1298" y="1137" type="line"/>
      <point x="1298" y="266" type="line"/>
      <point x="1457" y="266" type="line"/>
      <point x="1457" y="0" type="line"/>
      <point x="822" y="0" type="line"/>
      <point x="822" y="266" type="line"/>
      <point x="1018" y="266" type="line"/>
      <point x="1018" y="268" type="line"/>
      <point x="1018" y="415" type="line"/>
      <point x="502" y="415" type="line"/>
      <point x="278" y="639" type="line"/>
      <point x="278" y="1137" type="line"/>
      <point x="100" y="1137" type="line"/>
      <point x="100" y="1403" type="line"/>
      <point x="735" y="1403" type="line"/>
      <point x="735" y="1137" type="line"/>
      <point x="558" y="1137" type="line"/>
      <point x="558" y="695" type="line"/>
      <point x="1018" y="695" type="line"/>
    </contour>
  </outline>
</glyph>
<glyph name="uni0428" format="1">
  <advance width="2210"/>
  <unicode hex="0428"/>
  <outline>
    <contour>
      <point x="1375" y="280" type="line"/>
      <point x="1235" y="280" type="line"/>
      <point x="1235" y="1120" type="line"/>
      <point x="1375" y="1120" type="line"/>
      <point x="1375" y="1400" type="line"/>
      <point x="835" y="1400" type="line"/>
      <point x="835" y="1120" type="line"/>
      <point x="955" y="1120" type="line"/>
      <point x="955" y="280" type="line"/>
      <point x="910" y="280" type="line"/>
      <point x="520" y="280" type="line"/>
      <point x="520" y="1120" type="line"/>
      <point x="640" y="1120" type="line"/>
      <point x="640" y="1400" type="line"/>
      <point x="100" y="1400" type="line"/>
      <point x="100" y="1120" type="line"/>
      <point x="240" y="1120" type="line"/>
      <point x="240" y="280" type="line"/>
      <point x="100" y="280" type="line"/>
      <point x="100" y="0" type="line"/>
      <point x="910" y="0" type="line"/>
      <point x="1375" y="0" type="line"/>
      <point x="2110" y="0" type="line"/>
      <point x="2110" y="280" type="line"/>
      <point x="1970" y="280" type="line"/>
      <point x="1970" y="1120" type="line"/>
      <point x="2110" y="1120" type="line"/>
      <point x="2110" y="1400" type="line"/>
      <point x="1570" y="1400" type="line"/>
      <point x="1570" y="1120" type="line"/>
      <point x="1690" y="1120" type="line"/>
      <point x="1690" y="280" type="line"/>
    </contour>
  </outline>
</glyph>
<glyph name="uni042B" format="1">
  <advance width="1589"/>
  <unicode hex="042B"/>
  <outline>
    <contour>
      <point x="523" y="772" type="line"/>
      <point x="795" y="772" type="line"/>
      <point x="795" y="773" type="line"/>
      <point x="947" y="773" type="line"/>
      <point x="1114" y="673" type="line"/>
      <point x="1114" y="238" type="line"/>
      <point x="856" y="0" type="line"/>
      <point x="100" y="0" type="line"/>
      <point x="100" y="286" type="line"/>
      <point x="242" y="286" type="line"/>
      <point x="242" y="1406" type="line"/>
      <point x="523" y="1406" type="line"/>
    </contour>
    <contour>
      <point x="523" y="497" type="line"/>
      <point x="523" y="286" type="line"/>
      <point x="795" y="286" type="line"/>
      <point x="795" y="497" type="line"/>
    </contour>
    <contour>
      <point x="1214" y="1410" type="line"/>
      <point x="1489" y="1410" type="line"/>
      <point x="1489" y="10" type="line"/>
      <point x="1214" y="10" type="line"/>
    </contour>
  </outline>
</glyph>
<glyph name="uni042E" format="1">
  <advance width="2085"/>
  <unicode hex="042E"/>
  <outline>
    <contour>
      <point x="965" y="563" type="line"/>
      <point x="567" y="563" type="line"/>
      <point x="567" y="279" type="line"/>
      <point x="759" y="279" type="line"/>
      <point x="759" y="4" type="line"/>
      <point x="567" y="4" type="line"/>
      <point x="567" y="0" type="line"/>
      <point x="292" y="0" type="line"/>
      <point x="292" y="4" type="line"/>
      <point x="100" y="4" type="line"/>
      <point x="100" y="279" type="line"/>
      <point x="292" y="279" type="line"/>
      <point x="292" y="1138" type="line"/>
      <point x="100" y="1138" type="line"/>
      <point x="100" y="1413" type="line"/>
      <point x="759" y="1413" type="line"/>
      <point x="759" y="1138" type="line"/>
      <point x="567" y="1138" type="line"/>
      <point x="567" y="838" type="line"/>
      <point x="965" y="838" type="line"/>
      <point x="965" y="1179" type="line"/>
      <point x="1189" y="1403" type="line"/>
      <point x="1761" y="1403" type="line"/>
      <point x="1985" y="1179" type="line"/>
      <point x="1985" y="227" type="line"/>
      <point x="1761" y="3" type="line"/>
      <point x="1189" y="3" type="line"/>
      <point x="965" y="227" type="line"/>
    </contour>
    <contour>
      <point x="1245" y="1123" type="line"/>
      <point x="1245" y="283" type="line"/>
      <point x="1705" y="283" type="line"/>
      <point x="1705" y="1123" type="line"/>
    </contour>
  </outline>
</glyph>
<glyph name="uni042F" format="1">
  <advance width="1320"/>
  <unicode hex="042F"/>
  <outline>
    <contour>
      <point x="680" y="0" type="line"/>
      <point x="1220" y="0" type="line"/>
      <point x="1220" y="280" type="line"/>
      <point x="1080" y="280" type="line"/>
      <point x="1080" y="1120" type="line"/>
      <point x="1220" y="1120" type="line"/>
      <point x="1220" y="1400" type="line"/>
      <point x="464" y="1400" type="line"/>
      <point x="240" y="1176" type="line"/>
      <point x="240" y="784" type="line"/>
      <point x="324" y="700" type="line"/>
      <point x="240" y="616" type="line"/>
      <point x="240" y="280" type="line"/>
      <point x="100" y="280" type="line"/>
      <point x="100" y="0" type="line"/>
      <point x="640" y="0" type="line"/>
      <point x="640" y="280" type="line"/>
      <point x="520" y="280" type="line"/>
      <point x="520" y="560" type="line"/>
      <point x="800" y="560" type="line"/>
      <point x="800" y="280" type="line"/>
      <point x="680" y="280" type="line"/>
    </contour>
    <contour>
      <point x="800" y="1120" type="line"/>
      <point x="800" y="840" type="line"/>
      <point x="520" y="840" type="line"/>
      <point x="520" y="1120" type="line"/>
    </contour>
  </outline>
</glyph>
<glyph name="uni0433" format="1">
  <advance width="1309"/>
  <unicode hex="0433"/>
  <outline>
    <contour>
      <point x="934" y="1131" type="line"/>
      <point x="933" y="1131" type="line"/>
      <point x="933" y="997" type="line"/>
      <point x="933" y="996" type="line"/>
      <point x="934" y="996" type="line"/>
      <point x="1209" y="996" type="line"/>
      <point x="1209" y="996" type="line"/>
      <point x="1209" y="997" type="line"/>
      <point x="1209" y="1410" type="line"/>
      <point x="1209" y="1411" type="line"/>
      <point x="1209" y="1411" type="line"/>
      <point x="101" y="1411" type="line"/>
      <point x="101" y="1407" type="line"/>
      <point x="101" y="1131" type="line"/>
      <point x="101" y="1131" type="line"/>
      <point x="101" y="1131" type="line"/>
      <point x="268" y="1131" type="line"/>
      <point x="268" y="1131" type="line"/>
      <point x="268" y="275" type="line"/>
      <point x="268" y="276" type="line"/>
      <point x="103" y="276" type="line"/>
      <point x="102" y="276" type="line"/>
      <point x="102" y="275" type="line"/>
      <point x="102" y="0" type="line"/>
      <point x="102" y="-1" type="line"/>
      <point x="103" y="-1" type="line"/>
      <point x="723" y="-1" type="line"/>
      <point x="723" y="-1" type="line"/>
      <point x="723" y="0" type="line"/>
      <point x="723" y="275" type="line"/>
      <point x="723" y="276" type="line"/>
      <point x="723" y="276" type="line"/>
      <point x="543" y="276" type="line"/>
      <point x="544" y="275" type="line"/>
      <point x="544" y="1131" type="line"/>
      <point x="543" y="1131" type="line"/>
    </contour>
  </outline>
</glyph>
<glyph name="uni0434" format="1">
  <advance width="1589"/>
  <unicode hex="0434"/>
  <outline>
    <contour>
      <point x="1272" y="273" type="line"/>
      <point x="1489" y="273" type="line"/>
      <point x="1489" y="-274" type="line"/>
      <point x="1214" y="-274" type="line"/>
      <point x="1214" y="-2" type="line"/>
      <point x="375" y="-2" type="line"/>
      <point x="375" y="-274" type="line"/>
      <point x="100" y="-274" type="line"/>
      <point x="100" y="-2" type="line"/>
      <point x="100" y="273" type="line"/>
      <point x="296" y="273" type="line"/>
      <point x="296" y="1132" type="line"/>
      <point x="433" y="1265" type="line"/>
      <point x="568" y="1396" type="line"/>
      <point x="568" y="1397" type="line"/>
      <point x="569" y="1397" type="line"/>
      <point x="571" y="1399" type="line"/>
      <point x="571" y="1397" type="line"/>
      <point x="1489" y="1397" type="line"/>
      <point x="1489" y="1122" type="line"/>
      <point x="1272" y="1122" type="line"/>
    </contour>
    <contour>
      <point x="997" y="273" type="line"/>
      <point x="997" y="1122" type="line"/>
      <point x="571" y="1122" type="line"/>
      <point x="571" y="273" type="line"/>
    </contour>
  </outline>
</glyph>
<glyph name="uni0438" format="1">
  <advance width="1460"/>
  <unicode hex="0438"/>
  <outline>
    <contour>
      <point x="800" y="0" type="line"/>
      <point x="1360" y="0" type="line"/>
      <point x="1360" y="280" type="line"/>
      <point x="1220" y="280" type="line"/>
      <point x="1220" y="1120" type="line"/>
      <point x="1360" y="1120" type="line"/>
      <point x="1360" y="1400" type="line"/>
      <point x="940" y="1400" type="line"/>
      <point x="520" y="600" type="line"/>
      <point x="520" y="1120" type="line"/>
      <point x="660" y="1120" type="line"/>
      <point x="660" y="1400" type="line"/>
      <point x="100" y="1400" type="line"/>
      <point x="100" y="1120" type="line"/>
      <point x="240" y="1120" type="line"/>
      <point x="240" y="0" type="line"/>
      <point x="520" y="0" type="line"/>
      <point x="940" y="800" type="line"/>
      <point x="940" y="280" type="line"/>
      <point x="800" y="280" type="line"/>
    </contour>
  </outline>
</glyph>
<glyph name="uni0449" format="1">
  <advance width="2485"/>
  <unicode hex="0449"/>
  <outline>
    <contour>
      <point x="1375" y="288" type="line"/>
      <point x="1235" y="288" type="line"/>
      <point x="1235" y="1128" type="line"/>
      <point x="1375" y="1128" type="line"/>
      <point x="1375" y="1408" type="line"/>
      <point x="835" y="1408" type="line"/>
      <point x="835" y="1128" type="line"/>
      <point x="955" y="1128" type="line"/>
      <point x="955" y="288" type="line"/>
      <point x="910" y="288" type="line"/>
      <point x="520" y="288" type="line"/>
      <point x="520" y="1128" type="line"/>
      <point x="640" y="1128" type="line"/>
      <point x="640" y="1408" type="line"/>
      <point x="100" y="1408" type="line"/>
      <point x="100" y="1128" type="line"/>
      <point x="240" y="1128" type="line"/>
      <point x="240" y="288" type="line"/>
      <point x="100" y="288" type="line"/>
      <point x="100" y="8" type="line"/>
      <point x="910" y="8" type="line"/>
      <point x="1375" y="8" type="line"/>
      <point x="2110" y="8" type="line"/>
      <point x="2110" y="288" type="line"/>
      <point x="1970" y="288" type="line"/>
      <point x="1970" y="1128" type="line"/>
      <point x="2110" y="1128" type="line"/>
      <point x="2110" y="1408" type="line"/>
      <point x="1570" y="1408" type="line"/>
      <point x="1570" y="1128" type="line"/>
      <point x="1690" y="1128" type="line"/>
      <point x="1690" y="288" type="line"/>
    </contour>
    <contour>
      <point x="2110" y="287" type="line"/>
      <point x="2385" y="287" type="line"/>
      <point x="2385" y="7" type="line"/>
      <point x="2248" y="-226" type="line"/>
      <point x="2110" y="-226" type="line"/>
    </contour>
  </outline>
</glyph>
<glyph name="uni044A" format="1">
  <advance width="1214"/>
  <unicode hex="044A"/>
  <outline>
    <contour>
      <point x="523" y="497" type="line"/>
      <point x="523" y="286" type="line"/>
      <point x="795" y="286" type="line"/>
      <point x="795" y="497" type="line"/>
    </contour>
    <contour>
      <point x="100" y="0" type="line"/>
      <point x="100" y="286" type="line"/>
      <point x="242" y="286" type="line"/>
      <point x="242" y="1131" type="line"/>
      <point x="100" y="1131" type="line"/>
      <point x="100" y="1406" type="line"/>
      <point x="523" y="1406" type="line"/>
      <point x="523" y="772" type="line"/>
      <point x="795" y="772" type="line"/>
      <point x="795" y="773" type="line"/>
      <point x="947" y="773" type="line"/>
      <point x="1114" y="673" type="line"/>
      <point x="1114" y="238" type="line"/>
      <point x="856" y="0" type="line"/>
    </contour>
  </outline>
</glyph>
<glyph name="uni045B" format="1">
  <advance width="1707"/>
  <unicode hex="045B"/>
  <outline>
    <contour>
      <point x="689" y="266" type="line"/>
      <point x="885" y="266" type="line"/>
      <point x="885" y="0" type="line"/>
      <point x="250" y="0" type="line"/>
      <point x="250" y="266" type="line"/>
      <point x="409" y="266" type="line"/>
      <point x="409" y="1137" type="line"/>
      <point x="100" y="1137" type="line"/>
      <point x="100" y="1403" type="line"/>
      <point x="1005" y="1403" type="line"/>
      <point x="1005" y="1137" type="line"/>
      <point x="689" y="1137" type="line"/>
      <point x="689" y="1136" type="line"/>
      <point x="689" y="898" type="line"/>
      <point x="1205" y="898" type="line"/>
      <point x="1429" y="674" type="line"/>
      <point x="1429" y="266" type="line"/>
      <point x="1607" y="266" type="line"/>
      <point x="1607" y="0" type="line"/>
      <point x="972" y="0" type="line"/>
      <point x="972" y="266" type="line"/>
      <point x="1149" y="266" type="line"/>
      <point x="1149" y="618" type="line"/>
      <point x="689" y="618" type="line"/>
    </contour>
  </outline>
</glyph>
<glyph name="uni0462" format="1">
  <advance width="1216"/>
  <unicode hex="0462"/>
  <outline>
    <contour>
      <point x="525" y="497" type="line"/>
      <point x="525" y="286" type="line"/>
      <point x="797" y="286" type="line"/>
      <point x="797" y="497" type="line"/>
    </contour>
    <contour>
      <point x="100" y="1058" type="line"/>
      <point x="100" y="1272" type="line"/>
      <point x="244" y="1272" type="line"/>
      <point x="244" y="1406" type="line"/>
      <point x="525" y="1406" type="line"/>
      <point x="525" y="1272" type="line"/>
      <point x="757" y="1272" type="line"/>
      <point x="757" y="1058" type="line"/>
      <point x="525" y="1058" type="line"/>
      <point x="525" y="772" type="line"/>
      <point x="797" y="772" type="line"/>
      <point x="797" y="773" type="line"/>
      <point x="949" y="773" type="line"/>
      <point x="1116" y="673" type="line"/>
      <point x="1116" y="238" type="line"/>
      <point x="858" y="0" type="line"/>
      <point x="102" y="0" type="line"/>
      <point x="102" y="286" type="line"/>
      <point x="244" y="286" type="line"/>
      <point x="244" y="1058" type="line"/>
    </contour>
  </outline>
</glyph>
<glyph name="uni0473" format="1">
  <advance width="1040"/>
  <unicode hex="0473"/>
  <outline>
    <contour>
      <point x="100" y="224" type="line"/>
      <point x="324" y="0" type="line"/>
      <point x="716" y="0" type="line"/>
      <point x="940" y="224" type="line"/>
      <point x="940" y="1176" type="line"/>
      <point x="716" y="1400" type="line"/>
      <point x="324" y="1400" type="line"/>
      <point x="100" y="1176" type="line"/>
    </contour>
    <contour>
      <point x="380" y="280" type="line"/>
      <point x="380" y="707" type="line"/>
      <point x="424" y="707" type="line"/>
      <point x="424" y="646" type="line"/>
      <point x="537" y="521" type="line"/>
      <point x="660" y="521" type="line"/>
      <point x="660" y="280" type="line"/>
    </contour>
    <contour>
      <point x="380" y="845" type="line"/>
      <point x="380" y="1120" type="line"/>
      <point x="660" y="1120" type="line"/>
      <point x="660" y="660" type="line"/>
      <point x="610" y="660" type="line"/>
      <point x="610" y="713" type="line"/>
      <point x="497" y="845" type="line"/>
    </contour>
  </outline>
</glyph>
<glyph name="uni0475" format="1">
  <advance width="1595"/>
  <unicode hex="0475"/>
  <outline>
    <contour>
      <point x="100" y="1120" type="line"/>
      <point x="240" y="1120" type="line"/>
      <point x="520" y="0" type="line"/>
      <point x="800" y="0" type="line"/>
      <point x="1080" y="1120" type="line"/>
      <point x="1220" y="1120" type="line"/>
      <point x="1220" y="1400" type="line"/>
      <point x="680" y="1400" type="line"/>
      <point x="680" y="1120" type="line"/>
      <point x="800" y="1120" type="line"/>
      <point x="660" y="560" type="line"/>
      <point x="520" y="1120" type="line"/>
      <point x="640" y="1120" type="line"/>
      <point x="640" y="1400" type="line"/>
      <point x="100" y="1400" type="line"/>
    </contour>
    <contour>
      <point x="1220" y="1400" type="line"/>
      <point x="1495" y="1400" type="line"/>
      <point x="1495" y="1120" type="line"/>
      <point x="1358" y="887" type="line"/>
      <point x="1220" y="887" type="line"/>
    </contour>
  </outline>
</glyph>
<glyph name="uni0492" format="1">
  <advance width="1309"/>
  <unicode hex="0492"/>
  <outline>
    <contour>
      <point x="101" y="1131" type="line"/>
      <point x="268" y="1131" type="line"/>
      <point x="268" y="791" type="line"/>
      <point x="103" y="791" type="line"/>
      <point x="103" y="525" type="line"/>
      <point x="268" y="525" type="line"/>
      <point x="268" y="276" type="line"/>
      <point x="102" y="276" type="line"/>
      <point x="102" y="-1" type="line"/>
      <point x="723" y="0" type="line"/>
      <point x="723" y="276" type="line"/>
      <point x="544" y="276" type="line"/>
      <point x="544" y="525" type="line"/>
      <point x="738" y="525" type="line"/>
      <point x="738" y="791" type="line"/>
      <point x="544" y="791" type="line"/>
      <point x="544" y="1131" type="line"/>
      <point x="933" y="1131" type="line"/>
      <point x="933" y="996" type="line"/>
      <point x="1209" y="996" type="line"/>
      <point x="1209" y="1411" type="line"/>
      <point x="101" y="1411" type="line"/>
    </contour>
  </outline>
</glyph>
<glyph name="uni0497" format="1">
  <advance width="2180"/>
  <unicode hex="0497"/>
  <outline>
    <contour>
      <point x="100" y="0" type="line"/>
      <point x="100" y="280" type="line"/>
      <point x="209" y="280" type="line"/>
      <point x="530" y="721" type="line"/>
      <point x="210" y="1116" type="line"/>
      <point x="100" y="1116" type="line"/>
      <point x="100" y="1396" type="line"/>
      <point x="640" y="1396" type="line"/>
      <point x="640" y="1116" type="line"/>
      <point x="511" y="1116" type="line"/>
      <point x="816" y="728" type="line"/>
      <point x="816" y="1114" type="line"/>
      <point x="684" y="1114" type="line"/>
      <point x="684" y="1394" type="line"/>
      <point x="1224" y="1394" type="line"/>
      <point x="1224" y="1114" type="line"/>
      <point x="1091" y="1114" type="line"/>
      <point x="1091" y="726" type="line"/>
      <point x="1398" y="1116" type="line"/>
      <point x="1270" y="1116" type="line"/>
      <point x="1270" y="1396" type="line"/>
      <point x="1810" y="1396" type="line"/>
      <point x="1810" y="1116" type="line"/>
      <point x="1696" y="1116" type="line"/>
      <point x="1385" y="730" type="line"/>
      <point x="1713" y="280" type="line"/>
      <point x="2080" y="280" type="line"/>
      <point x="2080" y="0" type="line"/>
      <point x="1943" y="-233" type="line"/>
      <point x="1805" y="-233" type="line"/>
      <point x="1805" y="0" type="line"/>
      <point x="1270" y="0" type="line"/>
      <point x="1270" y="280" type="line"/>
      <point x="1417" y="280" type="line"/>
      <point x="1225" y="531" type="line"/>
      <point x="1091" y="366" type="line"/>
      <point x="1091" y="280" type="line"/>
      <point x="1224" y="280" type="line"/>
      <point x="1224" y="0" type="line"/>
      <point x="684" y="0" type="line"/>
      <point x="684" y="280" type="line"/>
      <point x="816" y="280" type="line"/>
      <point x="816" y="368" type="line"/>
      <point x="691" y="522" type="line"/>
      <point x="505" y="280" type="line"/>
      <point x="640" y="280" type="line"/>
      <point x="640" y="0" type="line"/>
    </contour>
  </outline>
</glyph>
<glyph name="uni049B" format="1">
  <advance width="1592"/>
  <unicode hex="049B"/>
  <outline>
    <contour>
      <point x="1217" y="280" type="line"/>
      <point x="1217" y="-233" type="line"/>
      <point x="1355" y="-233" type="line"/>
      <point x="1492" y="0" type="line"/>
      <point x="1492" y="280" type="line"/>
    </contour>
    <component base="K"/>
  </outline>
</glyph>
<glyph name="uni049E" format="1">
  <advance width="1365"/>
  <unicode hex="049E"/>
  <outline>
    <contour>
      <point x="685" y="0" type="line"/>
      <point x="685" y="280" type="line"/>
      <point x="565" y="280" type="line"/>
      <point x="565" y="400" type="line"/>
      <point x="649" y="512" type="line"/>
      <point x="829" y="280" type="line"/>
      <point x="725" y="280" type="line"/>
      <point x="725" y="0" type="line"/>
      <point x="1265" y="0" type="line"/>
      <point x="1265" y="280" type="line"/>
      <point x="1153" y="280" type="line"/>
      <point x="829" y="704" type="line"/>
      <point x="1153" y="1120" type="line"/>
      <point x="1265" y="1120" type="line"/>
      <point x="1265" y="1400" type="line"/>
      <point x="725" y="1400" type="line"/>
      <point x="725" y="1120" type="line"/>
      <point x="845" y="1120" type="line"/>
      <point x="565" y="748" type="line"/>
      <point x="565" y="985" type="line"/>
      <point x="685" y="985" type="line"/>
      <point x="685" y="1265" type="line"/>
      <point x="560" y="1265" type="line"/>
      <point x="560" y="1400" type="line"/>
      <point x="269" y="1400" type="line"/>
      <point x="269" y="1265" type="line"/>
      <point x="100" y="1265" type="line"/>
      <point x="100" y="985" type="line"/>
      <point x="285" y="985" type="line"/>
      <point x="285" y="280" type="line"/>
      <point x="145" y="280" type="line"/>
      <point x="145" y="0" type="line"/>
    </contour>
  </outline>
</glyph>
<glyph name="uni04A9" format="1">
  <advance width="1744"/>
  <unicode hex="04A9"/>
  <outline>
    <contour>
      <point x="1335" y="801" type="line"/>
      <point x="1644" y="801" type="line"/>
      <point x="1644" y="496" type="line"/>
      <point x="1335" y="496" type="line"/>
      <point x="1335" y="277" type="line"/>
      <point x="1060" y="0" type="line"/>
      <point x="1060" y="2" type="line"/>
      <point x="1059" y="0" type="line"/>
      <point x="373" y="0" type="line"/>
      <point x="102" y="273" type="line"/>
      <point x="100" y="273" type="line"/>
      <point x="100" y="1400" type="line"/>
      <point x="375" y="1400" type="line"/>
      <point x="375" y="275" type="line"/>
      <point x="1060" y="275" type="line"/>
      <point x="1060" y="496" type="line"/>
      <point x="830" y="496" type="line"/>
      <point x="577" y="670" type="line"/>
      <point x="577" y="1011" type="line"/>
      <point x="850" y="1236" type="line"/>
      <point x="850" y="1238" type="line"/>
      <point x="1064" y="1238" type="line"/>
      <point x="1335" y="963" type="line"/>
      <point x="1333" y="1013" type="line"/>
      <point x="1335" y="962" type="line"/>
    </contour>
    <contour>
      <point x="1060" y="761" type="line"/>
      <point x="1060" y="923" type="line"/>
      <point x="852" y="923" type="line"/>
      <point x="852" y="760" type="line"/>
    </contour>
  </outline>
</glyph>
<glyph name="uni04AC" format="1">
  <advance width="1320"/>
  <unicode hex="04AC"/>
  <outline>
    <contour>
      <point x="937" y="280" type="line"/>
      <point x="937" y="-233" type="line"/>
      <point x="1075" y="-233" type="line"/>
      <point x="1212" y="0" type="line"/>
      <point x="1212" y="280" type="line"/>
    </contour>
    <component base="T"/>
  </outline>
</glyph>
<glyph name="uni04B0" format="1">
  <advance width="1320"/>
  <unicode hex="04B0"/>
  <outline>
    <contour>
      <point x="100" y="1120" type="line"/>
      <point x="240" y="1120" type="line"/>
      <point x="520" y="700" type="line"/>
      <point x="520" y="631" type="line"/>
      <point x="115" y="631" type="line"/>
      <point x="115" y="417" type="line"/>
      <point x="520" y="417" type="line"/>
      <point x="520" y="280" type="line"/>
      <point x="380" y="280" type="line"/>
      <point x="380" y="0" type="line"/>
      <point x="940" y="0" type="line"/>
      <point x="940" y="280" type="line"/>
      <point x="800" y="280" type="line"/>
      <point x="800" y="417" type="line"/>
      <point x="1176" y="417" type="line"/>
      <point x="1176" y="631" type="line"/>
      <point x="800" y="631" type="line"/>
      <point x="800" y="700" type="line"/>
      <point x="1080" y="1120" type="line"/>
      <point x="1220" y="1120" type="line"/>
      <point x="1220" y="1400" type="line"/>
      <point x="680" y="1400" type="line"/>
      <point x="680" y="1120" type="line"/>
      <point x="800" y="1120" type="line"/>
      <point x="660" y="910" type="line"/>
      <point x="520" y="1120" type="line"/>
      <point x="640" y="1120" type="line"/>
      <point x="640" y="1400" type="line"/>
      <point x="100" y="1400" type="line"/>
    </contour>
  </outline>
</glyph>
<glyph name="uni04B3" format="1">
  <advance width="1587"/>
  <unicode hex="04B3"/>
  <outline>
    <contour>
      <point x="1212" y="280" type="line"/>
      <point x="1212" y="-233" type="line"/>
      <point x="1350" y="-233" type="line"/>
      <point x="1487" y="0" type="line"/>
      <point x="1487" y="280" type="line"/>
    </contour>
    <component base="X"/>
  </outline>
</glyph>
<glyph name="uni04B5" format="1">
  <advance width="2230"/>
  <unicode hex="04B5"/>
  <outline>
    <contour>
      <point x="1390" y="3" type="line"/>
      <point x="1855" y="3" type="line"/>
      <point x="1855" y="283" type="line"/>
      <point x="1715" y="283" type="line"/>
      <point x="1715" y="1123" type="line"/>
      <point x="1855" y="1123" type="line"/>
      <point x="1855" y="1403" type="line"/>
      <point x="1315" y="1403" type="line"/>
      <point x="1315" y="1123" type="line"/>
      <point x="1435" y="1123" type="line"/>
      <point x="1435" y="283" type="line"/>
      <point x="1390" y="283" type="line"/>
      <point x="745" y="283" type="line"/>
      <point x="745" y="1123" type="line"/>
      <point x="1150" y="1123" type="line"/>
      <point x="1150" y="1403" type="line"/>
      <point x="100" y="1403" type="line"/>
      <point x="100" y="1123" type="line"/>
      <point x="465" y="1123" type="line"/>
      <point x="465" y="283" type="line"/>
      <point x="325" y="283" type="line"/>
      <point x="325" y="3" type="line"/>
    </contour>
    <contour>
      <point x="1855" y="283" type="line"/>
      <point x="2130" y="283" type="line"/>
      <point x="2130" y="3" type="line"/>
      <point x="1993" y="-230" type="line"/>
      <point x="1855" y="-230" type="line"/>
    </contour>
  </outline>
</glyph>
<glyph name="uni04B7" format="1">
  <advance width="1832"/>
  <unicode hex="04B7"/>
  <outline>
    <contour>
      <point x="1018" y="1137" type="line"/>
      <point x="822" y="1137" type="line"/>
      <point x="822" y="1403" type="line"/>
      <point x="1457" y="1403" type="line"/>
      <point x="1457" y="1137" type="line"/>
      <point x="1298" y="1137" type="line"/>
      <point x="1298" y="266" type="line"/>
      <point x="1457" y="266" type="line"/>
      <point x="1457" y="0" type="line"/>
      <point x="822" y="0" type="line"/>
      <point x="822" y="266" type="line"/>
      <point x="1018" y="266" type="line"/>
      <point x="1018" y="268" type="line"/>
      <point x="1018" y="415" type="line"/>
      <point x="502" y="415" type="line"/>
      <point x="278" y="639" type="line"/>
      <point x="278" y="1137" type="line"/>
      <point x="100" y="1137" type="line"/>
      <point x="100" y="1403" type="line"/>
      <point x="735" y="1403" type="line"/>
      <point x="735" y="1137" type="line"/>
      <point x="558" y="1137" type="line"/>
      <point x="558" y="695" type="line"/>
      <point x="1018" y="695" type="line"/>
    </contour>
    <contour>
      <point x="1457" y="266" type="line"/>
      <point x="1732" y="266" type="line"/>
      <point x="1732" y="-14" type="line"/>
      <point x="1595" y="-247" type="line"/>
      <point x="1457" y="-247" type="line"/>
    </contour>
  </outline>
</glyph>
<glyph name="uni04BA" format="1">
  <advance width="1557"/>
  <unicode hex="04BA"/>
  <outline>
    <contour>
      <point x="539" y="266" type="line"/>
      <point x="735" y="266" type="line"/>
      <point x="735" y="0" type="line"/>
      <point x="100" y="0" type="line"/>
      <point x="100" y="266" type="line"/>
      <point x="259" y="266" type="line"/>
      <point x="259" y="1137" type="line"/>
      <point x="100" y="1137" type="line"/>
      <point x="100" y="1403" type="line"/>
      <point x="735" y="1403" type="line"/>
      <point x="735" y="1137" type="line"/>
      <point x="539" y="1137" type="line"/>
      <point x="539" y="1135" type="line"/>
      <point x="539" y="988" type="line"/>
      <point x="1055" y="988" type="line"/>
      <point x="1279" y="764" type="line"/>
      <point x="1279" y="266" type="line"/>
      <point x="1457" y="266" type="line"/>
      <point x="1457" y="0" type="line"/>
      <point x="822" y="0" type="line"/>
      <point x="822" y="266" type="line"/>
      <point x="999" y="266" type="line"/>
      <point x="999" y="708" type="line"/>
      <point x="539" y="708" type="line"/>
    </contour>
  </outline>
</glyph>
<glyph name="uni04BC" format="1">
  <advance width="1660"/>
  <unicode hex="04BC"/>
  <outline>
    <contour>
      <point x="1282" y="839" type="line"/>
      <point x="1282" y="1120" type="line"/>
      <point x="1280" y="1120" type="line"/>
      <point x="820" y="1120" type="line"/>
      <point x="820" y="840" type="line"/>
    </contour>
    <contour>
      <point x="1560" y="1176" type="line"/>
      <point x="1560" y="560" type="line"/>
      <point x="820" y="560" type="line"/>
      <point x="820" y="280" type="line"/>
      <point x="1280" y="280" type="line"/>
      <point x="1560" y="280" type="line"/>
      <point x="1560" y="224" type="line"/>
      <point x="1336" y="0" type="line"/>
      <point x="764" y="0" type="line"/>
      <point x="540" y="224" type="line"/>
      <point x="540" y="561" type="line"/>
      <point x="270" y="561" type="line"/>
      <point x="100" y="700" type="line"/>
      <point x="100" y="836" type="line"/>
      <point x="540" y="836" type="line"/>
      <point x="540" y="1176" type="line"/>
      <point x="764" y="1400" type="line"/>
      <point x="1336" y="1400" type="line"/>
    </contour>
  </outline>
</glyph>
<glyph name="uni04CF" format="1">
  <advance width="480"/>
  <unicode hex="04CF"/>
  <outline>
    <contour>
      <point x="380" y="0" type="line"/>
      <point x="380" y="280" type="line"/>
      <point x="380" y="1120" type="line"/>
      <point x="380" y="1400" type="line"/>
      <point x="100" y="1400" type="line"/>
      <point x="100" y="1120" type="line"/>
      <point x="100" y="280" type="line"/>
      <point x="100" y="0" type="line"/>
    </contour>
  </outline>
</glyph>
<glyph name="uni04D9" format="1">
  <advance width="1220"/>
  <unicode hex="04D9"/>
  <outline>
    <contour>
      <point x="378" y="561" type="line"/>
      <point x="378" y="280" type="line"/>
      <point x="380" y="280" type="line"/>
      <point x="840" y="280" type="line"/>
      <point x="840" y="560" type="line"/>
    </contour>
    <contour>
      <point x="100" y="224" type="line"/>
      <point x="100" y="840" type="line"/>
      <point x="840" y="840" type="line"/>
      <point x="840" y="1120" type="line"/>
      <point x="380" y="1120" type="line"/>
      <point x="100" y="1120" type="line"/>
      <point x="100" y="1176" type="line"/>
      <point x="324" y="1400" type="line"/>
      <point x="896" y="1400" type="line"/>
      <point x="1120" y="1176" type="line"/>
      <point x="1120" y="224" type="line"/>
      <point x="896" y="0" type="line"/>
      <point x="324" y="0" type="line"/>
    </contour>
  </outline>
</glyph>
<glyph name="uni04E0" format="1">
  <advance width="1220"/>
  <unicode hex="04E0"/>
  <outline>
    <contour>
      <point x="249" y="1120" type="line"/>
      <point x="810" y="1120" type="line"/>
      <point x="580" y="557" type="line"/>
      <point x="840" y="557" type="line"/>
      <point x="840" y="280" type="line"/>
      <point x="380" y="280" type="line"/>
      <point x="380" y="420" type="line"/>
      <point x="100" y="420" type="line"/>
      <point x="100" y="224" type="line"/>
      <point x="324" y="0" type="line"/>
      <point x="896" y="0" type="line"/>
      <point x="1120" y="224" type="line"/>
      <point x="1120" y="661" type="line"/>
      <point x="1036" y="745" type="line"/>
      <point x="929" y="745" type="line"/>
      <point x="1120" y="1176" type="line"/>
      <point x="896" y="1400" type="line"/>
      <point x="249" y="1400" type="line"/>
    </contour>
  </outline>
</glyph>
<glyph name="uni04E9" format="1">
  <advance width="1310"/>
  <unicode hex="04E9"/>
  <outline>
    <contour>
      <point x="100" y="224" type="line"/>
      <point x="324" y="0" type="line"/>
      <point x="986" y="0" type="line"/>
      <point x="1210" y="224" type="line"/>
      <point x="1210" y="1176" type="line"/>
      <point x="986" y="1400" type="line"/>
      <point x="324" y="1400" type="line"/>
      <point x="100" y="1176" type="line"/>
    </contour>
    <contour>
      <point x="380" y="280" type="line"/>
      <point x="380" y="563" type="line"/>
      <point x="930" y="563" type="line"/>
      <point x="930" y="280" type="line"/>
    </contour>
    <contour>
      <point x="380" y="838" type="line"/>
      <point x="380" y="1120" type="line"/>
      <point x="930" y="1120" type="line"/>
      <point x="930" y="838" type="line"/>
    </contour>
  </outline>
</glyph>
<glyph name="uni051D" format="1">
  <advance width="1600"/>
  <unicode hex="051D"/>
  <outline>
    <contour>
      <point x="240" y="1120" type="line"/>
      <point x="380" y="280" type="line"/>
      <point x="240" y="280" type="line"/>
      <point x="240" y="0" type="line"/>
      <point x="780" y="0" type="line"/>
      <point x="780" y="280" type="line"/>
      <point x="660" y="280" type="line"/>
      <point x="800" y="560" type="line"/>
      <point x="940" y="280" type="line"/>
      <point x="820" y="280" type="line"/>
      <point x="820" y="0" type="line"/>
      <point x="1360" y="0" type="line"/>
      <point x="1360" y="280" type="line"/>
      <point x="1220" y="280" type="line"/>
      <point x="1360" y="1120" type="line"/>
      <point x="1500" y="1120" type="line"/>
      <point x="1500" y="1400" type="line"/>
      <point x="940" y="1400" type="line"/>
      <point x="940" y="1120" type="line"/>
      <point x="1080" y="1120" type="line"/>
      <point x="1008" y="700" type="line"/>
      <point x="800" y="1120" type="line"/>
      <point x="592" y="700" type="line"/>
      <point x="520" y="1120" type="line"/>
      <point x="660" y="1120" type="line"/>
      <point x="660" y="1400" type="line"/>
      <point x="100" y="1400" type="line"/>
      <point x="100" y="1120" type="line"/>
    </contour>
  </outline>
</glyph>
<glyph name="uni0524" format="1">
  <advance width="1827"/>
  <unicode hex="0524"/>
  <outline>
    <contour>
      <point x="910" y="1400" type="line"/>
      <point x="1450" y="1400" type="line"/>
      <point x="1450" y="1120" type="line"/>
      <point x="1310" y="1120" type="line"/>
      <point x="1310" y="280" type="line"/>
      <point x="1450" y="280" type="line"/>
      <point x="1450" y="0" type="line"/>
      <point x="910" y="0" type="line"/>
      <point x="910" y="280" type="line"/>
      <point x="1030" y="280" type="line"/>
      <point x="1030" y="1120" type="line"/>
      <point x="910" y="1120" type="line"/>
      <point x="520" y="1120" type="line"/>
      <point x="520" y="280" type="line"/>
      <point x="640" y="280" type="line"/>
      <point x="640" y="0" type="line"/>
      <point x="100" y="0" type="line"/>
      <point x="100" y="280" type="line"/>
      <point x="240" y="280" type="line"/>
      <point x="240" y="1120" type="line"/>
      <point x="100" y="1120" type="line"/>
      <point x="100" y="1400" type="line"/>
    </contour>
    <contour>
      <point x="1452" y="280" type="line"/>
      <point x="1452" y="-233" type="line"/>
      <point x="1590" y="-233" type="line"/>
      <point x="1727" y="0" type="line"/>
      <point x="1727" y="280" type="line"/>
    </contour>
  </outline>
</glyph>
<glyph name="uni05B0" format="1">
  <advance width="600"/>
  <unicode hex="05B0"/>
  <outline>
    <contour>
      <point x="822" y="-110" type="line"/>
      <point x="822" y="-330" type="line"/>
      <point x="1042" y="-330" type="line"/>
      <point x="1042" y="-110" type="line"/>
    </contour>
    <contour>
      <point x="822" y="-422" type="line"/>
      <point x="822" y="-642" type="line"/>
      <point x="1042" y="-642" type="line"/>
      <point x="1042" y="-422" type="line"/>
    </contour>
  </outline>
</glyph>
<glyph name="uni05B1" format="1">
  <advance width="600"/>
  <unicode hex="05B1"/>
  <outline>
    <contour>
      <point x="560" y="-128" type="line"/>
      <point x="560" y="-348" type="line"/>
      <point x="780" y="-348" type="line"/>
      <point x="780" y="-128" type="line"/>
    </contour>
    <contour>
      <point x="880" y="-128" type="line"/>
      <point x="880" y="-348" type="line"/>
      <point x="1100" y="-348" type="line"/>
      <point x="1100" y="-128" type="line"/>
    </contour>
    <contour>
      <point x="1200" y="-128" type="line"/>
      <point x="1200" y="-348" type="line"/>
      <point x="1420" y="-348" type="line"/>
      <point x="1420" y="-128" type="line"/>
    </contour>
    <contour>
      <point x="721" y="-450" type="line"/>
      <point x="721" y="-670" type="line"/>
      <point x="941" y="-670" type="line"/>
      <point x="941" y="-450" type="line"/>
    </contour>
    <contour>
      <point x="1051" y="-450" type="line"/>
      <point x="1051" y="-670" type="line"/>
      <point x="1271" y="-670" type="line"/>
      <point x="1271" y="-450" type="line"/>
    </contour>
  </outline>
</glyph>
<glyph name="uni05B2" format="1">
  <advance width="600"/>
  <unicode hex="05B2"/>
  <outline>
    <contour>
      <point x="1050" y="-187" type="line"/>
      <point x="1050" y="-407" type="line"/>
      <point x="1270" y="-407" type="line"/>
      <point x="1270" y="-187" type="line"/>
    </contour>
    <contour>
      <point x="1050" y="-514" type="line"/>
      <point x="1050" y="-734" type="line"/>
      <point x="1270" y="-734" type="line"/>
      <point x="1270" y="-514" type="line"/>
    </contour>
    <contour>
      <point x="599" y="-187" type="line"/>
      <point x="599" y="-407" type="line"/>
      <point x="949" y="-407" type="line"/>
      <point x="949" y="-187" type="line"/>
    </contour>
  </outline>
</glyph>
<glyph name="uni05B3" format="1">
  <advance width="600"/>
  <unicode hex="05B3"/>
  <outline>
    <contour>
      <point x="655" y="-296" type="line"/>
      <point x="816" y="-296" type="line"/>
      <point x="816" y="-420" type="line"/>
      <point x="971" y="-420" type="line"/>
      <point x="971" y="-296" type="line"/>
      <point x="1132" y="-296" type="line"/>
      <point x="1132" y="-120" type="line"/>
      <point x="655" y="-120" type="line"/>
    </contour>
    <contour>
      <point x="1218" y="-119" type="line"/>
      <point x="1218" y="-339" type="line"/>
      <point x="1438" y="-339" type="line"/>
      <point x="1438" y="-119" type="line"/>
    </contour>
    <contour>
      <point x="1218" y="-431" type="line"/>
      <point x="1218" y="-651" type="line"/>
      <point x="1438" y="-651" type="line"/>
      <point x="1438" y="-431" type="line"/>
    </contour>
  </outline>
</glyph>
<glyph name="uni05B4" format="1">
  <advance width="600"/>
  <unicode hex="05B4"/>
  <outline>
    <contour>
      <point x="812" y="-118" type="line"/>
      <point x="812" y="-348" type="line"/>
      <point x="1042" y="-348" type="line"/>
      <point x="1042" y="-118" type="line"/>
    </contour>
  </outline>
</glyph>
<glyph name="uni05B5" format="1">
  <advance width="600"/>
  <unicode hex="05B5"/>
  <outline>
    <contour>
      <point x="749" y="-128" type="line"/>
      <point x="749" y="-348" type="line"/>
      <point x="969" y="-348" type="line"/>
      <point x="969" y="-128" type="line"/>
    </contour>
    <contour>
      <point x="1069" y="-128" type="line"/>
      <point x="1069" y="-348" type="line"/>
      <point x="1289" y="-348" type="line"/>
      <point x="1289" y="-128" type="line"/>
    </contour>
  </outline>
</glyph>
<glyph name="uni05B6" format="1">
  <advance width="600"/>
  <unicode hex="05B6"/>
  <outline>
    <contour>
      <point x="751" y="-128" type="line"/>
      <point x="751" y="-348" type="line"/>
      <point x="971" y="-348" type="line"/>
      <point x="971" y="-128" type="line"/>
    </contour>
    <contour>
      <point x="1071" y="-128" type="line"/>
      <point x="1071" y="-348" type="line"/>
      <point x="1291" y="-348" type="line"/>
      <point x="1291" y="-128" type="line"/>
    </contour>
    <contour>
      <point x="921" y="-434" type="line"/>
      <point x="921" y="-654" type="line"/>
      <point x="1141" y="-654" type="line"/>
      <point x="1141" y="-434" type="line"/>
    </contour>
  </outline>
</glyph>
<glyph name="uni05B7" format="1">
  <advance width="600"/>
  <unicode hex="05B7"/>
  <outline>
    <contour>
      <point x="708" y="-120" type="line"/>
      <point x="708" y="-296" type="line"/>
      <point x="1185" y="-296" type="line"/>
      <point x="1185" y="-120" type="line"/>
    </contour>
  </outline>
</glyph>
<glyph name="uni05B8" format="1">
  <advance width="600"/>
  <unicode hex="05B8"/>
  <outline>
    <contour>
      <point x="708" y="-296" type="line"/>
      <point x="869" y="-296" type="line"/>
      <point x="869" y="-420" type="line"/>
      <point x="1024" y="-420" type="line"/>
      <point x="1024" y="-296" type="line"/>
      <point x="1185" y="-296" type="line"/>
      <point x="1185" y="-120" type="line"/>
      <point x="708" y="-120" type="line"/>
    </contour>
  </outline>
</glyph>
<glyph name="uni05B9" format="1">
  <advance width="600"/>
  <unicode hex="05B9"/>
  <outline>
    <contour>
      <point x="261" y="1568" type="line"/>
      <point x="261" y="1344" type="line"/>
      <point x="490" y="1344" type="line"/>
      <point x="490" y="1568" type="line"/>
    </contour>
  </outline>
</glyph>
<glyph name="uni05BA" format="1">
  <advance width="600"/>
  <unicode hex="05BA"/>
  <outline>
    <contour>
      <point x="204" y="1575" type="line"/>
      <point x="204" y="1345" type="line"/>
      <point x="408" y="1345" type="line"/>
      <point x="408" y="1575" type="line"/>
    </contour>
  </outline>
</glyph>
<glyph name="uni05BB" format="1">
  <advance width="600"/>
  <unicode hex="05BB"/>
  <outline>
    <contour>
      <point x="550" y="-132" type="line"/>
      <point x="550" y="-332" type="line"/>
      <point x="750" y="-332" type="line"/>
      <point x="750" y="-132" type="line"/>
    </contour>
    <contour>
      <point x="688" y="-406" type="line"/>
      <point x="688" y="-606" type="line"/>
      <point x="888" y="-606" type="line"/>
      <point x="888" y="-406" type="line"/>
    </contour>
    <contour>
      <point x="820" y="-674" type="line"/>
      <point x="820" y="-874" type="line"/>
      <point x="1020" y="-874" type="line"/>
      <point x="1020" y="-674" type="line"/>
    </contour>
  </outline>
</glyph>
<glyph name="uni05BC" format="1">
  <advance width="600"/>
  <unicode hex="05BC"/>
  <outline>
    <contour>
      <point x="747" y="757" type="line"/>
      <point x="747" y="547" type="line"/>
      <point x="957" y="547" type="line"/>
      <point x="957" y="757" type="line"/>
    </contour>
  </outline>
</glyph>
<glyph name="uni05BE" format="1">
  <advance width="630"/>
  <unicode hex="05BE"/>
  <outline>
    <contour>
      <point x="0" y="1232" type="line"/>
      <point x="0" y="1010" type="line"/>
      <point x="630" y="1010" type="line"/>
      <point x="630" y="1232" type="line"/>
    </contour>
  </outline>
</glyph>
<glyph name="uni05C1" format="1">
  <advance width="600"/>
  <unicode hex="05C1"/>
  <outline>
    <contour>
      <point x="274" y="1575" type="line"/>
      <point x="274" y="1345" type="line"/>
      <point x="478" y="1345" type="line"/>
      <point x="478" y="1575" type="line"/>
    </contour>
  </outline>
</glyph>
<glyph name="uni05C2" format="1">
  <advance width="600"/>
  <unicode hex="05C2"/>
  <outline>
    <contour>
      <point x="280" y="1544" type="line"/>
      <point x="280" y="1344" type="line"/>
      <point x="480" y="1344" type="line"/>
      <point x="480" y="1544" type="line"/>
    </contour>
  </outline>
</glyph>
<glyph name="uni05C7" format="1">
  <advance width="600"/>
  <unicode hex="05C7"/>
  <outline>
    <contour>
      <point x="172" y="-126" type="line"/>
      <point x="172" y="-306" type="line"/>
      <point x="632" y="-306" type="line"/>
      <point x="632" y="-126" type="line"/>
    </contour>
    <contour>
      <point x="312" y="-251" type="line"/>
      <point x="312" y="-651" type="line"/>
      <point x="492" y="-651" type="line"/>
      <point x="492" y="-251" type="line"/>
    </contour>
  </outline>
</glyph>
<glyph name="uni05D0" format="1">
  <advance width="1325"/>
  <unicode hex="05D0"/>
  <outline>
    <contour>
      <point x="1225" y="706" type="line"/>
      <point x="945" y="431" type="line"/>
      <point x="1160" y="0" type="line"/>
      <point x="885" y="0" type="line"/>
      <point x="528" y="701" type="line"/>
      <point x="375" y="701" type="line"/>
      <point x="375" y="0" type="line"/>
      <point x="100" y="0" type="line"/>
      <point x="100" y="706" type="line"/>
      <point x="106" y="706" type="line"/>
      <point x="387" y="976" type="line"/>
      <point x="171" y="1400" type="line"/>
      <point x="446" y="1400" type="line"/>
      <point x="800" y="706" type="line"/>
      <point x="944" y="706" type="line"/>
      <point x="944" y="1400" type="line"/>
      <point x="1219" y="1400" type="line"/>
      <point x="1219" y="706" type="line"/>
    </contour>
  </outline>
</glyph>
<glyph name="uni05D1" format="1">
  <advance width="1444"/>
  <unicode hex="05D1"/>
  <outline>
    <contour>
      <point x="820" y="1389" type="line"/>
      <point x="1089" y="1119" type="line"/>
      <point x="1089" y="275" type="line"/>
      <point x="1344" y="275" type="line"/>
      <point x="1344" y="0" type="line"/>
      <point x="100" y="0" type="line"/>
      <point x="100" y="275" type="line"/>
      <point x="814" y="275" type="line"/>
      <point x="814" y="1120" type="line"/>
      <point x="105" y="1120" type="line"/>
      <point x="383" y="1395" type="line"/>
      <point x="820" y="1395" type="line"/>
    </contour>
  </outline>
</glyph>
<glyph name="uni05D2" format="1">
  <advance width="1193"/>
  <unicode hex="05D2"/>
  <outline>
    <contour>
      <point x="818" y="1118" type="line"/>
      <point x="100" y="1118" type="line"/>
      <point x="378" y="1393" type="line"/>
      <point x="824" y="1393" type="line"/>
      <point x="824" y="1387" type="line"/>
      <point x="1093" y="1117" type="line"/>
      <point x="1093" y="0" type="line"/>
      <point x="818" y="0" type="line"/>
      <point x="818" y="415" type="line"/>
      <point x="379" y="415" type="line"/>
      <point x="379" y="0" type="line"/>
      <point x="104" y="0" type="line"/>
      <point x="104" y="419" type="line"/>
      <point x="379" y="690" type="line"/>
      <point x="818" y="690" type="line"/>
    </contour>
  </outline>
</glyph>
<glyph name="uni05D5" format="1">
  <advance width="475"/>
  <unicode hex="05D5"/>
  <outline>
    <contour>
      <point x="100" y="1400" type="line"/>
      <point x="375" y="1400" type="line"/>
      <point x="375" y="0" type="line"/>
      <point x="100" y="0" type="line"/>
    </contour>
  </outline>
</glyph>
<glyph name="uni05D6" format="1">
  <advance width="1155"/>
  <unicode hex="05D6"/>
  <outline>
    <contour>
      <point x="1055" y="1126" type="line"/>
      <point x="1055" y="851" type="line"/>
      <point x="853" y="851" type="line"/>
      <point x="853" y="0" type="line"/>
      <point x="578" y="0" type="line"/>
      <point x="578" y="853" type="line"/>
      <point x="580" y="853" type="line"/>
      <point x="840" y="1125" type="line"/>
      <point x="100" y="1125" type="line"/>
      <point x="100" y="1400" type="line"/>
      <point x="1055" y="1400" type="line"/>
    </contour>
  </outline>
</glyph>
<glyph name="uni05D7" format="1">
  <advance width="1192"/>
  <unicode hex="05D7"/>
  <outline>
    <contour>
      <point x="100" y="1120" type="line"/>
      <point x="100" y="1395" type="line"/>
      <point x="822" y="1395" type="line"/>
      <point x="1089" y="1123" type="line"/>
      <point x="1092" y="1123" type="line"/>
      <point x="1092" y="0" type="line"/>
      <point x="817" y="0" type="line"/>
      <point x="817" y="1120" type="line"/>
      <point x="375" y="1120" type="line"/>
      <point x="375" y="0" type="line"/>
      <point x="100" y="0" type="line"/>
    </contour>
  </outline>
</glyph>
<glyph name="uni05D8" format="1">
  <advance width="1372"/>
  <unicode hex="05D8"/>
  <outline>
    <contour>
      <point x="991" y="1120" type="line"/>
      <point x="618" y="1120" type="line"/>
      <point x="618" y="1395" type="line"/>
      <point x="1266" y="1395" type="line"/>
      <point x="1266" y="275" type="line"/>
      <point x="1272" y="275" type="line"/>
      <point x="1002" y="0" type="line"/>
      <point x="365" y="0" type="line"/>
      <point x="103" y="272" type="line"/>
      <point x="100" y="272" type="line"/>
      <point x="100" y="1395" type="line"/>
      <point x="375" y="1395" type="line"/>
      <point x="375" y="275" type="line"/>
      <point x="991" y="275" type="line"/>
    </contour>
  </outline>
</glyph>
<glyph name="uni05D9" format="1">
  <advance width="475"/>
  <unicode hex="05D9"/>
  <outline>
    <contour>
      <point x="100" y="1382" type="line"/>
      <point x="375" y="1382" type="line"/>
      <point x="375" y="679" type="line"/>
      <point x="100" y="679" type="line"/>
    </contour>
  </outline>
</glyph>
<glyph name="uni05DA" format="1">
  <advance width="1192"/>
  <unicode hex="05DA"/>
  <outline>
    <contour>
      <point x="1089" y="1123" type="line"/>
      <point x="1092" y="1123" type="line"/>
      <point x="1092" y="0" type="line"/>
      <point x="817" y="0" type="line"/>
      <point x="817" y="1120" type="line"/>
      <point x="100" y="1120" type="line"/>
      <point x="100" y="1395" type="line"/>
      <point x="822" y="1395" type="line"/>
    </contour>
  </outline>
</glyph>
<glyph name="uni05DB" format="1">
  <advance width="936"/>
  <unicode hex="05DB"/>
  <outline>
    <contour>
      <point x="100" y="0" type="line"/>
      <point x="612" y="0" type="line"/>
      <point x="836" y="224" type="line"/>
      <point x="836" y="1176" type="line"/>
      <point x="612" y="1400" type="line"/>
      <point x="100" y="1400" type="line"/>
      <point x="156" y="1120" type="line"/>
      <point x="556" y="1120" type="line"/>
      <point x="556" y="280" type="line"/>
      <point x="156" y="280" type="line"/>
    </contour>
  </outline>
</glyph>
<glyph name="uni05DC" format="1">
  <advance width="1014"/>
  <unicode hex="05DC"/>
  <outline>
    <contour>
      <point x="914" y="733" type="line"/>
      <point x="686" y="393" type="line"/>
      <point x="686" y="0" type="line"/>
      <point x="411" y="0" type="line"/>
      <point x="412" y="395" type="line"/>
      <point x="618" y="733" type="line"/>
      <point x="100" y="733" type="line"/>
      <point x="100" y="1005" type="line"/>
      <point x="100" y="1400" type="line"/>
      <point x="375" y="1400" type="line"/>
      <point x="375" y="1008" type="line"/>
      <point x="914" y="1008" type="line"/>
    </contour>
  </outline>
</glyph>
<glyph name="uni05DD" format="1">
  <advance width="1289"/>
  <unicode hex="05DD"/>
  <outline>
    <contour>
      <point x="1185" y="911" type="line"/>
      <point x="1189" y="0" type="line"/>
      <point x="100" y="0" type="line"/>
      <point x="100" y="1400" type="line"/>
      <point x="922" y="1400" type="line"/>
      <point x="1183" y="920" type="line"/>
      <point x="1185" y="920" type="line"/>
      <point x="1185" y="917" type="line"/>
      <point x="1189" y="911" type="line"/>
    </contour>
    <contour>
      <point x="910" y="275" type="line"/>
      <point x="910" y="914" type="line"/>
      <point x="787" y="1125" type="line"/>
      <point x="375" y="1125" type="line"/>
      <point x="375" y="275" type="line"/>
    </contour>
  </outline>
</glyph>
<glyph name="uni05DE" format="1">
  <advance width="1636"/>
  <unicode hex="05DE"/>
  <outline>
    <contour>
      <point x="551" y="1063" type="line"/>
      <point x="638" y="1400" type="line"/>
      <point x="1263" y="1403" type="line"/>
      <point x="1534" y="993" type="line"/>
      <point x="1536" y="993" type="line"/>
      <point x="1536" y="5" type="line"/>
      <point x="1261" y="5" type="line"/>
      <point x="739" y="5" type="line"/>
      <point x="739" y="280" type="line"/>
      <point x="1261" y="280" type="line"/>
      <point x="1261" y="987" type="line"/>
      <point x="1158" y="1128" type="line"/>
      <point x="841" y="1128" type="line"/>
      <point x="570" y="0" type="line"/>
      <point x="295" y="0" type="line"/>
      <point x="464" y="703" type="line"/>
      <point x="100" y="1400" type="line"/>
      <point x="375" y="1400" type="line"/>
    </contour>
  </outline>
</glyph>
<glyph name="uni05DF" format="1">
  <advance width="475"/>
  <unicode hex="05DF"/>
  <outline>
    <contour>
      <point x="100" y="1400" type="line"/>
      <point x="375" y="1400" type="line"/>
      <point x="375" y="-260" type="line"/>
      <point x="100" y="-260" type="line"/>
    </contour>
  </outline>
</glyph>
<glyph name="uni05E0" format="1">
  <advance width="1053"/>
  <unicode hex="05E0"/>
  <outline>
    <contour>
      <point x="684" y="1387" type="line"/>
      <point x="953" y="1117" type="line"/>
      <point x="953" y="275" type="line"/>
      <point x="953" y="0" type="line"/>
      <point x="100" y="0" type="line"/>
      <point x="100" y="275" type="line"/>
      <point x="678" y="275" type="line"/>
      <point x="678" y="1118" type="line"/>
      <point x="104" y="1118" type="line"/>
      <point x="382" y="1393" type="line"/>
      <point x="684" y="1393" type="line"/>
    </contour>
  </outline>
</glyph>
<glyph name="uni05E1" format="1">
  <advance width="1180"/>
  <unicode hex="05E1"/>
  <outline>
    <contour>
      <point x="856" y="0" type="line"/>
      <point x="1080" y="224" type="line"/>
      <point x="1080" y="1176" type="line"/>
      <point x="856" y="1400" type="line"/>
      <point x="324" y="1400" type="line"/>
      <point x="100" y="1176" type="line"/>
      <point x="100" y="224" type="line"/>
      <point x="324" y="0" type="line"/>
    </contour>
    <contour>
      <point x="380" y="1120" type="line"/>
      <point x="800" y="1120" type="line"/>
      <point x="800" y="280" type="line"/>
      <point x="380" y="280" type="line"/>
    </contour>
  </outline>
</glyph>
<glyph name="uni05E2" format="1">
  <advance width="1405"/>
  <unicode hex="05E2"/>
  <outline>
    <contour>
      <point x="1305" y="361" type="line"/>
      <point x="185" y="0" type="line"/>
      <point x="100" y="261" type="line"/>
      <point x="479" y="385" type="line"/>
      <point x="236" y="1411" type="line"/>
      <point x="506" y="1411" type="line"/>
      <point x="740" y="470" type="line"/>
      <point x="1019" y="560" type="line"/>
      <point x="1019" y="1406" type="line"/>
      <point x="1294" y="1406" type="line"/>
    </contour>
  </outline>
</glyph>
<glyph name="uni05E3" format="1">
  <advance width="1192"/>
  <unicode hex="05E3"/>
  <outline>
    <contour>
      <point x="375" y="699" type="line"/>
      <point x="650" y="699" type="line"/>
      <point x="650" y="424" type="line"/>
      <point x="375" y="424" type="line"/>
      <point x="100" y="700" type="line"/>
      <point x="100" y="1120" type="line"/>
      <point x="100" y="1395" type="line"/>
      <point x="822" y="1395" type="line"/>
      <point x="1089" y="1123" type="line"/>
      <point x="1092" y="0" type="line"/>
      <point x="817" y="0" type="line"/>
      <point x="817" y="1120" type="line"/>
      <point x="375" y="1120" type="line"/>
    </contour>
  </outline>
</glyph>
<glyph name="uni05E4" format="1">
  <advance width="1192"/>
  <unicode hex="05E4"/>
  <outline>
    <contour>
      <point x="375" y="883" type="line"/>
      <point x="650" y="883" type="line"/>
      <point x="650" y="608" type="line"/>
      <point x="375" y="608" type="line"/>
      <point x="100" y="871" type="line"/>
      <point x="100" y="1120" type="line"/>
      <point x="100" y="1395" type="line"/>
      <point x="822" y="1395" type="line"/>
      <point x="1089" y="1123" type="line"/>
      <point x="1092" y="1123" type="line"/>
      <point x="1092" y="273" type="line"/>
      <point x="1090" y="273" type="line"/>
      <point x="822" y="0" type="line"/>
      <point x="505" y="0" type="line"/>
      <point x="235" y="275" type="line"/>
      <point x="817" y="275" type="line"/>
      <point x="817" y="1120" type="line"/>
      <point x="375" y="1120" type="line"/>
    </contour>
  </outline>
</glyph>
<glyph name="uni05E5" format="1">
  <advance width="1127"/>
  <unicode hex="05E5"/>
  <outline>
    <contour>
      <point x="678" y="671" type="line"/>
      <point x="678" y="0" type="line"/>
      <point x="403" y="0" type="line"/>
      <point x="402" y="670" type="line"/>
      <point x="100" y="1400" type="line"/>
      <point x="375" y="1400" type="line"/>
      <point x="581" y="901" type="line"/>
      <point x="748" y="1122" type="line"/>
      <point x="749" y="1400" type="line"/>
      <point x="1024" y="1400" type="line"/>
      <point x="1024" y="1122" type="line"/>
    </contour>
  </outline>
</glyph>
<glyph name="uni05E6" format="1">
  <advance width="1354"/>
  <unicode hex="05E6"/>
  <outline>
    <contour>
      <point x="975" y="1130" type="line"/>
      <point x="975" y="1400" type="line"/>
      <point x="1250" y="1400" type="line"/>
      <point x="1250" y="1130" type="line"/>
      <point x="953" y="693" type="line"/>
      <point x="1249" y="275" type="line"/>
      <point x="1254" y="0" type="line"/>
      <point x="100" y="0" type="line"/>
      <point x="100" y="275" type="line"/>
      <point x="909" y="275" type="line"/>
      <point x="102" y="1400" type="line"/>
      <point x="453" y="1400" type="line"/>
      <point x="813" y="892" type="line"/>
    </contour>
  </outline>
</glyph>
<glyph name="uni05E7" format="1">
  <advance width="1304"/>
  <unicode hex="05E7"/>
  <outline>
    <contour>
      <point x="892" y="1135" type="line"/>
      <point x="100" y="1135" type="line"/>
      <point x="100" y="1410" type="line"/>
      <point x="1204" y="1410" type="line"/>
      <point x="1204" y="1135" type="line"/>
      <point x="976" y="704" type="line"/>
      <point x="976" y="0" type="line"/>
      <point x="701" y="0" type="line"/>
      <point x="701" y="704" type="line"/>
    </contour>
    <contour>
      <point x="100" y="780" type="line"/>
      <point x="375" y="780" type="line"/>
      <point x="375" y="0" type="line"/>
      <point x="100" y="0" type="line"/>
    </contour>
  </outline>
</glyph>
<glyph name="uni05E8" format="1">
  <advance width="1102"/>
  <unicode hex="05E8"/>
  <outline>
    <contour>
      <point x="999" y="1123" type="line"/>
      <point x="1002" y="1123" type="line"/>
      <point x="1002" y="350" type="line"/>
      <point x="727" y="350" type="line"/>
      <point x="727" y="1120" type="line"/>
      <point x="100" y="1120" type="line"/>
      <point x="100" y="1395" type="line"/>
      <point x="732" y="1395" type="line"/>
    </contour>
  </outline>
</glyph>
<glyph name="uni05E9" format="1">
  <advance width="1578"/>
  <unicode hex="05E9"/>
  <outline>
    <contour>
      <point x="1203" y="497" type="line"/>
      <point x="1203" y="1400" type="line"/>
      <point x="1478" y="1400" type="line"/>
      <point x="1478" y="497" type="line"/>
      <point x="1478" y="273" type="line"/>
      <point x="1203" y="0" type="line"/>
      <point x="375" y="0" type="line"/>
      <point x="100" y="273" type="line"/>
      <point x="100" y="497" type="line"/>
      <point x="100" y="1400" type="line"/>
      <point x="375" y="1400" type="line"/>
      <point x="375" y="799" type="line"/>
      <point x="674" y="958" type="line"/>
      <point x="674" y="1394" type="line"/>
      <point x="949" y="1394" type="line"/>
      <point x="949" y="794" type="line"/>
      <point x="375" y="490" type="line"/>
      <point x="375" y="275" type="line"/>
      <point x="1203" y="275" type="line"/>
    </contour>
  </outline>
</glyph>
<glyph name="uni05EA" format="1">
  <advance width="1192"/>
  <unicode hex="05EA"/>
  <outline>
    <contour>
      <point x="555" y="276" type="line"/>
      <point x="289" y="1" type="line"/>
      <point x="100" y="1" type="line"/>
      <point x="100" y="276" type="line"/>
      <point x="280" y="276" type="line"/>
      <point x="280" y="1120" type="line"/>
      <point x="100" y="1120" type="line"/>
      <point x="100" y="1395" type="line"/>
      <point x="822" y="1395" type="line"/>
      <point x="1089" y="1123" type="line"/>
      <point x="1092" y="0" type="line"/>
      <point x="817" y="0" type="line"/>
      <point x="817" y="1120" type="line"/>
      <point x="555" y="1120" type="line"/>
    </contour>
  </outline>
</glyph>
<glyph name="uni10D0" format="1">
  <advance width="1165"/>
  <unicode hex="10D0"/>
  <outline>
    <contour>
      <point x="375" y="275" type="line"/>
      <point x="790" y="275" type="line"/>
      <point x="790" y="721" type="line"/>
      <point x="584" y="721" type="line"/>
      <point x="308" y="996" type="line"/>
      <point x="308" y="1400" type="line"/>
      <point x="583" y="1400" type="line"/>
      <point x="583" y="996" type="line"/>
      <point x="791" y="997" type="line"/>
      <point x="1065" y="730" type="line"/>
      <point x="1065" y="277" type="line"/>
      <point x="796" y="0" type="line"/>
      <point x="378" y="0" type="line"/>
      <point x="100" y="275" type="line"/>
      <point x="100" y="566" type="line"/>
      <point x="375" y="566" type="line"/>
    </contour>
  </outline>
</glyph>
<glyph name="uni10D1" format="1">
  <advance width="1040"/>
  <unicode hex="10D1"/>
  <outline>
    <contour>
      <point x="380" y="712" type="line"/>
      <point x="660" y="712" type="line"/>
      <point x="660" y="280" type="line"/>
      <point x="380" y="280" type="line"/>
    </contour>
    <contour>
      <point x="100" y="224" type="line"/>
      <point x="324" y="0" type="line"/>
      <point x="716" y="0" type="line"/>
      <point x="940" y="224" type="line"/>
      <point x="940" y="768" type="line"/>
      <point x="716" y="992" type="line"/>
      <point x="324" y="992" type="line"/>
      <point x="100" y="768" type="line"/>
    </contour>
    <contour>
      <point x="226" y="1400" type="line"/>
      <point x="519" y="1400" type="line"/>
      <point x="653" y="1217" type="line"/>
      <point x="653" y="992" type="line"/>
      <point x="382" y="992" type="line"/>
      <point x="382" y="1208" type="line"/>
    </contour>
  </outline>
</glyph>
<glyph name="uni10D3" format="1">
  <advance width="1091"/>
  <unicode hex="10D3"/>
  <outline>
    <contour>
      <point x="374" y="1" type="line"/>
      <point x="100" y="273" type="line"/>
      <point x="100" y="731" type="line"/>
      <point x="100" y="1179" type="line"/>
      <point x="324" y="1403" type="line"/>
      <point x="767" y="1403" type="line"/>
      <point x="991" y="1179" type="line"/>
      <point x="991" y="731" type="line"/>
      <point x="767" y="507" type="line"/>
      <point x="375" y="507" type="line"/>
      <point x="375" y="276" type="line"/>
      <point x="991" y="276" type="line"/>
      <point x="991" y="1" type="line"/>
    </contour>
    <contour>
      <point x="380" y="1123" type="line"/>
      <point x="380" y="787" type="line"/>
      <point x="711" y="787" type="line"/>
      <point x="711" y="1123" type="line"/>
    </contour>
  </outline>
</glyph>
<glyph name="uni10D5" format="1">
  <advance width="1220"/>
  <unicode hex="10D5"/>
  <outline>
    <contour>
      <point x="380" y="980" type="line"/>
      <point x="380" y="1120" type="line"/>
      <point x="840" y="1120" type="line"/>
      <point x="840" y="840" type="line"/>
      <point x="661" y="840" type="line"/>
      <point x="552" y="700" type="line"/>
      <point x="663" y="560" type="line"/>
      <point x="840" y="560" type="line"/>
      <point x="840" y="280" type="line"/>
      <point x="380" y="280" type="line"/>
      <point x="380" y="540" type="line"/>
      <point x="100" y="540" type="line"/>
      <point x="100" y="279" type="line"/>
      <point x="380" y="0" type="line"/>
      <point x="896" y="0" type="line"/>
      <point x="1120" y="224" type="line"/>
      <point x="1120" y="616" type="line"/>
      <point x="1036" y="700" type="line"/>
      <point x="1120" y="784" type="line"/>
      <point x="1120" y="1176" type="line"/>
      <point x="896" y="1400" type="line"/>
      <point x="380" y="1400" type="line"/>
      <point x="100" y="1126" type="line"/>
      <point x="100" y="980" type="line"/>
    </contour>
  </outline>
</glyph>
<glyph name="uni10DC" format="1">
  <advance width="1091"/>
  <unicode hex="10DC"/>
  <outline>
    <contour>
      <point x="374" y="1403" type="line"/>
      <point x="991" y="1403" type="line"/>
      <point x="991" y="1128" type="line"/>
      <point x="375" y="1128" type="line"/>
      <point x="375" y="897" type="line"/>
      <point x="767" y="897" type="line"/>
      <point x="991" y="673" type="line"/>
      <point x="991" y="225" type="line"/>
      <point x="767" y="1" type="line"/>
      <point x="324" y="1" type="line"/>
      <point x="100" y="225" type="line"/>
      <point x="100" y="673" type="line"/>
      <point x="100" y="1131" type="line"/>
    </contour>
    <contour>
      <point x="380" y="281" type="line"/>
      <point x="711" y="281" type="line"/>
      <point x="711" y="617" type="line"/>
      <point x="380" y="617" type="line"/>
    </contour>
  </outline>
</glyph>
<glyph name="uni10DD" format="1">
  <advance width="1636"/>
  <unicode hex="10DD"/>
  <outline>
    <contour>
      <point x="1380" y="282" type="line"/>
      <point x="1380" y="0" type="line"/>
      <point x="1100" y="0" type="line"/>
      <point x="1100" y="282" type="line"/>
      <point x="1100" y="1128" type="line"/>
      <point x="880" y="1128" type="line"/>
      <point x="880" y="726" type="line"/>
      <point x="740" y="615" type="line"/>
      <point x="600" y="724" type="line"/>
      <point x="600" y="1128" type="line"/>
      <point x="380" y="1128" type="line"/>
      <point x="380" y="5" type="line"/>
      <point x="100" y="5" type="line"/>
      <point x="100" y="1184" type="line"/>
      <point x="324" y="1408" type="line"/>
      <point x="656" y="1408" type="line"/>
      <point x="740" y="1324" type="line"/>
      <point x="824" y="1408" type="line"/>
      <point x="1156" y="1408" type="line"/>
      <point x="1380" y="1184" type="line"/>
    </contour>
  </outline>
</glyph>
<glyph name="uni10E0" format="1">
  <advance width="1220"/>
  <unicode hex="10E0"/>
  <outline>
    <contour>
      <point x="380" y="266" type="line"/>
      <point x="380" y="0" type="line"/>
      <point x="100" y="0" type="line"/>
      <point x="100" y="266" type="line"/>
      <point x="100" y="1137" type="line"/>
      <point x="379" y="1403" type="line"/>
      <point x="771" y="1403" type="line"/>
      <point x="771" y="1137" type="line"/>
      <point x="380" y="1137" type="line"/>
      <point x="380" y="988" type="line"/>
      <point x="896" y="988" type="line"/>
      <point x="1120" y="764" type="line"/>
      <point x="1120" y="266" type="line"/>
      <point x="1120" y="0" type="line"/>
      <point x="840" y="0" type="line"/>
      <point x="840" y="266" type="line"/>
      <point x="840" y="708" type="line"/>
      <point x="380" y="708" type="line"/>
    </contour>
  </outline>
</glyph>
<glyph name="uni10E1" format="1">
  <advance width="1217"/>
  <unicode hex="10E1"/>
  <outline>
    <contour>
      <point x="841" y="705" type="line"/>
      <point x="1112" y="455" type="line"/>
      <point x="1114" y="455" type="line"/>
      <point x="1114" y="282" type="line"/>
      <point x="1117" y="282" type="line"/>
      <point x="1114" y="279" type="line"/>
      <point x="1114" y="275" type="line"/>
      <point x="1110" y="275" type="line"/>
      <point x="841" y="0" type="line"/>
      <point x="371" y="0" type="line"/>
      <point x="100" y="282" type="line"/>
      <point x="100" y="1402" type="line"/>
      <point x="375" y="1402" type="line"/>
      <point x="375" y="282" type="line"/>
      <point x="809" y="282" type="line"/>
      <point x="809" y="454" type="line"/>
      <point x="806" y="457" type="line"/>
      <point x="806" y="453" type="line"/>
      <point x="552" y="705" type="line"/>
      <point x="555" y="1032" type="line"/>
      <point x="842" y="1032" type="line"/>
    </contour>
  </outline>
</glyph>
<glyph name="uni10E2" format="1">
  <advance width="1460"/>
  <unicode hex="10E2"/>
  <outline>
    <contour>
      <point x="593" y="1250" type="line"/>
      <point x="593" y="1400" type="line"/>
      <point x="868" y="1400" type="line"/>
      <point x="868" y="1250" type="line"/>
      <point x="1136" y="1250" type="line"/>
      <point x="1360" y="1026" type="line"/>
      <point x="1360" y="224" type="line"/>
      <point x="1136" y="0" type="line"/>
      <point x="324" y="0" type="line"/>
      <point x="100" y="224" type="line"/>
      <point x="100" y="1026" type="line"/>
      <point x="324" y="1250" type="line"/>
    </contour>
    <contour>
      <point x="593" y="970" type="line"/>
      <point x="380" y="970" type="line"/>
      <point x="380" y="280" type="line"/>
      <point x="1080" y="280" type="line"/>
      <point x="1080" y="970" type="line"/>
      <point x="868" y="970" type="line"/>
      <point x="868" y="744" type="line"/>
      <point x="593" y="744" type="line"/>
    </contour>
  </outline>
</glyph>
